{
DisplayStrings = (
/uni2296
);
copyright = "Creative Commons CC BY-SA 2012";
date = "2012-03-28 22:07:42 +0000";
familyName = "Splunk Icons";
fontMaster = (
{
alignmentZones = (
"{1536, 30}",
"{1460, 30}",
"{1082, 30}",
"{0, -31}",
"{-512, -31}"
);
ascender = 1536;
capHeight = 1460;
customParameters = (
{
name = typoAscender;
value = 1536;
},
{
name = typoDescender;
value = "-512";
},
{
name = postscriptUnderlinePosition;
value = "-150";
},
{
name = typoLineGap;
value = 102;
},
{
name = underlinePosition;
value = "-150";
},
{
name = underlineThickness;
value = 100;
}
);
descender = "-512";
guideLines = (
{
angle = 90;
position = "{92, 1600}";
},
{
angle = 90;
position = "{184, 1600}";
},
{
angle = 90;
position = "{292, 1600}";
},
{
angle = 270;
position = "{365, 1600}";
},
{
angle = 90;
position = "{511, 1600}";
},
{
angle = 90;
position = "{638, 1602}";
},
{
angle = 180;
position = "{1606, 657}";
},
{
angle = 90;
position = "{730, -193}";
},
{
angle = 90;
position = "{822, 1600}";
},
{
angle = 90;
position = "{1168, 1600}";
},
{
angle = 90;
position = "{1276, 1600}";
},
{
angle = 90;
position = "{1460, 1600}";
},
{
angle = 90;
position = "{1368, 1600}";
},
{
angle = 180;
position = "{-100, 92}";
},
{
angle = 180;
position = "{-100, 184}";
},
{
angle = 180;
position = "{-100, 365}";
},
{
angle = 180;
position = "{-100, 438}";
},
{
position = "{-100, 511}";
},
{
position = "{-100, 728}";
},
{
position = "{-100, 803}";
},
{
position = "{-100, 876}";
},
{
angle = 180;
position = "{-100, 949}";
},
{
angle = 180;
position = "{1190, 1022}";
},
{
angle = 180;
position = "{-100, 1095}";
},
{
angle = 180;
position = "{-100, 1168}";
},
{
position = "{-100, 1276}";
},
{
angle = 180;
position = "{-100, 1460}";
},
{
angle = 180;
position = "{-100, 1368}";
},
{
angle = 90;
position = "{0, 1600}";
},
{
angle = 90;
position = "{1095, 1600}";
},
{
angle = 180;
position = "{-100, 292}";
},
{
angle = 90;
position = "{1533, -203}";
},
{
angle = 90;
position = "{1606, -200}";
},
{

glyphs = (
{
color = 1;
glyphname = I;
lastChange = "2013-10-23 18:03:53 +0000";
layers = (
{
anchors = (
{
name = ogonek;
position = "{1387, 10}";
},
{
name = top;
position = "{747, 1456}";
}
);
layerId = "ABCF47FB-41DD-418D-ADD0-B1CD0215F61B";
name = Regular;
paths = (
{
closed = 1;
nodes = (
"944 1478 OFFCURVE",
"1131 1397 OFFCURVE",
"1268 1264 CURVE SMOOTH",
"1404 1131 OFFCURVE",
"1492 947 OFFCURVE",
"1492 739 CURVE SMOOTH",
"1495 531 OFFCURVE",
"1414 347 OFFCURVE",
"1281 210 CURVE SMOOTH",
"1148 74 OFFCURVE",
"963 -14 OFFCURVE",
"756 -17 CURVE SMOOTH",
"548 -20 OFFCURVE",
"364 61 OFFCURVE",
"227 194 CURVE SMOOTH",
"91 327 OFFCURVE",
"3 511 OFFCURVE",
"0 719 CURVE",
"0 927 OFFCURVE",
"81 1114 OFFCURVE",
"214 1251 CURVE SMOOTH",
"344 1387 OFFCURVE",
"528 1472 OFFCURVE",
"736 1475 CURVE SMOOTH"
);
},
{
closed = 1;
nodes = (
"724 1258 OFFCURVE",
"677 1181 OFFCURVE",
"677 1122 CURVE",
"672 1053 OFFCURVE",
"709 1017 OFFCURVE",
"795 1017 CURVE SMOOTH",
"894 1017 OFFCURVE",
"949 1082 OFFCURVE",
"949 1151 CURVE SMOOTH",
"949 1210 OFFCURVE",
"923 1258 OFFCURVE",
"838 1258 CURVE SMOOTH"
);
},
{
closed = 1;
nodes = (
"934 467 LINE",
"905 446 OFFCURVE",
"879 431 OFFCURVE",
"854 419 CURVE",
"828 409 OFFCURVE",
"812 402 OFFCURVE",
"802 402 CURVE SMOOTH",
"786 402 OFFCURVE",
"783 423 OFFCURVE",
"795 472 CURVE SMOOTH",
"872 762 LINE SMOOTH",
"886 817 OFFCURVE",
"889 859 OFFCURVE",
"886 891 CURVE SMOOTH",
"883 924 OFFCURVE",
"863 939 OFFCURVE",
"834 939 CURVE SMOOTH",
"766 939 OFFCURVE",
"599 868 OFFCURVE",
"455 751 CURVE",
"486 699 LINE",
"529 733 OFFCURVE",
"606 762 OFFCURVE",
"625 762 CURVE SMOOTH",
"636 762 OFFCURVE",
"636 740 OFFCURVE",
"625 699 CURVE SMOOTH",
"555 423 LINE SMOOTH",
"537 346 OFFCURVE",
"532 297 OFFCURVE",
"551 270 CURVE",
"566 244 OFFCURVE",
"589 229 OFFCURVE",
"618 229 CURVE SMOOTH",
"677 229 OFFCURVE",
"824 281 OFFCURVE",
"966 423 CURVE"
);
}
);
width = 1492;
}
);
unicode = 0049;
},
{
color = 4;
glyphname = a;
lastChange = "2013-12-20 18:26:07 +0000";
layers = (
{
anchors = (
{
name = ogonek;
position = "{938, 10}";
},
{
name = top;
position = "{495, 1082}";
}
);
layerId = "ABCF47FB-41DD-418D-ADD0-B1CD0215F61B";
name = Regular;
paths = (
{
closed = 1;
nodes = (
"833 1082 LINE",
"1033 1083 LINE",
"787 234 LINE SMOOTH",
"584 239 LINE",
"626 368 LINE",
"536 214 OFFCURVE",
"447 104 OFFCURVE",
"362 40 CURVE SMOOTH",
"314 4 OFFCURVE",
"262 -15 OFFCURVE",
"206 -15 CURVE SMOOTH",
"60 -15 OFFCURVE",
"0 123 OFFCURVE",
"0 270 CURVE SMOOTH",
"0 490 OFFCURVE",
"148 816 OFFCURVE",
"369 988 CURVE SMOOTH",
"460 1060 OFFCURVE",
"546 1095 OFFCURVE",
"625 1095 CURVE SMOOTH",
"714 1095 OFFCURVE",
"766 1053 OFFCURVE",
"791 919 CURVE"
);
},
{
closed = 1;
nodes = (
"738 906 OFFCURVE",
"726 951 OFFCURVE",
"700 980 CURVE",
"681 1000 OFFCURVE",
"657 1009 OFFCURVE",
"624 1009 CURVE SMOOTH",
"593 1009 OFFCURVE",
"561 997 OFFCURVE",
"527 973 CURVE SMOOTH",
"391 877 OFFCURVE",
"187 513 OFFCURVE",
"187 300 CURVE SMOOTH",
"187 259 OFFCURVE",
"196 229 OFFCURVE",
"215 211 CURVE",
"231 192 OFFCURVE",
"252 183 OFFCURVE",
"274 183 CURVE SMOOTH",
"319 183 OFFCURVE",
"365 203 OFFCURVE",
"412 244 CURVE SMOOTH",
"548 359 OFFCURVE",
"738 617 OFFCURVE",
"738 844 CURVE"
);
},
{
closed = 1;
nodes = (
"778 198 OFFCURVE",
"769 173 OFFCURVE",
"774 159 CURVE SMOOTH",
"778 145 OFFCURVE",
"790 140 OFFCURVE",
"798 140 CURVE SMOOTH",
"812 140 OFFCURVE",
"833 143 OFFCURVE",
"864 163 CURVE SMOOTH",
"895 183 OFFCURVE",
"914 208 OFFCURVE",
"954 254 CURVE",
"992 222 LINE",
"837 7 OFFCURVE",
"750 -21 OFFCURVE",
"665 -21 CURVE SMOOTH",
"625 -21 OFFCURVE",
"597 -3 OFFCURVE",
"575 28 CURVE SMOOTH",
"553 60 OFFCURVE",
"557 132 OFFCURVE",
"584 239 CURVE SMOOTH",
"787 234 LINE"
);
}
);
width = 1114;
}
);
unicode = 0061;
},
{
color = 4;
glyphname = i;
lastChange = "2014-01-30 17:25:35 +0000";
layers = (
{
layerId = "ABCF47FB-41DD-418D-ADD0-B1CD0215F61B";
name = Regular;
paths = (
{
closed = 1;
nodes = (
"607 1474 OFFCURVE",
"646 1417 OFFCURVE",
"646 1357 CURVE SMOOTH",
"646 1275 OFFCURVE",
"582 1207 OFFCURVE",
"476 1207 CURVE SMOOTH",
"401 1207 OFFCURVE",
"345 1254 OFFCURVE",
"349 1324 CURVE",
"349 1392 OFFCURVE",
"412 1474 OFFCURVE",
"515 1474 CURVE SMOOTH"
);
},
{
closed = 1;
nodes = (
"196 -21 OFFCURVE",
"148 -3 OFFCURVE",
"126 28 CURVE SMOOTH",
"104 60 OFFCURVE",
"107 132 OFFCURVE",
"135 239 CURVE SMOOTH",
"269 751 LINE SMOOTH",
"284 809 OFFCURVE",
"294 871 OFFCURVE",
"265 871 CURVE SMOOTH",
"242 871 OFFCURVE",
"169 838 OFFCURVE",
"110 798 CURVE",
"77 856 LINE",
"270 1017 OFFCURVE",
"351 1082 OFFCURVE",
"454 1082 CURVE SMOOTH",
"514 1082 OFFCURVE",
"536 1060 OFFCURVE",
"545 1016 CURVE",
"550 971 OFFCURVE",
"542 912 OFFCURVE",
"524 840 CURVE",
"384 258 LINE SMOOTH",
"375 222 OFFCURVE",
"366 197 OFFCURVE",
"371 183 CURVE SMOOTH",
"375 169 OFFCURVE",
"387 164 OFFCURVE",
"395 164 CURVE SMOOTH",
"409 164 OFFCURVE",
"430 167 OFFCURVE",
"461 187 CURVE SMOOTH",
"492 207 OFFCURVE",
"495 218 OFFCURVE",
"535 264 CURVE",
"583 222 LINE",
"428 7 OFFCURVE",
"341 -21 OFFCURVE",
"236 -21 CURVE SMOOTH"
);
}
);
width = 691;
}
);
unicode = 0069;
},
{
color = 4;
glyphname = k;
lastChange = "2013-10-23 18:03:53 +0000";
layers = (
{
hints = (
{
horizontal = 1;
place = "{0.000000, -30.000000}";
},
{
horizontal = 1;
place = "{1082.000000, 30.000000}";
}
);
layerId = "ABCF47FB-41DD-418D-ADD0-B1CD0215F61B";
name = Regular;
paths = (
{
closed = 1;
nodes = (
"818 -22 LINE",
"388 576 LINE",
"388 0 LINE",
"100 0 LINE",
"100 1589 LINE",
"388 1589 LINE",
"388 657 LINE",
"419 657 LINE",
"801 1100 LINE",
"1019 1006 LINE",
"650 613 LINE",
"1085 72 LINE"
);
}
);
width = 1225;
}
);
unicode = 006B;
},
{
color = 4;
glyphname = l;
lastChange = "2013-10-23 18:03:53 +0000";
layers = (
{
anchors = (
{
name = bottom;
position = "{749, 0}";
},
{
name = top;
position = "{749, 2362}";
},
{
name = topright;
position = "{1360, 2362}";
}
);
layerId = "ABCF47FB-41DD-418D-ADD0-B1CD0215F61B";
name = Regular;
paths = (
{
closed = 1;
nodes = (
"100 1622 LINE",
"390 1622 LINE",
"390 0 LINE",
"100 0 LINE"
);
}
);
width = 470;
}
);
unicode = 006C;
},
{
color = 4;
glyphname = n;
lastChange = "2013-10-23 18:03:53 +0000";
layers = (
{
anchors = (
{
name = bottom;
position = "{755, 0}";
},
{
name = top;
position = "{755, 2362}";
}
);
hints = (
{
horizontal = 1;
place = "{1082.000000, 29.000000}";
}
);
layerId = "ABCF47FB-41DD-418D-ADD0-B1CD0215F61B";
name = Regular;
paths = (
{
closed = 1;
nodes = (
"849 0 LINE",
"849 618 LINE SMOOTH",
"849 672 OFFCURVE",
"847 716 OFFCURVE",
"842 744 CURVE SMOOTH",
"836 773 OFFCURVE",
"827 799 OFFCURVE",
"814 823 CURVE SMOOTH",
"781 882 OFFCURVE",
"722 912 OFFCURVE",
"637 912 CURVE SMOOTH",
"585 912 OFFCURVE",
"539 902 OFFCURVE",
"499 880 CURVE SMOOTH",
"460 858 OFFCURVE",
"432 825 OFFCURVE",
"414 782 CURVE SMOOTH",
"403 755 OFFCURVE",
"397 729 OFFCURVE",
"393 703 CURVE SMOOTH",
"388 675 OFFCURVE",
"388 635 OFFCURVE",
"388 583 CURVE SMOOTH",
"388 0 LINE",
"100 0 LINE",
"100 1083 LINE",
"388 1083 LINE",
"388 937 LINE",
"443 998 OFFCURVE",
"499 1041 OFFCURVE",
"556 1067 CURVE SMOOTH",
"615 1094 OFFCURVE",
"683 1109 OFFCURVE",
"759 1109 CURVE SMOOTH",
"844 1109 OFFCURVE",
"916 1092 OFFCURVE",
"975 1054 CURVE",
"1034 1019 OFFCURVE",
"1076 969 OFFCURVE",
"1102 904 CURVE SMOOTH",
"1109 888 OFFCURVE",
"1113 873 OFFCURVE",
"1117 856 CURVE",
"1122 838 OFFCURVE",
"1126 821 OFFCURVE",
"1128 799 CURVE SMOOTH",
"1130 777 OFFCURVE",
"1133 751 OFFCURVE",
"1133 723 CURVE",
"1135 692 OFFCURVE",
"1135 657 OFFCURVE",
"1135 613 CURVE SMOOTH",
"1135 0 LINE"
);
}
);
width = 1235;
}
);
unicode = 006E;
},
{
color = 4;
glyphname = p;
lastChange = "2013-10-23 18:03:53 +0000";
layers = (
{
hints = (
{
horizontal = 1;
place = "{1082.000000, 27.000000}";
},
{
horizontal = 1;
place = "{0.000000, -27.000000}";
}
);
layerId = "ABCF47FB-41DD-418D-ADD0-B1CD0215F61B";
name = Regular;
paths = (
{
closed = 1;
nodes = (
"1231 479 OFFCURVE",
"1217 401 OFFCURVE",
"1191 329 CURVE SMOOTH",
"1165 258 OFFCURVE",
"1129 195 OFFCURVE",
"1083 142 CURVE SMOOTH",
"1036 88 OFFCURVE",
"981 47 OFFCURVE",
"917 17 CURVE SMOOTH",
"854 -12 OFFCURVE",
"785 -27 OFFCURVE",
"711 -27 CURVE SMOOTH",
"678 -27 OFFCURVE",
"646 -24 OFFCURVE",
"617 -19 CURVE SMOOTH",
"588 -13 OFFCURVE",
"561 -3 OFFCURVE",
"535 11 CURVE SMOOTH",
"509 24 OFFCURVE",
"483 42 OFFCURVE",
"458 64 CURVE",
"432 85 OFFCURVE",
"406 112 OFFCURVE",
"378 144 CURVE",
"378 -543 LINE",
"100 -543 LINE",
"100 1082 LINE",
"378 1082 LINE",
"380 924 LINE",
"431 987 OFFCURVE",
"486 1034 OFFCURVE",
"545 1064 CURVE SMOOTH",
"604 1093 OFFCURVE",
"673 1108 OFFCURVE",
"751 1108 CURVE SMOOTH",
"822 1108 OFFCURVE",
"887 1095 OFFCURVE",
"945 1068 CURVE SMOOTH",
"1004 1041 OFFCURVE",
"1054 1004 OFFCURVE",
"1097 956 CURVE SMOOTH",
"1140 909 OFFCURVE",
"1173 852 OFFCURVE",
"1196 785 CURVE SMOOTH",
"1219 719 OFFCURVE",
"1231 645 OFFCURVE",
"1231 564 CURVE SMOOTH"
);
},
{
closed = 1;
nodes = (
"928 672 OFFCURVE",
"904 765 OFFCURVE",
"856 834 CURVE SMOOTH",
"808 903 OFFCURVE",
"742 937 OFFCURVE",
"659 937 CURVE SMOOTH",
"572 937 OFFCURVE",
"503 901 OFFCURVE",
"452 828 CURVE SMOOTH",
"401 755 OFFCURVE",
"376 656 OFFCURVE",
"376 532 CURVE SMOOTH",
"376 410 OFFCURVE",
"401 315 OFFCURVE",
"451 245 CURVE SMOOTH",
"501 176 OFFCURVE",
"570 141 OFFCURVE",
"657 141 CURVE SMOOTH",
"710 141 OFFCURVE",
"753 154 OFFCURVE",
"787 181 CURVE SMOOTH",
"821 208 OFFCURVE",
"849 242 OFFCURVE",
"870 283 CURVE SMOOTH",
"891 324 OFFCURVE",
"906 369 OFFCURVE",
"915 418 CURVE SMOOTH",
"923 466 OFFCURVE",
"928 511 OFFCURVE",
"928 553 CURVE SMOOTH"
);
}
);
width = 1241;
}
);
unicode = 0070;
},
{
color = 4;
glyphname = s;
lastChange = "2013-10-23 18:03:53 +0000";
layers = (
{
anchors = (
{
name = bottom;
position = "{483, 0}";
},
{
name = top;
position = "{483, 1082}";
}
);
hints = (
{
horizontal = 1;
place = "{1082.000000, 27.000000}";
},
{
horizontal = 1;
place = "{0.000000, -27.000000}";
}
);
layerId = "ABCF47FB-41DD-418D-ADD0-B1CD0215F61B";
name = Regular;
paths = (
{
closed = 1;
nodes = (
"866 250 OFFCURVE",
"858 207 OFFCURVE",
"836 165 CURVE SMOOTH",
"816 126 OFFCURVE",
"788 91 OFFCURVE",
"753 63 CURVE SMOOTH",
"716 34 OFFCURVE",
"672 12 OFFCURVE",
"624 -3 CURVE SMOOTH",
"574 -20 OFFCURVE",
"519 -27 OFFCURVE",
"460 -27 CURVE SMOOTH",
"388 -27 OFFCURVE",
"325 -18 OFFCURVE",
"268 1 CURVE SMOOTH",
"214 21 OFFCURVE",
"157 54 OFFCURVE",
"100 97 CURVE",
"194 250 LINE",
"238 211 OFFCURVE",
"279 185 OFFCURVE",
"314 167 CURVE",
"351 150 OFFCURVE",
"388 141 OFFCURVE",
"425 141 CURVE SMOOTH",
"471 141 OFFCURVE",
"508 152 OFFCURVE",
"537 176 CURVE SMOOTH",
"565 200 OFFCURVE",
"578 233 OFFCURVE",
"578 274 CURVE SMOOTH",
"578 292 OFFCURVE",
"576 307 OFFCURVE",
"572 322 CURVE",
"565 338 OFFCURVE",
"556 353 OFFCURVE",
"543 368 CURVE",
"530 386 OFFCURVE",
"510 401 OFFCURVE",
"486 421 CURVE SMOOTH",
"462 440 OFFCURVE",
"432 462 OFFCURVE",
"395 490 CURVE",
"366 510 OFFCURVE",
"338 532 OFFCURVE",
"310 554 CURVE SMOOTH",
"283 576 OFFCURVE",
"257 597 OFFCURVE",
"235 621 CURVE",
"214 648 OFFCURVE",
"196 674 OFFCURVE",
"181 704 CURVE",
"168 735 OFFCURVE",
"161 770 OFFCURVE",
"161 809 CURVE SMOOTH",
"161 853 OFFCURVE",
"170 894 OFFCURVE",
"190 931 CURVE",
"207 968 OFFCURVE",
"233 999 OFFCURVE",
"266 1025 CURVE SMOOTH",
"299 1051 OFFCURVE",
"338 1071 OFFCURVE",
"382 1086 CURVE SMOOTH",
"427 1102 OFFCURVE",
"478 1108 OFFCURVE",
"530 1108 CURVE SMOOTH",
"587 1108 OFFCURVE",
"641 1099 OFFCURVE",
"694 1086 CURVE",
"746 1071 OFFCURVE",
"796 1049 OFFCURVE",
"840 1021 CURVE",
"755 883 LINE",
"698 925 OFFCURVE",
"637 944 OFFCURVE",
"574 944 CURVE SMOOTH",
"534 944 OFFCURVE",
"502 934 OFFCURVE",
"478 914 CURVE",
"451 894 OFFCURVE",
"441 868 OFFCURVE",
"441 837 CURVE SMOOTH",
"441 809 OFFCURVE",
"451 783 OFFCURVE",
"473 761 CURVE",
"495 737 OFFCURVE",
"534 704 OFFCURVE",
"589 663 CURVE SMOOTH",
"644 621 OFFCURVE",
"689 586 OFFCURVE",
"727 556 CURVE",
"761 525 OFFCURVE",
"790 497 OFFCURVE",
"812 471 CURVE",
"831 445 OFFCURVE",
"847 416 OFFCURVE",
"855 390 CURVE",
"862 362 OFFCURVE",
"866 331 OFFCURVE",
"866 298 CURVE SMOOTH"
);
}
);
width = 876;
}
);
unicode = 0073;
},
{
color = 4;
glyphname = u;
lastChange = "2013-10-23 18:03:53 +0000";
layers = (
{
anchors = (
{
name = ogonek;
position = "{1229, 22}";
},
{
name = top;
position = "{705, 2362}";
}
);
hints = (
{
horizontal = 1;
place = "{0.000000, -29.000000}";
}
);
layerId = "ABCF47FB-41DD-418D-ADD0-B1CD0215F61B";
name = Regular;
paths = (
{
closed = 1;
nodes = (
"847 -3 LINE",
"847 143 LINE",
"790 82 OFFCURVE",
"735 39 OFFCURVE",
"676 10 CURVE",
"617 -16 OFFCURVE",
"552 -29 OFFCURVE",
"475 -29 CURVE SMOOTH",
"388 -29 OFFCURVE",
"316 -12 OFFCURVE",
"259 21 CURVE SMOOTH",
"200 56 OFFCURVE",
"157 106 OFFCURVE",
"133 172 CURVE",
"124 189 OFFCURVE",
"120 205 OFFCURVE",
"115 222 CURVE",
"111 240 OFFCURVE",
"109 259 OFFCURVE",
"107 283 CURVE",
"102 305 OFFCURVE",
"100 331 OFFCURVE",
"100 360 CURVE SMOOTH",
"100 467 LINE",
"100 1082 LINE",
"384 1082 LINE",
"384 462 LINE SMOOTH",
"384 405 OFFCURVE",
"388 364 OFFCURVE",
"393 336 CURVE",
"397 307 OFFCURVE",
"406 281 OFFCURVE",
"419 257 CURVE SMOOTH",
"454 196 OFFCURVE",
"513 165 OFFCURVE",
"596 165 CURVE SMOOTH",
"703 165 OFFCURVE",
"777 211 OFFCURVE",
"818 301 CURVE SMOOTH",
"829 325 OFFCURVE",
"836 349 OFFCURVE",
"840 377 CURVE SMOOTH",
"844 405 OFFCURVE",
"847 447 OFFCURVE",
"847 499 CURVE SMOOTH",
"847 1082 LINE",
"1133 1082 LINE",
"1133 -3 LINE"
);
}
);
width = 1233;
}
);
unicode = 0075;
},
{
color = 4;
glyphname = numbersign;
lastChange = "2013-12-20 18:18:15 +0000";
layers = (
{
layerId = "ABCF47FB-41DD-418D-ADD0-B1CD0215F61B";
name = Regular;
paths = (
{
closed = 1;
nodes = (
"255 0 LINE",
"71 0 LINE",
"140 341 LINE",
"0 341 LINE",
"0 478 LINE",
"167 478 LINE",
"262 947 LINE",
"0 947 LINE",
"0 1082 LINE",
"289 1082 LINE",
"363 1456 LINE",
"551 1456 LINE",
"475 1082 LINE",
"808 1082 LINE",
"882 1456 LINE",
"1069 1456 LINE",
"993 1082 LINE",
"1166 1082 LINE",
"1166 947 LINE",
"967 947 LINE",
"871 478 LINE",
"1161 478 LINE",
"1161 341 LINE",
"846 341 LINE",
"776 0 LINE",
"588 0 LINE",
"657 341 LINE",
"328 341 LINE"
);
},
{
closed = 1;
nodes = (
"449 947 LINE",
"355 478 LINE",
"687 478 LINE",
"781 947 LINE"
);
}
);
width = 1166;
}
);
leftKerningGroup = 40;
rightKerningGroup = 40;
unicode = 0023;
},
{
glyphname = question;
lastChange = "2013-12-23 21:59:47 +0000";
layers = (
{
layerId = "ABCF47FB-41DD-418D-ADD0-B1CD0215F61B";
name = Regular;
paths = (
{
closed = 1;
nodes = (
"433 748 OFFCURVE",
"402 717 OFFCURVE",
"359 717 CURVE SMOOTH",
"288 717 LINE SMOOTH",
"245 717 OFFCURVE",
"214 748 OFFCURVE",
"214 791 CURVE SMOOTH",
"214 863 LINE SMOOTH",
"214 1009 OFFCURVE",
"433 1034 OFFCURVE",
"433 1155 CURVE SMOOTH",
"433 1197 OFFCURVE",
"406 1228 OFFCURVE",
"359 1228 CURVE SMOOTH",
"288 1228 LINE SMOOTH",
"245 1228 OFFCURVE",
"214 1197 OFFCURVE",
"214 1154 CURVE SMOOTH",
"214 1112 OFFCURVE",
"183 1082 OFFCURVE",
"140 1082 CURVE SMOOTH",
"69 1082 LINE SMOOTH",
"26 1082 OFFCURVE",
"-5 1113 OFFCURVE",
"-5 1156 CURVE",
"-5 1349 OFFCURVE",
"68 1447 OFFCURVE",
"287 1447 CURVE SMOOTH",
"360 1447 LINE SMOOTH",
"579 1447 OFFCURVE",
"652 1355 OFFCURVE",
"652 1155 CURVE SMOOTH",
"652 934 OFFCURVE",
"433 934 OFFCURVE",
"433 791 CURVE SMOOTH"
);
},
{
closed = 1;
nodes = (
"263 389 OFFCURVE",
"214 438 OFFCURVE",
"214 499 CURVE SMOOTH",
"214 559 OFFCURVE",
"263 608 OFFCURVE",
"324 608 CURVE SMOOTH",
"384 608 OFFCURVE",
"433 561 OFFCURVE",
"433 499 CURVE SMOOTH",
"433 438 OFFCURVE",
"384 389 OFFCURVE",
"324 389 CURVE SMOOTH"
);
}
);
width = 600;
}
);
unicode = 003F;
},
{
glyphname = guilsinglleft;
lastChange = "2013-12-19 00:54:18 +0000";
layers = (
{
layerId = "ABCF47FB-41DD-418D-ADD0-B1CD0215F61B";
name = Regular;
paths = (
{
closed = 1;
nodes = (
"781 0 LINE",
"911 131 LINE",
"312 730 LINE",
"911 1329 LINE",
"780 1460 LINE",
"50 730 LINE"
);
}
);
width = 961;
}
);
unicode = 2039;
},
{
glyphname = guilsinglright;
lastChange = "2013-12-19 00:53:58 +0000";
layers = (
{
layerId = "ABCF47FB-41DD-418D-ADD0-B1CD0215F61B";
name = Regular;
paths = (
{
closed = 1;
nodes = (
"182 1460 LINE",
"51 1329 LINE",
"650 730 LINE",
"51 131 LINE",
"181 0 LINE",
"912 730 LINE"
);
}
);
width = 962;
}
);
unicode = 203A;
},
{
color = 4;
glyphname = greater;
lastChange = "2013-10-23 18:03:53 +0000";
layers = (
{
layerId = "ABCF47FB-41DD-418D-ADD0-B1CD0215F61B";
name = Regular;
paths = (
{
closed = 1;
nodes = (
"58 43 LINE",
"58 233 LINE",
"729 564 LINE",
"58 891 LINE",
"58 1085 LINE",
"924 651 LINE",
"924 473 LINE"
);
}
);
width = 974;
}
);
unicode = 003E;
},
{
color = 4;
glyphname = minus;
lastChange = "2013-12-20 16:58:40 +0000";
layers = (
{
layerId = "ABCF47FB-41DD-418D-ADD0-B1CD0215F61B";
name = Regular;
paths = (
{
closed = 1;
nodes = (
"0 823 LINE",
"0 639 LINE",
"1461 638 LINE",
"1461 822 LINE"
);
}
);
width = 1460;
}
);
unicode = 2212;
},
{
color = 4;
glyphname = plus;
lastChange = "2014-01-30 16:59:39 +0000";
layers = (
{
layerId = "ABCF47FB-41DD-418D-ADD0-B1CD0215F61B";
name = Regular;
paths = (
{
closed = 1;
nodes = (
"822 823 LINE",
"822 1461 LINE",
"638 1461 LINE",
"638 823 LINE",
"0 823 LINE",
"0 639 LINE",
"638 638.225 LINE",
"638 0 LINE",
"822 0 LINE",
"822 638 LINE",
"1461 638 LINE",
"1461 822 LINE"
);
}
);
width = 1460;
}
);
unicode = 002B;
},
{
color = 4;
glyphname = uni2295;
lastChange = "2013-12-20 17:54:52 +0000";
layers = (
{
guideLines = (
{
angle = 180;
position = "{1626, 657}";
}
);
layerId = "ABCF47FB-41DD-418D-ADD0-B1CD0215F61B";
name = Regular;
paths = (
{
closed = 1;
nodes = (
"953 1480 OFFCURVE",
"1147 1398 OFFCURVE",
"1282 1262 CURVE SMOOTH",
"1418 1127 OFFCURVE",
"1500 933 OFFCURVE",
"1500 730 CURVE SMOOTH",
"1500 520 OFFCURVE",
"1418 337 OFFCURVE",
"1282 201 CURVE SMOOTH",
"1147 66 OFFCURVE",
"953 -20 OFFCURVE",
"750 -20 CURVE SMOOTH",
"540 -20 OFFCURVE",
"357 66 OFFCURVE",
"221 201 CURVE SMOOTH",
"86 337 OFFCURVE",
"0 520 OFFCURVE",
"0 730 CURVE SMOOTH",
"0 933 OFFCURVE",
"86 1127 OFFCURVE",
"221 1262 CURVE SMOOTH",
"357 1398 OFFCURVE",
"540 1480 OFFCURVE",
"750 1480 CURVE SMOOTH"
);
},
{
closed = 1;
nodes = (
"1317 876 LINE",
"897 876 LINE",
"897 1297 LINE",
"605 1297 LINE",
"605 876 LINE",
"184 876 LINE",
"184 584 LINE",
"605 584 LINE",
"605 164 LINE",
"897 164 LINE",
"897 584 LINE",
"1317 584 LINE"
);
}
);
width = 1500;
}
);
unicode = 2295;
},
{
color = 4;
glyphname = uni2296;
lastChange = "2016-08-18 15:29:01 +0000";
layers = (
{
layerId = "ABCF47FB-41DD-418D-ADD0-B1CD0215F61B";
name = Regular;
paths = (
{
closed = 1;
nodes = (
"539 1480 OFFCURVE",
"356 1397 OFFCURVE",
"221 1262 CURVE SMOOTH",
"86 1126 OFFCURVE",
"0 933 OFFCURVE",
"0 730 CURVE SMOOTH",
"0 520 OFFCURVE",
"86 337 OFFCURVE",
"221 201 CURVE SMOOTH",
"356 66 OFFCURVE",
"539 -20 OFFCURVE",
"749 -20 CURVE SMOOTH",
"953 -20 OFFCURVE",
"1146 66 OFFCURVE",
"1282 201 CURVE SMOOTH",
"1417 337 OFFCURVE",
"1500 520 OFFCURVE",
"1500 730 CURVE SMOOTH",
"1500 933 OFFCURVE",
"1417 1126 OFFCURVE",
"1282 1262 CURVE SMOOTH",
"1146 1397 OFFCURVE",
"953 1480 OFFCURVE",
"749 1480 CURVE SMOOTH"
);
},
{
closed = 1;
nodes = (
"1317 584 LINE",
"184 584 LINE",
"184 876 LINE",
"1317 876 LINE"
);
}
);
width = 1500;
}
);
unicode = 2296;
},
{
color = 4;
glyphname = uni2297;
lastChange = "2013-12-20 17:55:05 +0000";
layers = (
{
layerId = "ABCF47FB-41DD-418D-ADD0-B1CD0215F61B";
name = Regular;
paths = (
{
closed = 1;
nodes = (
"953 1480 OFFCURVE",
"1147 1398 OFFCURVE",
"1282 1262 CURVE SMOOTH",
"1418 1127 OFFCURVE",
"1500 933 OFFCURVE",
"1500 730 CURVE SMOOTH",
"1500 520 OFFCURVE",
"1418 337 OFFCURVE",
"1282 201 CURVE SMOOTH",
"1147 66 OFFCURVE",
"953 -20 OFFCURVE",
"750 -20 CURVE SMOOTH",
"540 -20 OFFCURVE",
"357 66 OFFCURVE",
"221 201 CURVE SMOOTH",
"86 337 OFFCURVE",
"0 520 OFFCURVE",
"0 730 CURVE SMOOTH",
"0 933 OFFCURVE",
"86 1127 OFFCURVE",
"221 1262 CURVE SMOOTH",
"357 1398 OFFCURVE",
"540 1480 OFFCURVE",
"750 1480 CURVE SMOOTH"
);
},
{
closed = 1;
nodes = (
"1254 433 LINE",
"957 730 LINE",
"1255 1027 LINE",
"1048 1234 LINE",
"751 936 LINE",
"453 1234 LINE",
"246 1027 LINE",
"544 730 LINE",
"247 433 LINE",
"454 226 LINE",
"751 523 LINE",
"1047 226 LINE"
);
}
);
width = 1500;
}
);
unicode = 2297;
},
{
color = 4;
glyphname = uni2195;
lastChange = "2013-12-20 17:48:40 +0000";
layers = (
{
layerId = "ABCF47FB-41DD-418D-ADD0-B1CD0215F61B";
name = Regular;
paths = (
{
closed = 1;
nodes = (
"50 1006 LINE",
"181 875 LINE",
"504 1198 LINE",
"827 875 LINE",
"958 1005 LINE",
"504 1460 LINE"
);
},
{
closed = 1;
nodes = (
"958 454 LINE",
"827 585 LINE",
"504 262 LINE",
"181 585 LINE",
"50 455 LINE",
"504 0 LINE"
);
}
);
width = 1008;
}
);
unicode = 2195;
},
{
color = 4;
glyphname = uni21A5;
lastChange = "2013-12-20 17:48:57 +0000";
layers = (
{
annotations = (
{
position = "{788.210, 691.229}";
text = "Sort Assencding: Aligns to sort down and unsorted glyphs.";
type = Text;
}
);
layerId = "ABCF47FB-41DD-418D-ADD0-B1CD0215F61B";
name = Regular;
paths = (
{
closed = 1;
nodes = (
"50 1006 LINE",
"181 875 LINE",
"504 1198 LINE",
"827 875 LINE",
"958 1005 LINE",
"504 1460 LINE"
);
}
);
width = 1008;
}
);
unicode = 21A5;
},
{
color = 4;
glyphname = uni21A7;
lastChange = "2013-12-20 17:49:03 +0000";
layers = (
{
annotations = (
{
position = "{980.552, 916.773}";
text = "Sort Descending: Aligns to sort up and unsorted glyphs.";
type = Text;
}
);
layerId = "ABCF47FB-41DD-418D-ADD0-B1CD0215F61B";
name = Regular;
paths = (
{
closed = 1;
nodes = (
"958 454 LINE",
"827 585 LINE",
"504 262 LINE",
"181 585 LINE",
"50 455 LINE",
"504 0 LINE"
);
}
);
width = 1008;
}
);
unicode = 21A7;
},
{
color = 4;
glyphname = uni21BA;
lastChange = "2013-12-20 18:10:01 +0000";
layers = (
{
layerId = "ABCF47FB-41DD-418D-ADD0-B1CD0215F61B";
name = Regular;
paths = (
{
closed = 1;
nodes = (
"1412 1399 OFFCURVE",
"1222 1480 OFFCURVE",
"1017 1480 CURVE SMOOTH",
"812 1480 OFFCURVE",
"622 1399 OFFCURVE",
"485 1262 CURVE SMOOTH",
"384.662 1157.86 OFFCURVE",
"310.904 1023.1 OFFCURVE",
"281.292 874.401 CURVE",
"5 874 LINE SMOOTH",
"365 438 LINE",
"744 877 LINE",
"468 877 LINE",
"492 971 OFFCURVE",
"538 1054 OFFCURVE",
"614 1133 CURVE SMOOTH",
"732 1250 OFFCURVE",
"840 1299 OFFCURVE",
"1017 1299 CURVE SMOOTH",
"1193 1299 OFFCURVE",
"1301 1250 OFFCURVE",
"1418 1133 CURVE SMOOTH",
"1536 1014 OFFCURVE",
"1583 906 OFFCURVE",
"1583 730 CURVE SMOOTH",
"1583 554 OFFCURVE",
"1536 447 OFFCURVE",
"1418 328 CURVE SMOOTH",
"1301 210 OFFCURVE",
"1193 163 OFFCURVE",
"1017 163 CURVE SMOOTH",
"840 163 OFFCURVE",
"732 210 OFFCURVE",
"614 328 CURVE",
"485 198 LINE",
"622 61 OFFCURVE",
"812 -20 OFFCURVE",
"1017 -20 CURVE SMOOTH",
"1222 -20 OFFCURVE",
"1412 61 OFFCURVE",
"1549 198 CURVE SMOOTH",
"1686 335 OFFCURVE",
"1767 525 OFFCURVE",
"1767 730 CURVE SMOOTH",
"1767 935 OFFCURVE",
"1686 1125 OFFCURVE",
"1549 1262 CURVE SMOOTH"
);
}
);
width = 1767;
}
);
unicode = 21BA;
},
{
color = 4;
glyphname = uni21BB;
lastChange = "2013-12-20 18:10:21 +0000";
layers = (
{
layerId = "ABCF47FB-41DD-418D-ADD0-B1CD0215F61B";
name = Regular;
paths = (
{
closed = 1;
nodes = (
"81 1125 OFFCURVE",
"0 935 OFFCURVE",
"0 730 CURVE SMOOTH",
"0 525 OFFCURVE",
"81 335 OFFCURVE",
"218 198 CURVE SMOOTH",
"355 61 OFFCURVE",
"545 -20 OFFCURVE",
"750 -20 CURVE SMOOTH",
"955 -20 OFFCURVE",
"1145 61 OFFCURVE",
"1282 198 CURVE",
"1153 328 LINE",
"1035 210 OFFCURVE",
"927 163 OFFCURVE",
"750 163 CURVE SMOOTH",
"574 163 OFFCURVE",
"466 210 OFFCURVE",
"349 328 CURVE SMOOTH",
"231 447 OFFCURVE",
"184 554 OFFCURVE",
"184 730 CURVE SMOOTH",
"184 906 OFFCURVE",
"231 1014 OFFCURVE",
"349 1133 CURVE SMOOTH",
"466 1250 OFFCURVE",
"574 1299 OFFCURVE",
"750 1299 CURVE SMOOTH",
"927 1299 OFFCURVE",
"1035 1250 OFFCURVE",
"1153 1133 CURVE SMOOTH",
"1229 1054 OFFCURVE",
"1275 971 OFFCURVE",
"1299 877 CURVE",
"1023 877 LINE",
"1402 438 LINE",
"1762 874 LINE SMOOTH",
"1486 874 LINE",
"1456 1023 OFFCURVE",
"1382 1158 OFFCURVE",
"1282 1262 CURVE SMOOTH",
"1145 1399 OFFCURVE",
"955 1480 OFFCURVE",
"750 1480 CURVE SMOOTH",
"545 1480 OFFCURVE",
"355 1399 OFFCURVE",
"218 1262 CURVE SMOOTH"
);
}
);
width = 1763;
}
);
unicode = 21BB;
},
{
color = 4;
glyphname = uni27A1;
lastChange = "2013-12-20 17:13:08 +0000";
layers = (
{
annotations = (
{
position = "{1756, 850}";
type = Text;
},
{
position = "{1463.898, 638.336}";
type = Text;
}
);
layerId = "ABCF47FB-41DD-418D-ADD0-B1CD0215F61B";
name = Regular;
paths = (
{
closed = 1;
nodes = (
"872 1368 LINE",
"741 1237 LINE",
"1156 822 LINE",
"50 823 LINE",
"50 639 LINE",
"1156 638 LINE",
"741 223 LINE",
"871 92 LINE",
"1510 730 LINE"
);
}
);
width = 1510;
}
);
unicode = 27A1;
},
{
glyphname = uni27A6;
lastChange = "2013-12-20 21:19:48 +0000";
layers = (
{
annotations = (
{
position = "{1738.471, 1222.775}";
text = "For use at 15pt";
type = Text;
}
);
layerId = "ABCF47FB-41DD-418D-ADD0-B1CD0215F61B";
name = Regular;
paths = (
{
closed = 1;
nodes = (
"763 1152 LINE",
"654 1043 LINE",
"963 734 LINE",
"608 735 LINE SMOOTH",
"272 735 OFFCURVE",
"0 462 OFFCURVE",
"0 127 CURVE",
"0 73 LINE",
"153 73 LINE",
"153 128 LINE",
"154 378 OFFCURVE",
"358 582 OFFCURVE",
"608 582 CURVE SMOOTH",
"963 581 LINE",
"654 272 LINE",
"762 162 LINE",
"1258 657 LINE"
);
}
);
width = 1258;
}
);
unicode = 27A6;
},
{
color = 4;
glyphname = H18533;
lastChange = "2013-10-23 18:03:53 +0000";
layers = (
{
layerId = "ABCF47FB-41DD-418D-ADD0-B1CD0215F61B";
name = Regular;
paths = (
{
closed = 1;
nodes = (
"955 1480 OFFCURVE",
"1145 1399 OFFCURVE",
"1282 1262 CURVE SMOOTH",
"1414 1125 OFFCURVE",
"1500 935 OFFCURVE",
"1500 730 CURVE SMOOTH",
"1500 525 OFFCURVE",
"1414 335 OFFCURVE",
"1282 198 CURVE SMOOTH",
"1145 61 OFFCURVE",
"955 -20 OFFCURVE",
"750 -20 CURVE SMOOTH",
"545 -20 OFFCURVE",
"355 61 OFFCURVE",
"218 198 CURVE SMOOTH",
"81 335 OFFCURVE",
"0 525 OFFCURVE",
"0 730 CURVE SMOOTH",
"0 935 OFFCURVE",
"81 1125 OFFCURVE",
"218 1262 CURVE SMOOTH",
"355 1399 OFFCURVE",
"545 1480 OFFCURVE",
"750 1480 CURVE SMOOTH"
);
}
);
width = 1500;
}
);
unicode = 25CF;
},
{
color = 4;
glyphname = filledbox;
lastChange = "2013-12-20 18:05:37 +0000";
layers = (
{
layerId = "ABCF47FB-41DD-418D-ADD0-B1CD0215F61B";
name = Regular;
paths = (
{
closed = 1;
nodes = (
"0 73 LINE",
"1316 73 LINE",
"1314 1387 LINE",
"0 1387 LINE"
);
}
);
width = 1314;
}
);
unicode = 25A0;
},
{
color = 4;
glyphname = uni25B6;
lastChange = "2013-10-23 18:03:53 +0000";
layers = (
{
layerId = "ABCF47FB-41DD-418D-ADD0-B1CD0215F61B";
name = Regular;
paths = (
{
closed = 1;
nodes = (
"1422 645 LINE SMOOTH",
"1461 665 OFFCURVE",
"1480 697 OFFCURVE",
"1480 730 CURVE SMOOTH",
"1480 763 OFFCURVE",
"1461 795 OFFCURVE",
"1422 815 CURVE SMOOTH",
"131 1469 LINE SMOOTH",
"116 1477 OFFCURVE",
"99 1480 OFFCURVE",
"85 1480 CURVE SMOOTH",
"38 1480 OFFCURVE",
"0 1444 OFFCURVE",
"0 1387 CURVE SMOOTH",
"0 73 LINE SMOOTH",
"0 16 OFFCURVE",
"38 -20 OFFCURVE",
"85 -20 CURVE SMOOTH",
"99 -20 OFFCURVE",
"116 -16 OFFCURVE",
"131 -9 CURVE SMOOTH"
);
}
);
width = 1480;
}
);
unicode = 25B6;
},
{
color = 4;
glyphname = triagdn;
lastChange = "2013-10-23 18:03:53 +0000";
layers = (
{
layerId = "ABCF47FB-41DD-418D-ADD0-B1CD0215F61B";
name = Regular;
paths = (
{
closed = 1;
nodes = (
"645 38 LINE SMOOTH",
"664 -1 OFFCURVE",
"697 -20 OFFCURVE",
"730 -20 CURVE SMOOTH",
"763 -20 OFFCURVE",
"796 -1 OFFCURVE",
"815 38 CURVE SMOOTH",
"1449 1329 LINE SMOOTH",
"1456 1344 OFFCURVE",
"1460 1361 OFFCURVE",
"1460 1375 CURVE SMOOTH",
"1460 1422 OFFCURVE",
"1424 1460 OFFCURVE",
"1367 1460 CURVE SMOOTH",
"93 1460 LINE SMOOTH",
"36 1460 OFFCURVE",
"0 1422 OFFCURVE",
"0 1375 CURVE SMOOTH",
"0 1361 OFFCURVE",
"4 1344 OFFCURVE",
"11 1329 CURVE SMOOTH"
);
}
);
width = 1460;
}
);
unicode = 25BC;
},
{
color = 4;
glyphname = uni25C0;
lastChange = "2013-10-23 18:03:53 +0000";
layers = (
{
layerId = "ABCF47FB-41DD-418D-ADD0-B1CD0215F61B";
name = Regular;
paths = (
{
closed = 1;
nodes = (
"1349 -9 LINE SMOOTH",
"1364 -16 OFFCURVE",
"1381 -20 OFFCURVE",
"1395 -20 CURVE SMOOTH",
"1442 -20 OFFCURVE",
"1480 16 OFFCURVE",
"1480 73 CURVE SMOOTH",
"1480 1387 LINE SMOOTH",
"1480 1444 OFFCURVE",
"1442 1480 OFFCURVE",
"1395 1480 CURVE SMOOTH",
"1381 1480 OFFCURVE",
"1364 1477 OFFCURVE",
"1349 1469 CURVE SMOOTH",
"58 815 LINE SMOOTH",
"19 795 OFFCURVE",
"0 763 OFFCURVE",
"0 730 CURVE SMOOTH",
"0 697 OFFCURVE",
"19 665 OFFCURVE",
"58 645 CURVE SMOOTH"
);
}
);
width = 1480;
}
);
unicode = 25C0;
},
{
color = 4;
glyphname = uni25B4;
lastChange = "2013-10-23 18:03:53 +0000";
layers = (
{
layerId = "ABCF47FB-41DD-418D-ADD0-B1CD0215F61B";
name = Regular;
paths = (
{
closed = 1;
nodes = (
"1001 613 LINE SMOOTH",
"1036 572 OFFCURVE",
"1062 541 OFFCURVE",
"1062 511 CURVE SMOOTH",
"1062 468 OFFCURVE",
"1032 438 OFFCURVE",
"989 438 CURVE SMOOTH",
"71 438 LINE SMOOTH",
"28 438 OFFCURVE",
"0 468 OFFCURVE",
"0 511 CURVE SMOOTH",
"0 541 OFFCURVE",
"13 569 OFFCURVE",
"43 605 CURVE SMOOTH",
"458 1071 LINE SMOOTH",
"490 1106 OFFCURVE",
"505 1115 OFFCURVE",
"531 1115 CURVE SMOOTH",
"553 1115 OFFCURVE",
"568 1106 OFFCURVE",
"604 1071 CURVE"
);
}
);
width = 1062;
}
);
unicode = 25B4;
},
{
color = 4;
glyphname = uni25B8;
lastChange = "2013-10-23 18:03:53 +0000";
layers = (
{
layerId = "ABCF47FB-41DD-418D-ADD0-B1CD0215F61B";
name = Regular;
paths = (
{
closed = 1;
nodes = (
"175 190 LINE SMOOTH",
"134 155 OFFCURVE",
"103 129 OFFCURVE",
"73 129 CURVE SMOOTH",
"30 129 OFFCURVE",
"0 159 OFFCURVE",
"0 202 CURVE SMOOTH",
"0 1120 LINE SMOOTH",
"0 1163 OFFCURVE",
"30 1191 OFFCURVE",
"73 1191 CURVE SMOOTH",
"103 1191 OFFCURVE",
"131 1178 OFFCURVE",
"167 1148 CURVE SMOOTH",
"633 733 LINE SMOOTH",
"668 701 OFFCURVE",
"677 686 OFFCURVE",
"677 660 CURVE SMOOTH",
"677 638 OFFCURVE",
"668 623 OFFCURVE",
"633 587 CURVE"
);
}
);
width = 677;
}
);
unicode = 25B8;
},
{
color = 4;
glyphname = uni25BE;
lastChange = "2013-10-23 18:03:53 +0000";
layers = (
{
layerId = "ABCF47FB-41DD-418D-ADD0-B1CD0215F61B";
name = Regular;
paths = (
{
closed = 1;
nodes = (
"61 941 LINE SMOOTH",
"26 982 OFFCURVE",
"0 1013 OFFCURVE",
"0 1043 CURVE",
"-1 1086 OFFCURVE",
"30 1116 OFFCURVE",
"73 1116 CURVE SMOOTH",
"991 1116 LINE SMOOTH",
"1034 1116 OFFCURVE",
"1062 1086 OFFCURVE",
"1062 1043 CURVE SMOOTH",
"1062 1013 OFFCURVE",
"1049 985 OFFCURVE",
"1019 949 CURVE SMOOTH",
"604 483 LINE SMOOTH",
"572 448 OFFCURVE",
"557 439 OFFCURVE",
"531 439 CURVE SMOOTH",
"509 439 OFFCURVE",
"494 448 OFFCURVE",
"458 483 CURVE"
);
}
);
width = 1062;
}
);
unicode = 25BE;
},
{
color = 4;
glyphname = uni25C2;
lastChange = "2013-10-23 18:03:53 +0000";
layers = (
{
layerId = "ABCF47FB-41DD-418D-ADD0-B1CD0215F61B";
name = Regular;
paths = (
{
closed = 1;
nodes = (
"44 587 LINE",
"9 623 OFFCURVE",
"0 638 OFFCURVE",
"0 660 CURVE SMOOTH",
"0 686 OFFCURVE",
"9 701 OFFCURVE",
"44 733 CURVE SMOOTH",
"510 1148 LINE SMOOTH",
"546 1178 OFFCURVE",
"574 1191 OFFCURVE",
"604 1191 CURVE SMOOTH",
"647 1191 OFFCURVE",
"677 1163 OFFCURVE",
"677 1120 CURVE SMOOTH",
"677 202 LINE SMOOTH",
"677 159 OFFCURVE",
"647 129 OFFCURVE",
"604 129 CURVE SMOOTH",
"574 129 OFFCURVE",
"543 155 OFFCURVE",
"502 190 CURVE SMOOTH"
);
}
);
width = 677;
}
);
unicode = 25C2;
},
{
color = 4;
glyphname = uni2605;
lastChange = "2013-10-23 18:03:53 +0000";
layers = (
{
layerId = "ABCF47FB-41DD-418D-ADD0-B1CD0215F61B";
name = Regular;
paths = (
{
closed = 1;
nodes = (
"977 972 LINE",
"984 956 OFFCURVE",
"997 947 OFFCURVE",
"1016 947 CURVE SMOOTH",
"1430 947 LINE SMOOTH",
"1474 947 OFFCURVE",
"1501 916 OFFCURVE",
"1501 883 CURVE SMOOTH",
"1501 863 OFFCURVE",
"1491 844 OFFCURVE",
"1471 828 CURVE",
"1127 574 LINE SMOOTH",
"1117 567 OFFCURVE",
"1112 556 OFFCURVE",
"1112 544 CURVE SMOOTH",
"1112 542 OFFCURVE",
"1112 539 OFFCURVE",
"1113 536 CURVE",
"1240 69 LINE SMOOTH",
"1242 62 OFFCURVE",
"1243 54 OFFCURVE",
"1243 48 CURVE SMOOTH",
"1243 11 OFFCURVE",
"1213 -16 OFFCURVE",
"1179 -16 CURVE SMOOTH",
"1174 -16 LINE",
"1161 -15 OFFCURVE",
"1147 -11 OFFCURVE",
"1135 0 CURVE",
"776 270 LINE",
"769 276 OFFCURVE",
"759 279 OFFCURVE",
"751 279 CURVE SMOOTH",
"743 279 OFFCURVE",
"734 276 OFFCURVE",
"727 270 CURVE",
"362 -2 LINE",
"350 -13 OFFCURVE",
"336 -17 OFFCURVE",
"323 -18 CURVE SMOOTH",
"287 -20 OFFCURVE",
"255 7 OFFCURVE",
"255 47 CURVE SMOOTH",
"255 53 OFFCURVE",
"256 61 OFFCURVE",
"258 68 CURVE SMOOTH",
"385 536 LINE",
"386 539 OFFCURVE",
"386 543 OFFCURVE",
"386 546 CURVE SMOOTH",
"386 557 OFFCURVE",
"381 567 OFFCURVE",
"373 574 CURVE",
"30 829 LINE SMOOTH",
"10 844 OFFCURVE",
"0 863 OFFCURVE",
"0 883 CURVE SMOOTH",
"0 916 OFFCURVE",
"27 947 OFFCURVE",
"71 947 CURVE SMOOTH",
"484 947 LINE SMOOTH",
"501 947 OFFCURVE",
"515 956 OFFCURVE",
"522 972 CURVE",
"689 1433 LINE SMOOTH",
"700 1465 OFFCURVE",
"725 1480 OFFCURVE",
"750 1480 CURVE SMOOTH",
"776 1480 OFFCURVE",
"801 1465 OFFCURVE",
"812 1432 CURVE SMOOTH"
);
}
);
width = 1501;
}
);
unicode = 2605;
},
{
color = 4;
glyphname = uni2610;
lastChange = "2013-10-23 18:03:53 +0000";
layers = (
{
layerId = "ABCF47FB-41DD-418D-ADD0-B1CD0215F61B";
name = Regular;
paths = (
{
closed = 1;
nodes = (
"0 149 LINE SMOOTH",
"0 63 OFFCURVE",
"63 0 OFFCURVE",
"149 0 CURVE SMOOTH",
"1311 0 LINE SMOOTH",
"1397 0 OFFCURVE",
"1460 63 OFFCURVE",
"1460 149 CURVE SMOOTH",
"1460 1311 LINE SMOOTH",
"1460 1397 OFFCURVE",
"1397 1460 OFFCURVE",
"1311 1460 CURVE SMOOTH",
"149 1460 LINE SMOOTH",
"63 1460 OFFCURVE",
"0 1397 OFFCURVE",
"0 1311 CURVE SMOOTH"
);
},
{
closed = 1;
nodes = (
"219 1167 LINE SMOOTH",
"219 1210 OFFCURVE",
"250 1241 OFFCURVE",
"293 1241 CURVE SMOOTH",
"1167 1241 LINE SMOOTH",
"1210 1241 OFFCURVE",
"1241 1210 OFFCURVE",
"1241 1167 CURVE SMOOTH",
"1241 293 LINE SMOOTH",
"1241 250 OFFCURVE",
"1210 219 OFFCURVE",
"1167 219 CURVE SMOOTH",
"293 219 LINE SMOOTH",
"250 219 OFFCURVE",
"219 250 OFFCURVE",
"219 293 CURVE SMOOTH"
);
}
);
width = 1460;
}
);
unicode = 2610;
},
{
color = 4;
glyphname = uni2611;
lastChange = "2013-10-23 18:03:53 +0000";
layers = (
{
guideLines = (
{
angle = 180;
position = "{-100, 1460}";
}
);
layerId = "ABCF47FB-41DD-418D-ADD0-B1CD0215F61B";
name = Regular;
paths = (
{
closed = 1;
nodes = (
"0 149 LINE SMOOTH",
"0 63 OFFCURVE",
"63 0 OFFCURVE",
"149 0 CURVE SMOOTH",
"1311 0 LINE SMOOTH",
"1397 0 OFFCURVE",
"1460 63 OFFCURVE",
"1460 149 CURVE SMOOTH",
"1460 1311 LINE SMOOTH",
"1460 1397 OFFCURVE",
"1397 1460 OFFCURVE",
"1311 1460 CURVE SMOOTH",
"149 1460 LINE SMOOTH",
"63 1460 OFFCURVE",
"0 1397 OFFCURVE",
"0 1311 CURVE SMOOTH"
);
},
{
closed = 1;
nodes = (
"1068 1199 LINE SMOOTH",
"1113 1264 OFFCURVE",
"1189 1277 OFFCURVE",
"1251 1234 CURVE SMOOTH",
"1314 1190 OFFCURVE",
"1328 1114 OFFCURVE",
"1283 1049 CURVE SMOOTH",
"700 208 LINE SMOOTH",
"673 169 OFFCURVE",
"635 149 OFFCURVE",
"595 148 CURVE",
"558 145 OFFCURVE",
"519 160 OFFCURVE",
"489 190 CURVE SMOOTH",
"189 491 LINE SMOOTH",
"134 546 OFFCURVE",
"133 624 OFFCURVE",
"187 678 CURVE SMOOTH",
"241 732 OFFCURVE",
"320 731 OFFCURVE",
"374 676 CURVE SMOOTH",
"570 478 LINE"
);
}
);
width = 1460;
}
);
unicode = 2611;
},
{
color = 4;
glyphname = uni2699;
lastChange = "2013-10-23 18:03:53 +0000";
layers = (
{
layerId = "ABCF47FB-41DD-418D-ADD0-B1CD0215F61B";
name = Regular;
paths = (
{
closed = 1;
nodes = (
"1444 639 LINE",
"1452 639 OFFCURVE",
"1460 650 OFFCURVE",
"1460 658 CURVE SMOOTH",
"1460 802 LINE SMOOTH",
"1460 810 OFFCURVE",
"1452 821 OFFCURVE",
"1444 821 CURVE",
"1281 867 LINE",
"1274 867 OFFCURVE",
"1262 878 OFFCURVE",
"1262 886 CURVE",
"1217 996 LINE",
"1213 1004 OFFCURVE",
"1213 1015 OFFCURVE",
"1217 1023 CURVE",
"1300 1171 LINE",
"1304 1179 OFFCURVE",
"1304 1190 OFFCURVE",
"1296 1194 CURVE",
"1194 1296 LINE",
"1190 1304 OFFCURVE",
"1179 1304 OFFCURVE",
"1171 1300 CURVE",
"1023 1217 LINE",
"1015 1213 OFFCURVE",
"1004 1213 OFFCURVE",
"996 1217 CURVE",
"886 1262 LINE",
"878 1262 OFFCURVE",
"867 1274 OFFCURVE",
"867 1281 CURVE",
"821 1444 LINE",
"821 1452 OFFCURVE",
"810 1460 OFFCURVE",
"802 1460 CURVE SMOOTH",
"658 1460 LINE SMOOTH",
"650 1460 OFFCURVE",
"639 1452 OFFCURVE",
"639 1444 CURVE",
"593 1281 LINE",
"593 1274 OFFCURVE",
"582 1262 OFFCURVE",
"574 1262 CURVE",
"460 1213 LINE",
"453 1209 OFFCURVE",
"441 1209 OFFCURVE",
"433 1213 CURVE",
"289 1300 LINE",
"281 1304 OFFCURVE",
"270 1304 OFFCURVE",
"266 1296 CURVE",
"164 1194 LINE",
"156 1190 OFFCURVE",
"156 1179 OFFCURVE",
"160 1171 CURVE",
"247 1027 LINE",
"251 1019 OFFCURVE",
"251 1007 OFFCURVE",
"247 1000 CURVE",
"198 882 LINE",
"194 874 OFFCURVE",
"186 863 OFFCURVE",
"179 863 CURVE",
"16 821 LINE",
"8 818 OFFCURVE",
"0 810 OFFCURVE",
"0 802 CURVE SMOOTH",
"0 658 LINE SMOOTH",
"0 650 OFFCURVE",
"8 642 OFFCURVE",
"16 639 CURVE",
"179 597 LINE",
"186 597 OFFCURVE",
"194 586 OFFCURVE",
"198 578 CURVE",
"247 460 LINE",
"251 453 OFFCURVE",
"251 441 OFFCURVE",
"247 433 CURVE",
"160 289 LINE",
"156 281 OFFCURVE",
"156 270 OFFCURVE",
"164 266 CURVE",
"266 164 LINE",
"270 156 OFFCURVE",
"281 156 OFFCURVE",
"289 160 CURVE",
"433 247 LINE",
"441 251 OFFCURVE",
"453 251 OFFCURVE",
"460 247 CURVE",
"578 198 LINE",
"586 194 OFFCURVE",
"597 186 OFFCURVE",
"597 179 CURVE",
"639 16 LINE",
"642 8 OFFCURVE",
"650 0 OFFCURVE",
"658 0 CURVE SMOOTH",
"802 0 LINE SMOOTH",
"810 0 OFFCURVE",
"821 8 OFFCURVE",
"821 16 CURVE",
"863 179 LINE",
"863 186 OFFCURVE",
"874 194 OFFCURVE",
"882 198 CURVE",
"996 243 LINE",
"1004 247 OFFCURVE",
"1015 247 OFFCURVE",
"1023 243 CURVE",
"1171 160 LINE",
"1179 156 OFFCURVE",
"1190 156 OFFCURVE",
"1194 164 CURVE",
"1296 266 LINE",
"1304 270 OFFCURVE",
"1304 281 OFFCURVE",
"1300 289 CURVE",
"1217 437 LINE",
"1213 445 OFFCURVE",
"1213 456 OFFCURVE",
"1217 464 CURVE",
"1262 574 LINE",
"1262 582 OFFCURVE",
"1274 593 OFFCURVE",
"1281 593 CURVE"
);
},
{
closed = 1;
nodes = (
"572 438 OFFCURVE",
"438 572 OFFCURVE",
"438 730 CURVE SMOOTH",
"438 888 OFFCURVE",
"572 1022 OFFCURVE",
"730 1022 CURVE SMOOTH",
"888 1022 OFFCURVE",
"1022 888 OFFCURVE",
"1022 730 CURVE SMOOTH",
"1022 572 OFFCURVE",
"888 438 OFFCURVE",
"730 438 CURVE SMOOTH"
);
}
);
width = 1460;
}
);
unicode = 2699;
},
{
color = 4;
glyphname = uni26A0;
lastChange = "2013-10-23 18:03:53 +0000";
layers = (
{
layerId = "ABCF47FB-41DD-418D-ADD0-B1CD0215F61B";
name = Regular;
paths = (
{
closed = 1;
nodes = (
"11 131 LINE SMOOTH",
"3 116 OFFCURVE",
"0 99 OFFCURVE",
"0 85 CURVE SMOOTH",
"0 38 OFFCURVE",
"36 0 OFFCURVE",
"93 0 CURVE SMOOTH",
"1513 0 LINE SMOOTH",
"1570 0 OFFCURVE",
"1606 38 OFFCURVE",
"1606 85 CURVE SMOOTH",
"1606 99 OFFCURVE",
"1603 117 OFFCURVE",
"1595 131 CURVE SMOOTH",
"888 1422 LINE SMOOTH",
"866 1462 OFFCURVE",
"836 1480 OFFCURVE",
"803 1480 CURVE SMOOTH",
"770 1480 OFFCURVE",
"739 1460 OFFCURVE",
"718 1422 CURVE SMOOTH"
);
},
{
closed = 1;
nodes = (
"861 1023 LINE SMOOTH",
"919 1023 OFFCURVE",
"960 978 OFFCURVE",
"951 921 CURVE",
"904 498 LINE",
"898 462 OFFCURVE",
"870 438 OFFCURVE",
"833 438 CURVE SMOOTH",
"768 438 LINE SMOOTH",
"731 438 OFFCURVE",
"703 462 OFFCURVE",
"697 498 CURVE",
"653 921 LINE",
"643 978 OFFCURVE",
"684 1023 OFFCURVE",
"743 1023 CURVE SMOOTH"
);
},
{
closed = 1;
nodes = (
"743 146 OFFCURVE",
"694 195 OFFCURVE",
"694 256 CURVE SMOOTH",
"694 316 OFFCURVE",
"743 365 OFFCURVE",
"803 365 CURVE SMOOTH",
"863 365 OFFCURVE",
"913 318 OFFCURVE",
"913 256 CURVE SMOOTH",
"913 195 OFFCURVE",
"863 146 OFFCURVE",
"803 146 CURVE SMOOTH"
);
}
);
width = 1606;
}
);
unicode = 26A0;
},
{
color = 4;
glyphname = uni2709;
lastChange = "2013-12-20 18:07:43 +0000";
layers = (
{
layerId = "ABCF47FB-41DD-418D-ADD0-B1CD0215F61B";
name = Regular;
paths = (
{
closed = 1;
nodes = (
"0 1095 LINE",
"707 812 LINE SMOOTH",
"721 806 OFFCURVE",
"737 806 OFFCURVE",
"751 812 CURVE SMOOTH",
"1460 1095 LINE",
"1460 1241 LINE",
"0 1241 LINE"
);
},
{
closed = 1;
nodes = (
"0 949 LINE",
"0 219 LINE",
"1460 219 LINE",
"1460 949 LINE",
"752 666 LINE SMOOTH",
"738 660 OFFCURVE",
"722 660 OFFCURVE",
"708 666 CURVE SMOOTH"
);
}
);
width = 1460;
}
);
unicode = 2709;
},
{
color = 4;
glyphname = uni270F;
lastChange = "2013-12-23 17:07:16 +0000";
layers = (
{
guideLines = (
{
angle = 9.22581;
position = "{-77, 74}";
},
{
angle = 80.5422;
position = "{85, 0}";
}
);
layerId = "ABCF47FB-41DD-418D-ADD0-B1CD0215F61B";
name = Regular;
paths = (
{
closed = 1;
nodes = (
"1439 1285 OFFCURVE",
"1460 1168 OFFCURVE",
"1460 1095 CURVE",
"438 73 LINE",
"0 0 LINE",
"73 438 LINE",
"1095 1460 LINE",
"1168 1460 OFFCURVE",
"1275 1451 OFFCURVE",
"1366 1357 CURVE SMOOTH"
);
},
{
closed = 1;
nodes = (
"402 122 LINE",
"396 199 OFFCURVE",
"370 247 OFFCURVE",
"310 310 CURVE SMOOTH",
"250 365 OFFCURVE",
"201 392 OFFCURVE",
"122 402 CURVE",
"121 219 LINE",
"162 196 OFFCURVE",
"194 162 OFFCURVE",
"219 122 CURVE"
);
}
);
width = 1460;
}
);
unicode = 270F;
},
{
color = 4;
glyphname = uni2713;
lastChange = "2013-12-27 18:37:20 +0000";
layers = (
{
layerId = "ABCF47FB-41DD-418D-ADD0-B1CD0215F61B";
name = Regular;
paths = (
{
closed = 1;
nodes = (
"1460 1135 LINE",
"1318 1253 LINE",
"500 270 LINE",
"119 581 LINE",
"0 438 LINE",
"522 9 LINE"
);
}
);
width = 1488;
}
);
unicode = 2713;
},
{
color = 4;
glyphname = uni2717;
lastChange = "2014-01-30 17:02:26 +0000";
layers = (
{
layerId = "ABCF47FB-41DD-418D-ADD0-B1CD0215F61B";
name = Regular;
paths = (
{
closed = 1;
nodes = (
"762 730 LINE",
"1213 1182 LINE",
"1083 1312 LINE",
"632 861 LINE",
"180 1312 LINE",
"50 1182 LINE",
"501 731 LINE",
"50 279 LINE",
"180 149 LINE",
"632 600 LINE",
"1083 149 LINE",
"1213 279 LINE"
);
}
);
width = 1263;
}
);
unicode = 2717;
},
{
color = 4;
glyphname = registered;
lastChange = "2013-10-23 18:03:53 +0000";
layers = (
{
annotations = (
{
position = "{-884, 1773}";
text = "This is positioned so that it can only be used after the > symbol and be positioned correctly in the full splunk logo: splunk>";
type = Text;
}
);
hints = (
{
horizontal = 1;
place = "{0.000000, -30.000000}";
},
{
horizontal = 1;
place = "{1082.000000, 30.000000}";
}
);
layerId = "ABCF47FB-41DD-418D-ADD0-B1CD0215F61B";
name = Regular;
paths = (
{
closed = 1;
nodes = (
"-873 1364 OFFCURVE",
"-916 1320 OFFCURVE",
"-916 1266 CURVE SMOOTH",
"-916 1211 OFFCURVE",
"-873 1169 OFFCURVE",
"-820 1169 CURVE SMOOTH",
"-766 1169 OFFCURVE",
"-724 1211 OFFCURVE",
"-724 1266 CURVE SMOOTH",
"-724 1320 OFFCURVE",
"-766 1364 OFFCURVE",
"-820 1364 CURVE SMOOTH"
);
},
{
closed = 1;
nodes = (
"-776 1348 OFFCURVE",
"-741 1312 OFFCURVE",
"-741 1266 CURVE SMOOTH",
"-741 1220 OFFCURVE",
"-776 1183 OFFCURVE",
"-819 1184 CURVE SMOOTH",
"-862 1184 OFFCURVE",
"-897 1220 OFFCURVE",
"-897 1266 CURVE SMOOTH",
"-897 1312 OFFCURVE",
"-862 1348 OFFCURVE",
"-819 1348 CURVE SMOOTH"
);
},
{
closed = 1;
nodes = (
"-837 1321 OFFCURVE",
"-846 1319 OFFCURVE",
"-855 1318 CURVE",
"-855 1210 LINE",
"-838 1210 LINE",
"-838 1256 LINE",
"-826 1256 LINE SMOOTH",
"-812 1256 OFFCURVE",
"-805 1251 OFFCURVE",
"-802 1237 CURVE",
"-800 1223 OFFCURVE",
"-798 1213 OFFCURVE",
"-795 1210 CURVE",
"-777 1210 LINE",
"-779 1213 OFFCURVE",
"-781 1220 OFFCURVE",
"-784 1237 CURVE",
"-786 1252 OFFCURVE",
"-792 1261 OFFCURVE",
"-802 1263 CURVE",
"-802 1264 LINE",
"-790 1267 OFFCURVE",
"-781 1276 OFFCURVE",
"-781 1290 CURVE SMOOTH",
"-781 1300 OFFCURVE",
"-784 1308 OFFCURVE",
"-791 1313 CURVE SMOOTH",
"-797 1317 OFFCURVE",
"-808 1321 OFFCURVE",
"-824 1321 CURVE SMOOTH"
);
},
{
closed = 1;
nodes = (
"-825 1307 LINE SMOOTH",
"-806 1307 OFFCURVE",
"-799 1298 OFFCURVE",
"-799 1288 CURVE SMOOTH",
"-799 1275 OFFCURVE",
"-811 1270 OFFCURVE",
"-825 1270 CURVE SMOOTH",
"-838 1270 LINE",
"-838 1307 LINE"
);
}
);
width = 0;
}
);
unicode = 00AE;
},
{
color = 4;
glyphname = uni2301;
lastChange = "2013-10-23 18:03:53 +0000";
layers = (
{
layerId = "ABCF47FB-41DD-418D-ADD0-B1CD0215F61B";
name = Regular;
paths = (
{
closed = 1;
nodes = (
"394 861 LINE SMOOTH",
"372 869 OFFCURVE",
"366 893 OFFCURVE",
"374 913 CURVE SMOOTH",
"554 1387 LINE SMOOTH",
"580 1455 OFFCURVE",
"535 1488 OFFCURVE",
"487 1438 CURVE",
"3 763 LINE",
"-4 744 OFFCURVE",
"4 725 OFFCURVE",
"23 717 CURVE SMOOTH",
"323 597 LINE SMOOTH",
"342 589 OFFCURVE",
"351 570 OFFCURVE",
"344 551 CURVE SMOOTH",
"162 56 LINE SMOOTH",
"151 27 OFFCURVE",
"166 0 OFFCURVE",
"194 0 CURVE SMOOTH",
"204 0 OFFCURVE",
"213 5 OFFCURVE",
"219 13 CURVE SMOOTH",
"692 689 LINE SMOOTH",
"708 711 OFFCURVE",
"700 738 OFFCURVE",
"674 749 CURVE SMOOTH"
);
}
);
width = 700;
}
);
unicode = 2301;
},
{
color = 4;
glyphname = uni231A;
lastChange = "2013-12-20 17:49:59 +0000";
layers = (
{
layerId = "ABCF47FB-41DD-418D-ADD0-B1CD0215F61B";
name = Regular;
paths = (
{
closed = 1;
nodes = (
"955 1480 OFFCURVE",
"1145 1399 OFFCURVE",
"1282 1262 CURVE SMOOTH",
"1414 1125 OFFCURVE",
"1500 935 OFFCURVE",
"1500 730 CURVE SMOOTH",
"1500 525 OFFCURVE",
"1414 335 OFFCURVE",
"1282 198 CURVE SMOOTH",
"1145 61 OFFCURVE",
"955 -20 OFFCURVE",
"750 -20 CURVE SMOOTH",
"545 -20 OFFCURVE",
"355 61 OFFCURVE",
"218 198 CURVE SMOOTH",
"81 335 OFFCURVE",
"0 525 OFFCURVE",
"0 730 CURVE SMOOTH",
"0 935 OFFCURVE",
"81 1125 OFFCURVE",
"218 1262 CURVE SMOOTH",
"355 1399 OFFCURVE",
"545 1480 OFFCURVE",
"750 1480 CURVE SMOOTH"
);
},
{
closed = 1;
nodes = (
"596 1296 OFFCURVE",
"452 1234 OFFCURVE",
"349 1131 CURVE SMOOTH",
"246 1028 OFFCURVE",
"185 884 OFFCURVE",
"185 730 CURVE SMOOTH",
"185 576 OFFCURVE",
"246 432 OFFCURVE",
"349 329 CURVE SMOOTH",
"452 226 OFFCURVE",
"596 165 OFFCURVE",
"750 165 CURVE SMOOTH",
"904 165 OFFCURVE",
"1048 226 OFFCURVE",
"1151 329 CURVE SMOOTH",
"1251 432 OFFCURVE",
"1316 576 OFFCURVE",
"1316 730 CURVE SMOOTH",
"1316 884 OFFCURVE",
"1251 1028 OFFCURVE",
"1151 1131 CURVE SMOOTH",
"1048 1234 OFFCURVE",
"904 1296 OFFCURVE",
"750 1296 CURVE"
);
},
{
closed = 1;
nodes = (
"952 419 LINE",
"1056 522 LINE",
"823 755 LINE",
"823 1168 LINE",
"677 1168 LINE",
"677 694 LINE"
);
}
);
width = 1500;
}
);
unicode = 231A;
},
{
export = 0;
glyphname = uni2601;
lastChange = "2013-10-23 18:03:53 +0000";
layers = (
{
layerId = "ABCF47FB-41DD-418D-ADD0-B1CD0215F61B";
name = Regular;
paths = (
{
closed = 1;
nodes = (
"1099.88 948 OFFCURVE",
"1085.94 947.196 OFFCURVE",
"1072.23 945.63 CURVE",
"1012.24 1115.98 OFFCURVE",
"849.939 1238 OFFCURVE",
"659 1238 CURVE SMOOTH",
"417 1238 OFFCURVE",
"221 1042 OFFCURVE",
"221 800 CURVE SMOOTH",
"221 775.094 OFFCURVE",
"223.077 750.675 OFFCURVE",
"227.065 726.906 CURVE",
"90.255 723.216 OFFCURVE",
"-20 610.681 OFFCURVE",
"-20 473 CURVE SMOOTH",
"-20 333 OFFCURVE",
"94 219 OFFCURVE",
"234 219 CURVE SMOOTH",
"1114 219 LINE SMOOTH",
"1315 219 OFFCURVE",
"1478 382 OFFCURVE",
"1478 584 CURVE SMOOTH",
"1478 785 OFFCURVE",
"1315 948 OFFCURVE",
"1114 948 CURVE SMOOTH"
);
}
);
width = 1458;
}
);
unicode = 2601;
},
{
export = 0;
glyphname = uni2691;
lastChange = "2013-10-23 18:03:53 +0000";
layers = (
{
layerId = "ABCF47FB-41DD-418D-ADD0-B1CD0215F61B";
name = Regular;
paths = (
{
closed = 1;
nodes = (
"1565 1199 OFFCURVE",
"1588 1178 OFFCURVE",
"1572 1150 CURVE",
"1473 1003 OFFCURVE",
"1386 894 OFFCURVE",
"1319 818 CURVE SMOOTH",
"1250 740 OFFCURVE",
"1191 688 OFFCURVE",
"1143 658 CURVE SMOOTH",
"1044 596 OFFCURVE",
"979 616 OFFCURVE",
"924 658 CURVE",
"894 674 OFFCURVE",
"867 699 OFFCURVE",
"835 722 CURVE",
"778 770 OFFCURVE",
"695 788 OFFCURVE",
"583 747 CURVE",
"524 722 OFFCURVE",
"456 678 OFFCURVE",
"370 606 CURVE",
"524 0 LINE",
"349 0 LINE",
"39 1235 LINE",
"196 1290 LINE",
"383 1428 OFFCURVE",
"503 1470 OFFCURVE",
"589 1455 CURVE SMOOTH",
"672 1438 OFFCURVE",
"723 1369 OFFCURVE",
"781 1300 CURVE SMOOTH",
"839 1229 OFFCURVE",
"908 1150 OFFCURVE",
"1021 1116 CURVE SMOOTH",
"1129 1081 OFFCURVE",
"1287 1089 OFFCURVE",
"1534 1185 CURVE"
);
}
);
width = 1600;
}
);
unicode = 2691;
},
{
glyphname = uni02C4;
layers = (
{
layerId = "ABCF47FB-41DD-418D-ADD0-B1CD0215F61B";
name = Regular;
paths = (
{
closed = 1;
nodes = (
"50 352 LINE",
"181 221 LINE",
"780 820 LINE",
"1379 221 LINE",
"1510 351 LINE",
"780 1082 LINE"
);
}
);
width = 1560;
}
);
unicode = 02C4;
},
{
glyphname = uni02C5;
lastChange = "2013-12-19 00:57:32 +0000";
layers = (
{
layerId = "ABCF47FB-41DD-418D-ADD0-B1CD0215F61B";
name = Regular;
paths = (
{
closed = 1;
nodes = (
"1510 954 LINE",
"1379 1085 LINE",
"780 486 LINE",
"181 1085 LINE",
"50 955 LINE",
"780 224 LINE"
);
}
);
width = 1560;
}
);
unicode = 02C5;
},
{
color = 5;
export = 0;
glyphname = Document;
lastChange = "2013-12-20 18:07:03 +0000";
layers = (
{
layerId = "ABCF47FB-41DD-418D-ADD0-B1CD0215F61B";
name = Regular;
paths = (
{
closed = 1;
nodes = (
"0 0 LINE",
"1241 0 LINE",
"1241 1168 LINE",
"949 1460 LINE",
"0 1460 LINE"
);
},
{
closed = 1;
nodes = (
"876 1329 LINE",
"1117 1095 LINE",
"876 1095 LINE"
);
},
{
closed = 1;
nodes = (
"145 1314 LINE",
"803 1314 LINE",
"803 1022 LINE",
"1095 1022 LINE",
"1095 145 LINE",
"145 145 LINE"
);
}
);
width = 1241;
}
);
},
{
color = 5;
export = 0;
glyphname = Panel;
lastChange = "2013-12-20 20:57:37 +0000";
layers = (
{
layerId = "ABCF47FB-41DD-418D-ADD0-B1CD0215F61B";
name = Regular;
paths = (
{
closed = 1;
nodes = (
"0 1460 LINE",
"0 0 LINE",
"1460 0 LINE",
"1460 1460 LINE"
);
},
{
closed = 1;
nodes = (
"1314 1168 LINE",
"146 1168 LINE",
"146 1314 LINE",
"1314 1314 LINE"
);
},
{
closed = 1;
nodes = (
"1314 146 LINE",
"146 146 LINE",
"146 1095 LINE",
"1314 1095 LINE"
);
}
);
width = 1460;
}
);
},
{
color = 4;
glyphname = uniEC00;
lastChange = "2013-12-20 17:14:24 +0000";
layers = (
{
layerId = "ABCF47FB-41DD-418D-ADD0-B1CD0215F61B";
name = Regular;
paths = (
{
closed = 1;
nodes = (
"638 92 LINE",
"769 223 LINE",
"354 638 LINE",
"1460 637 LINE",
"1460 821 LINE",
"354 822 LINE",
"769 1237 LINE",
"639 1368 LINE",
"0 730 LINE"
);
}
);
width = 1510;
}
);
unicode = EC00;
},
{
color = 4;
glyphname = uniEC01;
lastChange = "2013-12-20 17:14:09 +0000";
layers = (
{
guideLines = (
{
angle = 180;
position = "{1199, -130}";
}
);
layerId = "ABCF47FB-41DD-418D-ADD0-B1CD0215F61B";
name = Regular;
paths = (
{
closed = 1;
nodes = (
"50 822 LINE",
"181 691 LINE",
"596 1106 LINE",
"595 0 LINE",
"779 0 LINE",
"780 1106 LINE",
"1195 691 LINE",
"1326 821 LINE",
"688 1460 LINE"
);
}
);
width = 1376;
}
);
unicode = EC01;
},
{
color = 4;
glyphname = uniEC02;
lastChange = "2013-12-20 17:13:48 +0000";
layers = (
{
layerId = "ABCF47FB-41DD-418D-ADD0-B1CD0215F61B";
name = Regular;
paths = (
{
closed = 1;
nodes = (
"1326 638 LINE",
"1195 769 LINE",
"780 354 LINE",
"781 1460 LINE",
"597 1460 LINE",
"596 354 LINE",
"181 769 LINE",
"50 639 LINE",
"688 0 LINE"
);
}
);
width = 1376;
}
);
unicode = EC02;
},
{
color = 4;
glyphname = uniEC12;
lastChange = "2013-10-23 18:03:53 +0000";
layers = (
{
layerId = "ABCF47FB-41DD-418D-ADD0-B1CD0215F61B";
name = Regular;
paths = (
{
closed = 1;
nodes = (
"1277 435 LINE",
"1460 435 LINE",
"1168 143 LINE",
"876 435 LINE",
"1058 435 LINE",
"1058 1019 LINE",
"730 1019 LINE",
"511 1238 LINE",
"1202 1239 LINE SMOOTH",
"1246 1239 OFFCURVE",
"1277 1208 OFFCURVE",
"1277 1164 CURVE SMOOTH"
);
},
{
closed = 1;
nodes = (
"401 359 LINE",
"730 362 LINE",
"949 146 LINE",
"257 143 LINE SMOOTH",
"213 143 OFFCURVE",
"182 174 OFFCURVE",
"182 218 CURVE SMOOTH",
"182 946 LINE",
"0 946 LINE",
"292 1238 LINE",
"584 946 LINE",
"401 949 LINE"
);
}
);
width = 1460;
}
);
unicode = EC12;
},
{
color = 4;
glyphname = uniEC13;
lastChange = "2014-06-13 17:45:22 +0000";
layers = (
{
hints = (
{
place = "{1184.000000, -25.000000}";
}
);
layerId = "ABCF47FB-41DD-418D-ADD0-B1CD0215F61B";
name = Regular;
paths = (
{
closed = 1;
nodes = (
"1276 365 LINE",
"1276 184 LINE",
"184 184 LINE",
"184 1276 LINE",
"365 1276 LINE",
"365 1460 LINE",
"0 1460 LINE",
"0 0 LINE",
"1460 0 LINE",
"1460 365 LINE"
);
},
{
closed = 1;
nodes = (
"704 1460 LINE",
"704 1275 LINE",
"1161 1275 LINE",
"512 644 LINE",
"642 513 LINE",
"1275 1161 LINE",
"1275 704 LINE",
"1459 703 LINE",
"1460 1460 LINE"
);
}
);
width = 1460;
}
);
unicode = EC13;
},
{
color = 4;
glyphname = uniEC50;
lastChange = "2013-12-20 21:02:00 +0000";
layers = (
{
layerId = "ABCF47FB-41DD-418D-ADD0-B1CD0215F61B";
name = Regular;
paths = (
{
closed = 1;
nodes = (
"0 72 LINE",
"365 72 LINE",
"365 1388 LINE",
"0 1388 LINE"
);
},
{
closed = 1;
nodes = (
"730 72 LINE",
"1095 72 LINE",
"1095 1388 LINE",
"730 1388 LINE"
);
}
);
width = 1095;
}
);
unicode = EC50;
},
{
color = 4;
glyphname = uniEC56;
lastChange = "2013-12-23 16:38:11 +0000";
layers = (
{
layerId = "ABCF47FB-41DD-418D-ADD0-B1CD0215F61B";
name = Regular;
paths = (
{
closed = 1;
nodes = (
"0 1095 LINE",
"1460 1095 LINE",
"1460 1279 LINE",
"0 1279 LINE"
);
},
{
closed = 1;
nodes = (
"0 675 LINE",
"1460 675 LINE",
"1460 859 LINE",
"0 859 LINE"
);
},
{
closed = 1;
nodes = (
"0 254 LINE",
"1460 254 LINE",
"1460 438 LINE",
"0 438 LINE"
);
}
);
width = 1460;
}
);
unicode = EC56;
},
{
color = 4;
glyphname = uniEC66;
lastChange = "2013-10-23 18:03:53 +0000";
layers = (
{
layerId = "ABCF47FB-41DD-418D-ADD0-B1CD0215F61B";
name = Regular;
paths = (
{
closed = 1;
nodes = (
"876 1314 LINE",
"876 1386 LINE SMOOTH",
"876 1429 OFFCURVE",
"845 1460 OFFCURVE",
"802 1460 CURVE SMOOTH",
"512 1460 LINE SMOOTH",
"469 1460 OFFCURVE",
"438 1429 OFFCURVE",
"438 1386 CURVE SMOOTH",
"438 1314 LINE",
"74 1314 LINE SMOOTH",
"31 1314 OFFCURVE",
"0 1283 OFFCURVE",
"0 1241 CURVE SMOOTH",
"0 1095 LINE",
"1314 1095 LINE",
"1314 1240 LINE SMOOTH",
"1314 1283 OFFCURVE",
"1283 1314 OFFCURVE",
"1240 1314 CURVE SMOOTH"
);
},
{
closed = 1;
nodes = (
"146 74 LINE SMOOTH",
"146 31 OFFCURVE",
"177 0 OFFCURVE",
"220 0 CURVE SMOOTH",
"1094 0 LINE SMOOTH",
"1137 0 OFFCURVE",
"1168 31 OFFCURVE",
"1168 74 CURVE SMOOTH",
"1168 950 LINE",
"146 950 LINE"
);
}
);
width = 1314;
}
);
unicode = EC66;
},
{
color = 4;
glyphname = uniEC68;
lastChange = "2013-12-20 20:53:03 +0000";
layers = (
{
annotations = (
{
position = "{1761.588, 1219.863}";
text = "For use at 15 pt";
type = Text;
}
);
hints = (
{
horizontal = 1;
place = "{265.000000, 30.000000}";
}
);
layerId = "ABCF47FB-41DD-418D-ADD0-B1CD0215F61B";
name = Regular;
paths = (
{
closed = 1;
nodes = (
"1185 605 LINE",
"1076 714 LINE",
"807 445 LINE",
"807 1460 LINE",
"654 1460 LINE",
"653 445 LINE",
"384 714 LINE",
"275 606 LINE",
"730 150 LINE"
);
},
{
closed = 1;
nodes = (
"0 154 LINE",
"0 0 LINE",
"1461 0 LINE",
"1461 154 LINE"
);
}
);
width = 1460;
}
);
unicode = EC68;
},
{
color = 4;
glyphname = uniEC80;
lastChange = "2013-10-23 18:03:53 +0000";
layers = (
{
layerId = "ABCF47FB-41DD-418D-ADD0-B1CD0215F61B";
name = Regular;
paths = (
{
closed = 1;
nodes = (
"608 1480 OFFCURVE",
"722 1428 OFFCURVE",
"809 1339 CURVE SMOOTH",
"896 1252 OFFCURVE",
"949 1139 OFFCURVE",
"949 1005 CURVE SMOOTH",
"949 777 OFFCURVE",
"827 523 OFFCURVE",
"710 313 CURVE SMOOTH",
"642 192 OFFCURVE",
"562 93 OFFCURVE",
"475 -20 CURVE",
"292 208 OFFCURVE",
"174 410 OFFCURVE",
"76 653 CURVE SMOOTH",
"26 773 OFFCURVE",
"0 892 OFFCURVE",
"0 1005 CURVE SMOOTH",
"0 1139 OFFCURVE",
"53 1252 OFFCURVE",
"141 1339 CURVE SMOOTH",
"228 1428 OFFCURVE",
"341 1480 OFFCURVE",
"475 1480 CURVE SMOOTH"
);
},
{
closed = 1;
nodes = (
"616 743 OFFCURVE",
"729 857 OFFCURVE",
"729 997 CURVE SMOOTH",
"729 1146 OFFCURVE",
"616 1256 OFFCURVE",
"475 1256 CURVE SMOOTH",
"326 1256 OFFCURVE",
"216 1146 OFFCURVE",
"216 997 CURVE SMOOTH",
"216 857 OFFCURVE",
"326 743 OFFCURVE",
"475 743 CURVE SMOOTH"
);
}
);
width = 949;
}
);
unicode = EC80;
},
{
color = 4;
glyphname = uniEC84;
lastChange = "2013-10-23 18:03:53 +0000";
layers = (
{
layerId = "ABCF47FB-41DD-418D-ADD0-B1CD0215F61B";
name = Regular;
paths = (
{
closed = 1;
nodes = (
"1313 292 OFFCURVE",
"1188 332 OFFCURVE",
"1095 365 CURVE SMOOTH",
"914.783 433.701 OFFCURVE",
"876.332 461.757 OFFCURVE",
"876.002 582.421 CURVE",
"989.419 682.687 OFFCURVE",
"1095 869.94 OFFCURVE",
"1095 1022 CURVE SMOOTH",
"1095 1314 OFFCURVE",
"949 1460 OFFCURVE",
"730 1460 CURVE SMOOTH",
"511 1460 OFFCURVE",
"365 1314 OFFCURVE",
"365 1022 CURVE SMOOTH",
"365 869.94 OFFCURVE",
"470.581 682.687 OFFCURVE",
"583.998 582.421 CURVE",
"583.686 461.705 OFFCURVE",
"547.208 427.727 OFFCURVE",
"365 365 CURVE SMOOTH",
"273 332 OFFCURVE",
"163 281 OFFCURVE",
"106 248 CURVE SMOOTH",
"50 215 OFFCURVE",
"0 184 OFFCURVE",
"0 146 CURVE SMOOTH",
"0 0 LINE",
"1460 0 LINE",
"1460 146 LINE SMOOTH",
"1460 184 OFFCURVE",
"1424 226 OFFCURVE",
"1370 259 CURVE SMOOTH"
);
}
);
width = 1460;
}
);
unicode = EC84;
},
{
color = 4;
glyphname = uniEC89;
lastChange = "2013-12-20 17:59:18 +0000";
layers = (
{
layerId = "ABCF47FB-41DD-418D-ADD0-B1CD0215F61B";
name = Regular;
paths = (
{
closed = 1;
nodes = (
"1095 949 LINE",
"1095 1460 LINE",
"365 1460 LINE",
"365 949 LINE",
"0 949 LINE",
"0 292 LINE",
"292 292 LINE",
"292 0 LINE",
"1168 0 LINE",
"1168 292 LINE",
"1460 292 LINE",
"1460 949 LINE"
);
},
{
closed = 1;
nodes = (
"1022 657 LINE",
"876 657 LINE",
"876 803 LINE",
"1022 803 LINE"
);
},
{
closed = 1;
nodes = (
"1276 657 LINE",
"1130 657 LINE",
"1130 803 LINE",
"1276 803 LINE"
);
},
{
closed = 1;
nodes = (
"1022 146 LINE",
"438 146 LINE",
"438 511 LINE",
"1022 511 LINE"
);
}
);
width = 1460;
}
);
unicode = EC89;
},
{
color = 4;
glyphname = uniEC98;
lastChange = "2013-10-23 18:03:53 +0000";
layers = (
{
hints = (
{
horizontal = 1;
place = "{192.000000, 30.000000}";
},
{
horizontal = 1;
place = "{392.000000, -30.000000}";
}
);
layerId = "ABCF47FB-41DD-418D-ADD0-B1CD0215F61B";
name = Regular;
paths = (
{
closed = 1;
nodes = (
"206 646 LINE",
"301 540 OFFCURVE",
"280 365 OFFCURVE",
"280 365 CURVE",
"638 365 LINE",
"638 365 OFFCURVE",
"646 578 OFFCURVE",
"710 634 CURVE SMOOTH",
"760 678 LINE SMOOTH",
"850 758 OFFCURVE",
"916 885 OFFCURVE",
"916 1022 CURVE SMOOTH",
"916 1275 OFFCURVE",
"711 1480 OFFCURVE",
"458 1480 CURVE SMOOTH",
"205 1480 OFFCURVE",
"0 1275 OFFCURVE",
"0 1022 CURVE SMOOTH",
"0 925 OFFCURVE",
"41 835 OFFCURVE",
"93 761 CURVE"
);
},
{
closed = 1;
nodes = (
"277 219 LINE",
"277 74 LINE SMOOTH",
"277 31 OFFCURVE",
"308 0 OFFCURVE",
"351 0 CURVE SMOOTH",
"566 0 LINE SMOOTH",
"609 0 OFFCURVE",
"640 31 OFFCURVE",
"640 74 CURVE SMOOTH",
"640 219 LINE"
);
}
);
width = 916;
}
);
unicode = EC98;
},
{
color = 4;
glyphname = uniEC99;
lastChange = "2013-10-23 18:03:53 +0000";
layers = (
{
layerId = "ABCF47FB-41DD-418D-ADD0-B1CD0215F61B";
name = Regular;
paths = (
{
closed = 1;
nodes = (
"149 1460 LINE SMOOTH",
"63 1460 OFFCURVE",
"0 1397 OFFCURVE",
"0 1311 CURVE SMOOTH",
"0 441 LINE SMOOTH",
"0 355 OFFCURVE",
"63 292 OFFCURVE",
"149 292 CURVE SMOOTH",
"877.874 292 LINE",
"764 -24 LINE",
"1198.62 292 LINE",
"1311 292 LINE SMOOTH",
"1397 292 OFFCURVE",
"1460 355 OFFCURVE",
"1460 441 CURVE SMOOTH",
"1460 1311 LINE SMOOTH",
"1460 1397 OFFCURVE",
"1397 1460 OFFCURVE",
"1311 1460 CURVE SMOOTH"
);
},
{
closed = 1;
nodes = (
"1241 1095 LINE",
"219 1095 LINE",
"219 1241 LINE",
"1241 1241 LINE"
);
},
{
closed = 1;
nodes = (
"1241 803 LINE",
"219 803 LINE",
"219 949 LINE",
"1241 949 LINE"
);
},
{
closed = 1;
nodes = (
"219 657 LINE",
"1095 657 LINE",
"1095 511 LINE",
"219 511 LINE"
);
}
);
width = 1460;
}
);
unicode = EC99;
},
{
color = 4;
glyphname = uniEC9A;
lastChange = "2013-10-23 18:03:53 +0000";
layers = (
{
layerId = "ABCF47FB-41DD-418D-ADD0-B1CD0215F61B";
name = Regular;
paths = (
{
closed = 1;
nodes = (
"438 1169 LINE SMOOTH",
"438 1126 OFFCURVE",
"407 1095 OFFCURVE",
"365 1095 CURVE SMOOTH",
"323 1095 OFFCURVE",
"292 1126 OFFCURVE",
"292 1169 CURVE SMOOTH",
"292 1386 LINE SMOOTH",
"292 1429 OFFCURVE",
"323 1460 OFFCURVE",
"365 1460 CURVE SMOOTH",
"407 1460 OFFCURVE",
"438 1429 OFFCURVE",
"438 1386 CURVE SMOOTH"
);
},
{
closed = 1;
nodes = (
"1168 1169 LINE SMOOTH",
"1168 1126 OFFCURVE",
"1137 1095 OFFCURVE",
"1095 1095 CURVE SMOOTH",
"1053 1095 OFFCURVE",
"1022 1126 OFFCURVE",
"1022 1169 CURVE SMOOTH",
"1022 1383 LINE SMOOTH",
"1022 1427 OFFCURVE",
"1053 1459 OFFCURVE",
"1096 1458 CURVE SMOOTH",
"1138 1458 OFFCURVE",
"1168 1427 OFFCURVE",
"1168 1385 CURVE SMOOTH"
);
},
{
closed = 1;
nodes = (
"1241 1241 LINE",
"1386 1241 LINE SMOOTH",
"1429 1241 OFFCURVE",
"1460 1210 OFFCURVE",
"1460 1167 CURVE SMOOTH",
"1460 74 LINE SMOOTH",
"1460 31 OFFCURVE",
"1429 0 OFFCURVE",
"1386 0 CURVE SMOOTH",
"74 0 LINE SMOOTH",
"31 0 OFFCURVE",
"0 31 OFFCURVE",
"0 74 CURVE SMOOTH",
"0 1167 LINE SMOOTH",
"0 1210 OFFCURVE",
"31 1241 OFFCURVE",
"74 1241 CURVE SMOOTH",
"219 1241 LINE",
"219 1096 LINE SMOOTH",
"219 1053 OFFCURVE",
"250 1022 OFFCURVE",
"293 1022 CURVE SMOOTH",
"437 1022 LINE SMOOTH",
"480 1022 OFFCURVE",
"511 1053 OFFCURVE",
"511 1096 CURVE SMOOTH",
"511 1241 LINE",
"949 1241 LINE",
"949 1096 LINE SMOOTH",
"949 1053 OFFCURVE",
"980 1022 OFFCURVE",
"1023 1022 CURVE SMOOTH",
"1167 1022 LINE SMOOTH",
"1210 1022 OFFCURVE",
"1241 1053 OFFCURVE",
"1241 1096 CURVE SMOOTH"
);
},
{
closed = 1;
nodes = (
"1241 219 LINE",
"1241 876 LINE",
"219 876 LINE",
"219 219 LINE"
);
}
);
width = 1460;
}
);
unicode = EC9A;
},
{
color = 4;
glyphname = uniEC9B;
lastChange = "2014-01-30 17:00:19 +0000";
layers = (
{
layerId = "ABCF47FB-41DD-418D-ADD0-B1CD0215F61B";
name = Regular;
paths = (
{
closed = 1;
nodes = (
"1120.75 565.251 LINE",
"1176.05 656.306 OFFCURVE",
"1208 762.759 OFFCURVE",
"1208 876 CURVE SMOOTH",
"1208 1207 OFFCURVE",
"935 1480 OFFCURVE",
"604 1480 CURVE SMOOTH",
"273 1480 OFFCURVE",
"0 1207 OFFCURVE",
"0 876 CURVE SMOOTH",
"0 545 OFFCURVE",
"273 272 OFFCURVE",
"604 272 CURVE SMOOTH",
"717.241 272 OFFCURVE",
"823.694 303.954 OFFCURVE",
"914.749 359.251 CURVE",
"1251 23 LINE SMOOTH",
"1281 -7 OFFCURVE",
"1325 -7 OFFCURVE",
"1355 23 CURVE SMOOTH",
"1457 125 LINE SMOOTH",
"1487 155 OFFCURVE",
"1487 199 OFFCURVE",
"1457 229 CURVE SMOOTH"
);
},
{
closed = 1;
nodes = (
"154 1121 OFFCURVE",
"359 1326 OFFCURVE",
"604 1326 CURVE SMOOTH",
"849 1326 OFFCURVE",
"1054 1121 OFFCURVE",
"1054 876 CURVE SMOOTH",
"1054 631 OFFCURVE",
"849 426 OFFCURVE",
"604 426 CURVE SMOOTH",
"359 426 OFFCURVE",
"154 631 OFFCURVE",
"154 876 CURVE SMOOTH"
);
}
);
width = 1480;
}
);
unicode = EC9B;
},
{
color = 4;
glyphname = uniEC9C;
lastChange = "2013-10-23 18:03:53 +0000";
layers = (
{
layerId = "ABCF47FB-41DD-418D-ADD0-B1CD0215F61B";
name = Regular;
paths = (
{
closed = 1;
nodes = (
"823 1386 LINE SMOOTH",
"823 1429 OFFCURVE",
"792 1460 OFFCURVE",
"749 1460 CURVE SMOOTH",
"605 1460 LINE SMOOTH",
"562 1460 OFFCURVE",
"531 1429 OFFCURVE",
"531 1386 CURVE SMOOTH",
"531 1314 LINE",
"361 1270 OFFCURVE",
"260 1153 OFFCURVE",
"239 1015 CURVE SMOOTH",
"166 604 LINE SMOOTH",
"155 541 OFFCURVE",
"134 516 OFFCURVE",
"103 481 CURVE SMOOTH",
"38 409 OFFCURVE",
"0 351 OFFCURVE",
"0 292 CURVE SMOOTH",
"0 126 OFFCURVE",
"303 -8 OFFCURVE",
"677 -8 CURVE SMOOTH",
"1051 -8 OFFCURVE",
"1354 126 OFFCURVE",
"1354 292 CURVE SMOOTH",
"1354 350 OFFCURVE",
"1317 409 OFFCURVE",
"1252 481 CURVE SMOOTH",
"1221 515 OFFCURVE",
"1199 552 OFFCURVE",
"1188 614 CURVE SMOOTH",
"1115 1015 LINE SMOOTH",
"1094 1153 OFFCURVE",
"993 1270 OFFCURVE",
"823 1314 CURVE"
);
},
{
closed = 1;
nodes = (
"370 90 OFFCURVE",
"121 180 OFFCURVE",
"121 292 CURVE SMOOTH",
"121 404 OFFCURVE",
"370 494 OFFCURVE",
"677 494 CURVE SMOOTH",
"984 494 OFFCURVE",
"1233 404 OFFCURVE",
"1233 292 CURVE SMOOTH",
"1233 180 OFFCURVE",
"984 90 OFFCURVE",
"677 90 CURVE SMOOTH"
);
},
{
closed = 1;
nodes = (
"685 401 OFFCURVE",
"699 404 OFFCURVE",
"710 402 CURVE",
"718 404 OFFCURVE",
"730 402 OFFCURVE",
"741 401 CURVE",
"740 399 LINE",
"738 308 OFFCURVE",
"642 243 OFFCURVE",
"512 241 CURVE SMOOTH",
"408 236 OFFCURVE",
"326 277 OFFCURVE",
"297 340 CURVE",
"383 374 OFFCURVE",
"507 399 OFFCURVE",
"677 401 CURVE SMOOTH"
);
}
);
width = 1354;
}
);
unicode = EC9C;
},
{
color = 4;
glyphname = uniEC9D;
lastChange = "2013-10-23 18:03:53 +0000";
layers = (
{
layerId = "ABCF47FB-41DD-418D-ADD0-B1CD0215F61B";
name = Regular;
paths = (
{
closed = 1;
nodes = (
"1129 1399 OFFCURVE",
"944 1480 OFFCURVE",
"735 1477 CURVE SMOOTH",
"528 1474 OFFCURVE",
"342 1389 OFFCURVE",
"212 1253 CURVE SMOOTH",
"78 1117 OFFCURVE",
"-3 928 OFFCURVE",
"0 720 CURVE SMOOTH",
"0 513 OFFCURVE",
"91 327 OFFCURVE",
"228 194 CURVE SMOOTH",
"365 61 OFFCURVE",
"550 -20 OFFCURVE",
"759 -17 CURVE SMOOTH",
"966 -14 OFFCURVE",
"1152 74 OFFCURVE",
"1285 210 CURVE SMOOTH",
"1416 346 OFFCURVE",
"1497 532 OFFCURVE",
"1497 740 CURVE",
"1494 947 OFFCURVE",
"1409 1133 OFFCURVE",
"1269 1266 CURVE SMOOTH"
);
},
{
closed = 1;
nodes = (
"859 542 OFFCURVE",
"828 511 OFFCURVE",
"785 511 CURVE SMOOTH",
"714 511 LINE SMOOTH",
"671 511 OFFCURVE",
"640 542 OFFCURVE",
"640 585 CURVE SMOOTH",
"640 657 LINE SMOOTH",
"640 803 OFFCURVE",
"859 828 OFFCURVE",
"859 949 CURVE SMOOTH",
"859 991 OFFCURVE",
"832 1022 OFFCURVE",
"785 1022 CURVE SMOOTH",
"714 1022 LINE SMOOTH",
"671 1022 OFFCURVE",
"640 991 OFFCURVE",
"640 948 CURVE SMOOTH",
"640 906 OFFCURVE",
"609 876 OFFCURVE",
"566 876 CURVE SMOOTH",
"495 876 LINE SMOOTH",
"452.07 876 OFFCURVE",
"421.101 906.9 OFFCURVE",
"421 949.792 CURVE",
"421.2 1142.27 OFFCURVE",
"494.3 1241 OFFCURVE",
"713 1241 CURVE SMOOTH",
"786 1241 LINE SMOOTH",
"1005 1241 OFFCURVE",
"1078 1149 OFFCURVE",
"1078 949 CURVE SMOOTH",
"1078 728 OFFCURVE",
"859 728 OFFCURVE",
"859 585 CURVE SMOOTH"
);
},
{
closed = 1;
nodes = (
"689 183 OFFCURVE",
"640 232 OFFCURVE",
"640 293 CURVE SMOOTH",
"640 353 OFFCURVE",
"689 402 OFFCURVE",
"750 402 CURVE SMOOTH",
"810 402 OFFCURVE",
"859 355 OFFCURVE",
"859 293 CURVE SMOOTH",
"859 232 OFFCURVE",
"810 183 OFFCURVE",
"750 183 CURVE SMOOTH"
);
}
);
width = 1497;
}
);
unicode = EC9D;
},
{
color = 4;
glyphname = uniEC9E;
lastChange = "2013-10-23 18:03:53 +0000";
layers = (
{
layerId = "ABCF47FB-41DD-418D-ADD0-B1CD0215F61B";
name = Regular;
paths = (
{
closed = 1;
nodes = (
"1145 1399 OFFCURVE",
"955 1480 OFFCURVE",
"750 1480 CURVE SMOOTH",
"545 1480 OFFCURVE",
"355 1399 OFFCURVE",
"218 1262 CURVE SMOOTH",
"81 1125 OFFCURVE",
"0 935 OFFCURVE",
"0 730 CURVE SMOOTH",
"0 525 OFFCURVE",
"81 335 OFFCURVE",
"218 198 CURVE SMOOTH",
"355 61 OFFCURVE",
"545 -20 OFFCURVE",
"750 -20 CURVE SMOOTH",
"955 -20 OFFCURVE",
"1145 61 OFFCURVE",
"1282 198 CURVE SMOOTH",
"1414 335 OFFCURVE",
"1500 525 OFFCURVE",
"1500 730 CURVE SMOOTH",
"1500 935 OFFCURVE",
"1414 1125 OFFCURVE",
"1282 1262 CURVE SMOOTH"
);
},
{
closed = 1;
nodes = (
"470 1205 OFFCURVE",
"603 1261 OFFCURVE",
"750 1261 CURVE SMOOTH",
"866.388 1261 OFFCURVE",
"973.88 1225.41 OFFCURVE",
"1062.34 1162.34 CURVE",
"317.667 417.667 LINE",
"254.216 505.66 OFFCURVE",
"219 613.428 OFFCURVE",
"219 730 CURVE SMOOTH",
"219 877 OFFCURVE",
"275 1010 OFFCURVE",
"373 1107 CURVE SMOOTH"
);
},
{
closed = 1;
nodes = (
"1028 255 OFFCURVE",
"896 199 OFFCURVE",
"750 199 CURVE SMOOTH",
"625.248 199 OFFCURVE",
"510.579 239.332 OFFCURVE",
"419.439 311.439 CURVE",
"1167.78 1059.78 LINE",
"1238.25 966.692 OFFCURVE",
"1281 851.552 OFFCURVE",
"1281 730 CURVE SMOOTH",
"1281 586 OFFCURVE",
"1221 451 OFFCURVE",
"1126 351 CURVE"
);
}
);
width = 1500;
}
);
unicode = EC9E;
},
{
color = 4;
glyphname = uniEC9F;
lastChange = "2013-10-23 18:03:53 +0000";
layers = (
{
layerId = "ABCF47FB-41DD-418D-ADD0-B1CD0215F61B";
name = Regular;
paths = (
{
closed = 1;
nodes = (
"1115 803 LINE",
"1115 1022 LINE SMOOTH",
"1115 1272 OFFCURVE",
"907 1480 OFFCURVE",
"657 1480 CURVE SMOOTH",
"407 1480 OFFCURVE",
"199 1272 OFFCURVE",
"199 1022 CURVE SMOOTH",
"199 803 LINE",
"74 803 LINE SMOOTH",
"31 803 OFFCURVE",
"0 772 OFFCURVE",
"0 729 CURVE SMOOTH",
"0 74 LINE SMOOTH",
"0 31 OFFCURVE",
"31 0 OFFCURVE",
"74 0 CURVE SMOOTH",
"1240 0 LINE SMOOTH",
"1283 0 OFFCURVE",
"1314 31 OFFCURVE",
"1314 74 CURVE SMOOTH",
"1314 729 LINE SMOOTH",
"1314 772 OFFCURVE",
"1283 803 OFFCURVE",
"1240 803 CURVE SMOOTH"
);
},
{
closed = 1;
nodes = (
"895 803 LINE",
"418 803 LINE",
"418 1022 LINE SMOOTH",
"418 1151.02 OFFCURVE",
"527.98 1261 OFFCURVE",
"657 1261 CURVE SMOOTH",
"786.168 1261 OFFCURVE",
"896.762 1151.05 OFFCURVE",
"896 1022.43 CURVE SMOOTH"
);
}
);
width = 1314;
}
);
unicode = EC9F;
},
{
color = 4;
glyphname = uniECA0;
lastChange = "2013-10-23 18:03:53 +0000";
layers = (
{
layerId = "ABCF47FB-41DD-418D-ADD0-B1CD0215F61B";
name = Regular;
paths = (
{
closed = 1;
nodes = (
"199 999 LINE",
"418 999 LINE",
"418 1022 LINE SMOOTH",
"418 1151.02 OFFCURVE",
"527.98 1261 OFFCURVE",
"657 1261 CURVE SMOOTH",
"786.168 1261 OFFCURVE",
"896.762 1151.05 OFFCURVE",
"896 1022.43 CURVE SMOOTH",
"895 803 LINE",
"74 803 LINE SMOOTH",
"31 803 OFFCURVE",
"0 772 OFFCURVE",
"0 729 CURVE SMOOTH",
"0 74 LINE SMOOTH",
"0 31 OFFCURVE",
"31 0 OFFCURVE",
"74 0 CURVE SMOOTH",
"1240 0 LINE SMOOTH",
"1283 0 OFFCURVE",
"1314 31 OFFCURVE",
"1314 74 CURVE SMOOTH",
"1314 729 LINE SMOOTH",
"1314 772 OFFCURVE",
"1283 803 OFFCURVE",
"1240 803 CURVE SMOOTH",
"1115 803 LINE",
"1115 1022 LINE SMOOTH",
"1115 1272 OFFCURVE",
"907 1480 OFFCURVE",
"657 1480 CURVE SMOOTH",
"407 1480 OFFCURVE",
"199 1272 OFFCURVE",
"199 1022 CURVE SMOOTH"
);
}
);
width = 1314;
}
);
unicode = ECA0;
},
{
color = 4;
glyphname = uniECA1;
lastChange = "2013-10-23 18:03:53 +0000";
layers = (
{
layerId = "ABCF47FB-41DD-418D-ADD0-B1CD0215F61B";
name = Regular;
paths = (
{
closed = 1;
nodes = (
"0 -15 LINE",
"292 277 LINE",
"584 -15 LINE",
"584 1386 LINE SMOOTH",
"584 1429 OFFCURVE",
"553 1460 OFFCURVE",
"510 1460 CURVE SMOOTH",
"74 1460 LINE SMOOTH",
"31 1460 OFFCURVE",
"0 1429 OFFCURVE",
"0 1386 CURVE SMOOTH"
);
}
);
width = 584;
}
);
unicode = ECA1;
},
{
color = 4;
glyphname = uniECA2;
lastChange = "2013-10-23 18:03:53 +0000";
layers = (
{
layerId = "ABCF47FB-41DD-418D-ADD0-B1CD0215F61B";
name = Regular;
paths = (
{
closed = 1;
nodes = (
"217 875 OFFCURVE",
"276 1006 OFFCURVE",
"374 1104 CURVE SMOOTH",
"472 1202 OFFCURVE",
"601 1261 OFFCURVE",
"749 1261 CURVE SMOOTH",
"897 1261 OFFCURVE",
"1029 1202 OFFCURVE",
"1125 1104 CURVE",
"1336 1201 LINE",
"1319 1222 OFFCURVE",
"1300 1242 OFFCURVE",
"1281 1261 CURVE SMOOTH",
"1145 1398 OFFCURVE",
"959 1480 OFFCURVE",
"749 1480 CURVE SMOOTH",
"541 1480 OFFCURVE",
"358 1398 OFFCURVE",
"220 1261 CURVE SMOOTH",
"84 1123 OFFCURVE",
"0 938 OFFCURVE",
"0 730 CURVE SMOOTH",
"0 521 OFFCURVE",
"84 339 OFFCURVE",
"220 201 CURVE SMOOTH",
"232 189 OFFCURVE",
"244 178 OFFCURVE",
"256 167 CURVE",
"412 319 LINE",
"399 330 OFFCURVE",
"386 342 OFFCURVE",
"374 354 CURVE SMOOTH",
"276 452 OFFCURVE",
"217 580 OFFCURVE",
"217 728 CURVE SMOOTH"
);
},
{
closed = 1;
nodes = (
"1407 1086 LINE",
"717 761 LINE",
"696 750 LINE",
"664 730 OFFCURVE",
"647 696 OFFCURVE",
"647 661 CURVE SMOOTH",
"647 641 OFFCURVE",
"652 621 OFFCURVE",
"664 603 CURVE SMOOTH",
"685 572 OFFCURVE",
"719 555 OFFCURVE",
"755 555 CURVE SMOOTH",
"774 555 OFFCURVE",
"794 560 OFFCURVE",
"811 571 CURVE SMOOTH",
"823.954 578.972 OFFCURVE",
"1429.71 1041.72 OFFCURVE",
"1432 1043 CURVE"
);
},
{
closed = 1;
nodes = (
"1281 754.999 LINE",
"1282 745.999 OFFCURVE",
"1282 736.999 OFFCURVE",
"1282 727.999 CURVE SMOOTH",
"1282 579.999 OFFCURVE",
"1223 451.999 OFFCURVE",
"1125 353.999 CURVE SMOOTH",
"1113 341.999 OFFCURVE",
"1101 329.999 OFFCURVE",
"1088 318.999 CURVE",
"1242 164.999 LINE",
"1255 175.999 OFFCURVE",
"1268 187.999 OFFCURVE",
"1281 200.999 CURVE SMOOTH",
"1420 338.999 OFFCURVE",
"1500 520.999 OFFCURVE",
"1500 729.999 CURVE SMOOTH",
"1500 791.999 OFFCURVE",
"1493 851.999 OFFCURVE",
"1479 908.999 CURVE"
);
}
);
width = 1500;
}
);
unicode = ECA2;
},
{
color = 4;
glyphname = uniECA3;
lastChange = "2013-12-23 17:41:07 +0000";
layers = (
{
layerId = "ABCF47FB-41DD-418D-ADD0-B1CD0215F61B";
name = Regular;
paths = (
{
closed = 1;
nodes = (
"1124 1015 OFFCURVE",
"1452 1121 OFFCURVE",
"1452 1241 CURVE SMOOTH",
"1452 1361 OFFCURVE",
"1125 1469 OFFCURVE",
"730 1469 CURVE SMOOTH",
"336 1469 OFFCURVE",
"9 1361 OFFCURVE",
"9 1241 CURVE SMOOTH",
"9 1121 OFFCURVE",
"336 1015 OFFCURVE",
"730 1015 CURVE SMOOTH"
);
},
{
closed = 1;
nodes = (
"667 890 LINE",
"585 891 LINE",
"254 911 OFFCURVE",
"0 998 OFFCURVE",
"0 1104 CURVE",
"2 219 LINE SMOOTH",
"2 100 OFFCURVE",
"327 -11 OFFCURVE",
"730 -11 CURVE SMOOTH",
"1133 -11 OFFCURVE",
"1460 100 OFFCURVE",
"1460 219 CURVE SMOOTH",
"1460 1102 LINE",
"1456 995 OFFCURVE",
"1211 908 OFFCURVE",
"876 890 CURVE",
"794 890 LINE",
"794 428 LINE",
"1016 650 LINE",
"1106 560 LINE",
"730 184 LINE",
"354 561 LINE",
"444 650 LINE",
"666 428 LINE"
);
}
);
width = 1460;
}
);
unicode = ECA3;
},
{
color = 4;
glyphname = uniECA4;
lastChange = "2013-10-23 18:03:53 +0000";
layers = (
{
layerId = "ABCF47FB-41DD-418D-ADD0-B1CD0215F61B";
name = Regular;
paths = (
{
closed = 1;
nodes = (
"1124 1015 OFFCURVE",
"1452 1121 OFFCURVE",
"1452 1241 CURVE SMOOTH",
"1452 1361 OFFCURVE",
"1125 1469 OFFCURVE",
"730 1469 CURVE SMOOTH",
"336 1469 OFFCURVE",
"9 1361 OFFCURVE",
"9 1241 CURVE SMOOTH",
"9 1121 OFFCURVE",
"336 1015 OFFCURVE",
"730 1015 CURVE SMOOTH"
);
},
{
closed = 1;
nodes = (
"585 877 LINE",
"254 897 OFFCURVE",
"0 984 OFFCURVE",
"0 1090 CURVE",
"2 219 LINE SMOOTH",
"2 100 OFFCURVE",
"327 -11 OFFCURVE",
"730 -11 CURVE SMOOTH",
"1133 -11 OFFCURVE",
"1460 100 OFFCURVE",
"1460 219 CURVE SMOOTH",
"1460 1088 LINE",
"1456 981 OFFCURVE",
"1211 894 OFFCURVE",
"876 876 CURVE"
);
}
);
width = 1460;
}
);
unicode = ECA4;
},
{
color = 4;
glyphname = uniECA5;
lastChange = "2013-10-23 18:03:53 +0000";
layers = (
{
layerId = "ABCF47FB-41DD-418D-ADD0-B1CD0215F61B";
name = Regular;
paths = (
{
closed = 1;
nodes = (
"366 1349 LINE SMOOTH",
"366 1413 OFFCURVE",
"321 1460 OFFCURVE",
"258 1460 CURVE SMOOTH",
"194 1460 OFFCURVE",
"147 1413 OFFCURVE",
"147 1349 CURVE SMOOTH",
"147 1142 LINE",
"60 1101 OFFCURVE",
"0 1013 OFFCURVE",
"0 911 CURVE SMOOTH",
"0 808 OFFCURVE",
"60 720 OFFCURVE",
"147 679 CURVE",
"147 111 LINE SMOOTH",
"147 47 OFFCURVE",
"192 0 OFFCURVE",
"255 0 CURVE SMOOTH",
"319 0 OFFCURVE",
"366 47 OFFCURVE",
"366 111 CURVE SMOOTH",
"366 680 LINE",
"452 721 OFFCURVE",
"511 809 OFFCURVE",
"511 911 CURVE SMOOTH",
"511 1012 OFFCURVE",
"452 1100 OFFCURVE",
"366 1141 CURVE"
);
},
{
closed = 1;
nodes = (
"877 1349 LINE SMOOTH",
"877 1413 OFFCURVE",
"832 1460 OFFCURVE",
"769 1460 CURVE SMOOTH",
"705 1460 OFFCURVE",
"658 1413 OFFCURVE",
"658 1349 CURVE SMOOTH",
"658 631 LINE",
"571 590 OFFCURVE",
"511 502 OFFCURVE",
"511 400 CURVE SMOOTH",
"511 297 OFFCURVE",
"571 209 OFFCURVE",
"658 168 CURVE",
"658 111 LINE SMOOTH",
"658 47 OFFCURVE",
"703 0 OFFCURVE",
"766 0 CURVE SMOOTH",
"830 0 OFFCURVE",
"877 47 OFFCURVE",
"877 111 CURVE SMOOTH",
"877 169 LINE",
"963 210 OFFCURVE",
"1022 298 OFFCURVE",
"1022 400 CURVE SMOOTH",
"1022 501 OFFCURVE",
"963 589 OFFCURVE",
"877 630 CURVE"
);
},
{
closed = 1;
nodes = (
"1388 1349 LINE SMOOTH",
"1388 1413 OFFCURVE",
"1343 1460 OFFCURVE",
"1280 1460 CURVE SMOOTH",
"1216 1460 OFFCURVE",
"1169 1413 OFFCURVE",
"1169 1349 CURVE SMOOTH",
"1169 1290 LINE",
"1082 1249 OFFCURVE",
"1022 1161 OFFCURVE",
"1022 1059 CURVE SMOOTH",
"1022 956 OFFCURVE",
"1082 868 OFFCURVE",
"1169 827 CURVE",
"1169 111 LINE SMOOTH",
"1169 47 OFFCURVE",
"1214 0 OFFCURVE",
"1277 0 CURVE SMOOTH",
"1341 0 OFFCURVE",
"1388 47 OFFCURVE",
"1388 111 CURVE SMOOTH",
"1388 828 LINE",
"1474 869 OFFCURVE",
"1533 957 OFFCURVE",
"1533 1059 CURVE SMOOTH",
"1533 1160 OFFCURVE",
"1474 1248 OFFCURVE",
"1388 1289 CURVE"
);
},
{
closed = 1;
nodes = (
"1178 876 OFFCURVE",
"1096 958 OFFCURVE",
"1096 1059 CURVE SMOOTH",
"1096 1159 OFFCURVE",
"1178 1241 OFFCURVE",
"1279 1241 CURVE SMOOTH",
"1379 1241 OFFCURVE",
"1461 1159 OFFCURVE",
"1461 1059 CURVE SMOOTH",
"1461 958 OFFCURVE",
"1379 876 OFFCURVE",
"1279 876 CURVE SMOOTH"
);
},
{
closed = 1;
nodes = (
"155 728 OFFCURVE",
"73 810 OFFCURVE",
"73 911 CURVE SMOOTH",
"73 1011 OFFCURVE",
"155 1093 OFFCURVE",
"256 1093 CURVE SMOOTH",
"356 1093 OFFCURVE",
"438 1011 OFFCURVE",
"438 911 CURVE SMOOTH",
"438 810 OFFCURVE",
"356 728 OFFCURVE",
"256 728 CURVE SMOOTH"
);
},
{
closed = 1;
nodes = (
"667 217 OFFCURVE",
"585 299 OFFCURVE",
"585 400 CURVE SMOOTH",
"585 500 OFFCURVE",
"667 582 OFFCURVE",
"768 582 CURVE SMOOTH",
"868 582 OFFCURVE",
"950 500 OFFCURVE",
"950 400 CURVE SMOOTH",
"950 299 OFFCURVE",
"868 217 OFFCURVE",
"768 217 CURVE SMOOTH"
);
}
);
width = 1533;
}
);
unicode = ECA5;
},
{
color = 4;
glyphname = uniECA6;
lastChange = "2013-10-23 18:03:53 +0000";
layers = (
{
layerId = "ABCF47FB-41DD-418D-ADD0-B1CD0215F61B";
name = Regular;
paths = (
{
closed = 1;
nodes = (
"1385.66 608.415 OFFCURVE",
"1387 632.551 OFFCURVE",
"1387 657 CURVE SMOOTH",
"1387 933.476 OFFCURVE",
"1216.24 1170.06 OFFCURVE",
"974.426 1267.03 CURVE",
"946.773 1377.98 OFFCURVE",
"846.6 1460 OFFCURVE",
"727 1460 CURVE SMOOTH",
"605.407 1460 OFFCURVE",
"504.344 1376.41 OFFCURVE",
"477.808 1263.86 CURVE",
"240.116 1164.97 OFFCURVE",
"73 930.506 OFFCURVE",
"73 657 CURVE SMOOTH",
"73 632.512 OFFCURVE",
"74.341 608.336 OFFCURVE",
"76.951 584.543 CURVE",
"29.406 538.258 OFFCURVE",
"0 473.611 OFFCURVE",
"0 402 CURVE SMOOTH",
"0 260 OFFCURVE",
"114 146 OFFCURVE",
"256 146 CURVE SMOOTH",
"274.547 146 OFFCURVE",
"292.626 147.973 OFFCURVE",
"310.04 151.722 CURVE",
"423.903 56.981 OFFCURVE",
"570.296 0 OFFCURVE",
"730 0 CURVE SMOOTH",
"889.769 0 OFFCURVE",
"1036.21 57.026 OFFCURVE",
"1150.1 151.833 CURVE",
"1167.77 148.011 OFFCURVE",
"1186.14 146 OFFCURVE",
"1205 146 CURVE SMOOTH",
"1346 146 OFFCURVE",
"1460 260 OFFCURVE",
"1460 402 CURVE SMOOTH",
"1460 473.671 OFFCURVE",
"1430.55 538.365 OFFCURVE",
"1383.06 584.658 CURVE"
);
},
{
closed = 1;
nodes = (
"629 1020 OFFCURVE",
"548 1102 OFFCURVE",
"548 1203 CURVE SMOOTH",
"548 1303 OFFCURVE",
"629 1385 OFFCURVE",
"730 1385 CURVE SMOOTH",
"831 1385 OFFCURVE",
"913 1303 OFFCURVE",
"913 1203 CURVE SMOOTH",
"913 1102 OFFCURVE",
"831 1020 OFFCURVE",
"730 1020 CURVE SMOOTH"
);
},
{
closed = 1;
nodes = (
"502.328 325.8 OFFCURVE",
"511 362.835 OFFCURVE",
"511 402 CURVE SMOOTH",
"511 530.775 OFFCURVE",
"415.91 637.03 OFFCURVE",
"292.008 654.486 CURVE",
"292 657 LINE",
"292 825.468 OFFCURVE",
"387.199 971.775 OFFCURVE",
"526.717 1045.04 CURVE",
"573.518 986.4 OFFCURVE",
"645.666 949 OFFCURVE",
"727 949 CURVE SMOOTH",
"808.924 949 OFFCURVE",
"881.732 987.484 OFFCURVE",
"928.362 1047.58 CURVE",
"1070.56 975.2 OFFCURVE",
"1168 827.442 OFFCURVE",
"1168 657 CURVE SMOOTH",
"1167.99 654.378 LINE",
"1043.7 636.596 OFFCURVE",
"949 530.513 OFFCURVE",
"949 402 CURVE SMOOTH",
"949 362.839 OFFCURVE",
"957.671 325.808 OFFCURVE",
"973.207 292.71 CURVE",
"903.626 246.154 OFFCURVE",
"819.974 219 OFFCURVE",
"730 219 CURVE SMOOTH",
"640.033 219 OFFCURVE",
"556.387 246.15 OFFCURVE",
"486.809 292.7 CURVE"
);
},
{
closed = 1;
nodes = (
"156 219 OFFCURVE",
"75 301 OFFCURVE",
"75 402 CURVE SMOOTH",
"75 502 OFFCURVE",
"156 584 OFFCURVE",
"257 584 CURVE SMOOTH",
"358 584 OFFCURVE",
"440 502 OFFCURVE",
"440 402 CURVE SMOOTH",
"440 301 OFFCURVE",
"358 219 OFFCURVE",
"257 219 CURVE SMOOTH"
);
},
{
closed = 1;
nodes = (
"1103 219 OFFCURVE",
"1022 301 OFFCURVE",
"1022 402 CURVE SMOOTH",
"1022 502 OFFCURVE",
"1103 584 OFFCURVE",
"1204 584 CURVE SMOOTH",
"1305 584 OFFCURVE",
"1387 502 OFFCURVE",
"1387 402 CURVE SMOOTH",
"1387 301 OFFCURVE",
"1305 219 OFFCURVE",
"1204 219 CURVE SMOOTH"
);
}
);
width = 1460;
}
);
unicode = ECA6;
},
{
color = 4;
glyphname = uniECA7;
lastChange = "2013-12-23 16:39:01 +0000";
layers = (
{
layerId = "ABCF47FB-41DD-418D-ADD0-B1CD0215F61B";
name = Regular;
paths = (
{
closed = 1;
nodes = (
"365 1095 LINE",
"1460 1095 LINE",
"1460 1279 LINE",
"365 1279 LINE"
);
},
{
closed = 1;
nodes = (
"365 675 LINE",
"1460 675 LINE",
"1460 859 LINE",
"365 859 LINE"
);
},
{
closed = 1;
nodes = (
"365 254 LINE",
"1460 254 LINE",
"1460 438 LINE",
"365 438 LINE"
);
},
{
closed = 1;
nodes = (
"0 1127 OFFCURVE",
"32 1095 OFFCURVE",
"92 1095 CURVE SMOOTH",
"152 1095 OFFCURVE",
"184 1127 OFFCURVE",
"184 1187 CURVE SMOOTH",
"184 1247 OFFCURVE",
"152 1279 OFFCURVE",
"92 1279 CURVE SMOOTH",
"32 1279 OFFCURVE",
"0 1247 OFFCURVE",
"0 1187 CURVE SMOOTH"
);
},
{
closed = 1;
nodes = (
"0 707 OFFCURVE",
"32 675 OFFCURVE",
"92 675 CURVE SMOOTH",
"152 675 OFFCURVE",
"184 707 OFFCURVE",
"184 767 CURVE SMOOTH",
"184 827 OFFCURVE",
"152 859 OFFCURVE",
"92 859 CURVE SMOOTH",
"32 859 OFFCURVE",
"0 827 OFFCURVE",
"0 767 CURVE SMOOTH"
);
},
{
closed = 1;
nodes = (
"0 286 OFFCURVE",
"32 254 OFFCURVE",
"92 254 CURVE SMOOTH",
"152 254 OFFCURVE",
"184 286 OFFCURVE",
"184 346 CURVE SMOOTH",
"184 406 OFFCURVE",
"152 438 OFFCURVE",
"92 438 CURVE SMOOTH",
"32 438 OFFCURVE",
"0 406 OFFCURVE",
"0 346 CURVE SMOOTH"
);
}
);
width = 1460;
}
);
unicode = ECA7;
},
{
color = 4;
glyphname = uniECA8;
lastChange = "2013-12-20 21:00:59 +0000";
layers = (
{
layerId = "ABCF47FB-41DD-418D-ADD0-B1CD0215F61B";
name = Regular;
paths = (
{
closed = 1;
nodes = (
"0 0 LINE",
"1681 0 LINE",
"1681 1460 LINE",
"0 1460 LINE"
);
},
{
closed = 1;
nodes = (
"586 1242 LINE",
"586 949 LINE",
"220 949 LINE",
"219 1242 LINE"
);
},
{
closed = 1;
nodes = (
"1024 1242 LINE",
"1024 949 LINE",
"659 949 LINE",
"658 1242 LINE"
);
},
{
closed = 1;
nodes = (
"1462 1242 LINE",
"1462 949 LINE",
"1097 949 LINE",
"1096 1242 LINE"
);
},
{
closed = 1;
nodes = (
"586 877 LINE",
"586 584 LINE",
"220 584 LINE",
"219 877 LINE"
);
},
{
closed = 1;
nodes = (
"1024 877 LINE",
"1024 584 LINE",
"659 584 LINE",
"658 877 LINE"
);
},
{
closed = 1;
nodes = (
"1462 877 LINE",
"1462 584 LINE",
"1097 584 LINE",
"1096 877 LINE"
);
},
{
closed = 1;
nodes = (
"586 512 LINE",
"586 219 LINE",
"220 219 LINE",
"219 512 LINE"
);
},
{
closed = 1;
nodes = (
"1024 512 LINE",
"1024 219 LINE",
"659 219 LINE",
"658 512 LINE"
);
},
{
closed = 1;
nodes = (
"1462 512 LINE",
"1462 219 LINE",
"1097 219 LINE",
"1096 512 LINE"
);
}
);
width = 1681;
}
);
unicode = ECA8;
},
{
color = 4;
glyphname = uniECA9;
lastChange = "2014-01-30 17:30:05 +0000";
layers = (
{
layerId = "ABCF47FB-41DD-418D-ADD0-B1CD0215F61B";
name = Regular;
paths = (
{
closed = 1;
nodes = (
"1460 0 LINE",
"1460 1197 LINE",
"1118 896 LINE SMOOTH",
"1104 884 OFFCURVE",
"1085 881 OFFCURVE",
"1069 890 CURVE SMOOTH",
"860 1002 LINE SMOOTH",
"837 1014 OFFCURVE",
"812 1007 OFFCURVE",
"799 986 CURVE SMOOTH",
"456 465 LINE SMOOTH",
"445 448 OFFCURVE",
"426 441 OFFCURVE",
"407 447 CURVE SMOOTH",
"211 503 LINE SMOOTH",
"194 508 OFFCURVE",
"177 503 OFFCURVE",
"166 489 CURVE SMOOTH",
"0 281 LINE",
"0 0 LINE"
);
}
);
width = 1460;
}
);
unicode = ECA9;
},
{
color = 4;
glyphname = uniECAA;
lastChange = "2013-12-20 20:58:18 +0000";
layers = (
{
layerId = "ABCF47FB-41DD-418D-ADD0-B1CD0215F61B";
name = Regular;
paths = (
{
closed = 1;
nodes = (
"0 1383 LINE",
"0 1018 LINE",
"1460 1018 LINE",
"1460 1383 LINE"
);
},
{
closed = 1;
nodes = (
"0 873 LINE",
"0 507 LINE",
"1095 507 LINE",
"1095 873 LINE"
);
},
{
closed = 1;
nodes = (
"0 365 LINE",
"0 3 LINE",
"730 3 LINE",
"730 365 LINE"
);
}
);
width = 1460;
}
);
unicode = ECAA;
},
{
color = 4;
glyphname = uniECAB;
lastChange = "2013-12-20 20:58:39 +0000";
layers = (
{
layerId = "ABCF47FB-41DD-418D-ADD0-B1CD0215F61B";
name = Regular;
paths = (
{
closed = 1;
nodes = (
"1380 0 LINE",
"1380 1460 LINE",
"1015 1460 LINE",
"1015 0 LINE"
);
},
{
closed = 1;
nodes = (
"870 0 LINE",
"870 1095 LINE",
"504 1095 LINE",
"504 0 LINE"
);
},
{
closed = 1;
nodes = (
"362 0 LINE",
"362 728 LINE",
"0 728 LINE",
"0 0 LINE"
);
}
);
width = 1380;
}
);
unicode = ECAB;
},
{
color = 4;
glyphname = uniECAC;
lastChange = "2013-10-23 18:03:53 +0000";
layers = (
{
layerId = "ABCF47FB-41DD-418D-ADD0-B1CD0215F61B";
name = Regular;
paths = (
{
closed = 1;
nodes = (
"819 1470 LINE",
"1007 1473 OFFCURVE",
"1173 1401 OFFCURVE",
"1298 1281 CURVE SMOOTH",
"1425 1163 OFFCURVE",
"1501 994 OFFCURVE",
"1503 809 CURVE",
"820 810 LINE"
);
},
{
closed = 1;
nodes = (
"673 666 LINE",
"1342 664 LINE",
"1342 478 OFFCURVE",
"1269 310 OFFCURVE",
"1153 188 CURVE SMOOTH",
"1034 65 OFFCURVE",
"858 -13 OFFCURVE",
"673 -16 CURVE SMOOTH",
"487 -20 OFFCURVE",
"329 54 OFFCURVE",
"205 176 CURVE SMOOTH",
"81 294 OFFCURVE",
"0 459 OFFCURVE",
"0 645 CURVE",
"-4 834 OFFCURVE",
"70 1001 OFFCURVE",
"191 1124 CURVE SMOOTH",
"306 1247 OFFCURVE",
"488 1324 OFFCURVE",
"673 1326 CURVE"
);
}
);
width = 1503;
}
);
unicode = ECAC;
},
{
color = 4;
glyphname = uniECAD;
lastChange = "2014-05-29 18:34:12 +0000";
layers = (
{
layerId = "ABCF47FB-41DD-418D-ADD0-B1CD0215F61B";
name = Regular;
paths = (
{
closed = 1;
nodes = (
"1217 1387 OFFCURVE",
"1168 1338 OFFCURVE",
"1168 1277 CURVE SMOOTH",
"1168 1217 OFFCURVE",
"1217 1168 OFFCURVE",
"1278 1168 CURVE SMOOTH",
"1338 1168 OFFCURVE",
"1387 1217 OFFCURVE",
"1387 1277 CURVE SMOOTH",
"1387 1338 OFFCURVE",
"1338 1387 OFFCURVE",
"1278 1387 CURVE SMOOTH"
);
},
{
closed = 1;
nodes = (
"998 1242 OFFCURVE",
"949 1193 OFFCURVE",
"949 1132 CURVE SMOOTH",
"949 1072 OFFCURVE",
"998 1023 OFFCURVE",
"1059 1023 CURVE SMOOTH",
"1119 1023 OFFCURVE",
"1168 1072 OFFCURVE",
"1168 1132 CURVE SMOOTH",
"1168 1193 OFFCURVE",
"1119 1242 OFFCURVE",
"1059 1242 CURVE SMOOTH"
);
},
{
closed = 1;
nodes = (
"441 1156 OFFCURVE",
"392 1107 OFFCURVE",
"392 1046 CURVE SMOOTH",
"392 986 OFFCURVE",
"441 937 OFFCURVE",
"502 937 CURVE SMOOTH",
"562 937 OFFCURVE",
"611 986 OFFCURVE",
"611 1046 CURVE SMOOTH",
"611 1107 OFFCURVE",
"562 1156 OFFCURVE",
"502 1156 CURVE SMOOTH"
);
},
{
closed = 1;
nodes = (
"1071 950 OFFCURVE",
"1022 901 OFFCURVE",
"1022 840 CURVE SMOOTH",
"1022 780 OFFCURVE",
"1071 731 OFFCURVE",
"1132 731 CURVE SMOOTH",
"1192 731 OFFCURVE",
"1241 780 OFFCURVE",
"1241 840 CURVE SMOOTH",
"1241 901 OFFCURVE",
"1192 950 OFFCURVE",
"1132 950 CURVE SMOOTH"
);
},
{
closed = 1;
nodes = (
"299 843 OFFCURVE",
"250 794 OFFCURVE",
"250 733 CURVE SMOOTH",
"250 673 OFFCURVE",
"299 624 OFFCURVE",
"360 624 CURVE SMOOTH",
"420 624 OFFCURVE",
"469 673 OFFCURVE",
"469 733 CURVE SMOOTH",
"469 794 OFFCURVE",
"420 843 OFFCURVE",
"360 843 CURVE SMOOTH"
);
},
{
closed = 1;
nodes = (
"660 937 OFFCURVE",
"611 888 OFFCURVE",
"611 827 CURVE SMOOTH",
"611 767 OFFCURVE",
"660 718 OFFCURVE",
"721 718 CURVE SMOOTH",
"781 718 OFFCURVE",
"830 767 OFFCURVE",
"830 827 CURVE SMOOTH",
"830 888 OFFCURVE",
"781 937 OFFCURVE",
"721 937 CURVE SMOOTH"
);
},
{
closed = 1;
nodes = (
"393 491 OFFCURVE",
"344 442 OFFCURVE",
"344 381 CURVE SMOOTH",
"344 321 OFFCURVE",
"393 272 OFFCURVE",
"454 272 CURVE SMOOTH",
"514 272 OFFCURVE",
"563 321 OFFCURVE",
"563 381 CURVE SMOOTH",
"563 442 OFFCURVE",
"514 491 OFFCURVE",
"454 491 CURVE SMOOTH"
);
},
{
closed = 1;
nodes = (
"49 438 OFFCURVE",
"0 389 OFFCURVE",
"0 328 CURVE SMOOTH",
"0 268 OFFCURVE",
"49 219 OFFCURVE",
"110 219 CURVE SMOOTH",
"170 219 OFFCURVE",
"219 268 OFFCURVE",
"219 328 CURVE SMOOTH",
"219 389 OFFCURVE",
"170 438 OFFCURVE",
"110 438 CURVE SMOOTH"
);
},
{
closed = 1;
nodes = (
"257 219 OFFCURVE",
"208 170 OFFCURVE",
"208 109 CURVE SMOOTH",
"208 49 OFFCURVE",
"257 0 OFFCURVE",
"318 0 CURVE SMOOTH",
"378 0 OFFCURVE",
"427 49 OFFCURVE",
"427 109 CURVE SMOOTH",
"427 170 OFFCURVE",
"378 219 OFFCURVE",
"318 219 CURVE SMOOTH"
);
}
);
width = 1460;
}
);
unicode = ECAD;
},
{
color = 4;
glyphname = uniECAE;
lastChange = "2014-01-30 17:15:00 +0000";
layers = (
{
guideLines = (
{
position = "{-100, 0}";
},
{
position = "{-100, 0}";
}
);
layerId = "ABCF47FB-41DD-418D-ADD0-B1CD0215F61B";
name = Regular;
paths = (
{
closed = 1;
nodes = (
"465 1029 LINE SMOOTH",
"440 1100 OFFCURVE",
"352 1099 OFFCURVE",
"327 1029 CURVE SMOOTH",
"200 664 LINE SMOOTH",
"198 660 OFFCURVE",
"193.994 657 OFFCURVE",
"189 657 CURVE SMOOTH",
"0 657 LINE",
"0 473 LINE",
"297 473 LINE SMOOTH",
"316 473 OFFCURVE",
"332 484 OFFCURVE",
"338 502 CURVE SMOOTH",
"378 619 LINE SMOOTH",
"385 637 OFFCURVE",
"407 637 OFFCURVE",
"414 619 CURVE SMOOTH",
"562 197 LINE SMOOTH",
"587 126 OFFCURVE",
"675 126 OFFCURVE",
"700 197 CURVE SMOOTH",
"936 874 LINE SMOOTH",
"943 892 OFFCURVE",
"965 892 OFFCURVE",
"972 874 CURVE SMOOTH",
"1102 502 LINE SMOOTH",
"1108 484 OFFCURVE",
"1124 473 OFFCURVE",
"1143 473 CURVE SMOOTH",
"1460 473 LINE",
"1460 657 LINE",
"1251 657 LINE SMOOTH",
"1246 657 OFFCURVE",
"1242 660 OFFCURVE",
"1240 664 CURVE SMOOTH",
"1023 1283 LINE SMOOTH",
"998 1354 OFFCURVE",
"910 1354 OFFCURVE",
"885 1283 CURVE SMOOTH",
"649 606 LINE SMOOTH",
"642 588 OFFCURVE",
"620 588 OFFCURVE",
"613 606 CURVE SMOOTH"
);
}
);
width = 1460;
}
);
unicode = ECAE;
},
{
color = 4;
glyphname = uniECAF;
lastChange = "2013-10-23 18:03:53 +0000";
layers = (
{
layerId = "ABCF47FB-41DD-418D-ADD0-B1CD0215F61B";
name = Regular;
paths = (
{
closed = 1;
nodes = (
"9 442 LINE",
"0 564 LINE",
"424 1243 LINE",
"631 1243 LINE",
"631 599 LINE",
"746 599 LINE",
"746 442 LINE",
"631 442 LINE",
"631 219 LINE",
"427 219 LINE",
"427 442 LINE"
);
},
{
closed = 1;
nodes = (
"767 916 LINE",
"764 921 LINE",
"760 1101 OFFCURVE",
"892 1243 OFFCURVE",
"1099 1243 CURVE SMOOTH",
"1307 1243 OFFCURVE",
"1427 1128 OFFCURVE",
"1427 950 CURVE SMOOTH",
"1427 828 OFFCURVE",
"1370 755 OFFCURVE",
"1213 578 CURVE SMOOTH",
"1048 379 LINE",
"1048 373 LINE",
"1460 373 LINE",
"1460 219 LINE",
"784 219 LINE",
"784 352 LINE",
"1096 704 LINE SMOOTH",
"1190 815 OFFCURVE",
"1224 886 OFFCURVE",
"1224 950 CURVE SMOOTH",
"1224 1032 OFFCURVE",
"1182 1086 OFFCURVE",
"1099 1086 CURVE SMOOTH",
"1011 1086 OFFCURVE",
"963 1015 OFFCURVE",
"963 916 CURVE"
);
},
{
closed = 1;
nodes = (
"401 927 LINE",
"186 599 LINE",
"427 599 LINE",
"427 971 LINE",
"424 973 LINE"
);
}
);
width = 1460;
}
);
unicode = ECAF;
},
{
color = 4;
glyphname = uniECB0;
lastChange = "2013-10-23 18:03:53 +0000";
layers = (
{
layerId = "ABCF47FB-41DD-418D-ADD0-B1CD0215F61B";
name = Regular;
paths = (
{
closed = 1;
nodes = (
"364 1355 OFFCURVE",
"395 1386 OFFCURVE",
"438 1386 CURVE SMOOTH",
"584 1386 LINE",
"584 1429 OFFCURVE",
"553 1460 OFFCURVE",
"510 1460 CURVE SMOOTH",
"74 1460 LINE SMOOTH",
"31 1460 OFFCURVE",
"0 1429 OFFCURVE",
"0 1386 CURVE SMOOTH",
"0 73 LINE SMOOTH",
"0 30 OFFCURVE",
"31 -1 OFFCURVE",
"74 -1 CURVE SMOOTH",
"510 -1 LINE SMOOTH",
"553 -1 OFFCURVE",
"584 30 OFFCURVE",
"584 73 CURVE",
"438 73 LINE SMOOTH",
"395 73 OFFCURVE",
"364 104 OFFCURVE",
"364 146 CURVE SMOOTH",
"364 188 OFFCURVE",
"395 219 OFFCURVE",
"438 219 CURVE SMOOTH",
"584 219 LINE",
"584 364 LINE",
"366 364 LINE SMOOTH",
"323 364 OFFCURVE",
"292 395 OFFCURVE",
"292 437 CURVE SMOOTH",
"292 479 OFFCURVE",
"323 510 OFFCURVE",
"366 510 CURVE SMOOTH",
"584 510 LINE",
"584 656 LINE",
"438 656 LINE SMOOTH",
"395 656 OFFCURVE",
"364 687 OFFCURVE",
"364 729 CURVE SMOOTH",
"364 771 OFFCURVE",
"395 802 OFFCURVE",
"438 802 CURVE SMOOTH",
"584 802 LINE",
"584 948 LINE",
"366 948 LINE SMOOTH",
"323 948 OFFCURVE",
"292 979 OFFCURVE",
"292 1021 CURVE SMOOTH",
"292 1063 OFFCURVE",
"323 1094 OFFCURVE",
"366 1094 CURVE SMOOTH",
"584 1094 LINE",
"584 1240 LINE",
"438 1240 LINE SMOOTH",
"395 1240 OFFCURVE",
"364 1271 OFFCURVE",
"364 1313 CURVE SMOOTH"
);
}
);
width = 584;
}
);
unicode = ECB0;
},
{
color = 4;
glyphname = uniECB1;
lastChange = "2013-10-23 18:03:53 +0000";
layers = (
{
layerId = "ABCF47FB-41DD-418D-ADD0-B1CD0215F61B";
name = Regular;
paths = (
{
closed = 1;
nodes = (
"584 1313 LINE SMOOTH",
"584 1399 OFFCURVE",
"521 1462 OFFCURVE",
"435 1462 CURVE SMOOTH",
"294 1462 LINE SMOOTH",
"208 1462 OFFCURVE",
"145 1399 OFFCURVE",
"145 1313 CURVE SMOOTH",
"145 656.531 LINE",
"56.846 589.98 OFFCURVE",
"0 484.291 OFFCURVE",
"0 365 CURVE SMOOTH",
"0 163 OFFCURVE",
"163 0 OFFCURVE",
"365 0 CURVE SMOOTH",
"567 0 OFFCURVE",
"730 163 OFFCURVE",
"730 365 CURVE SMOOTH",
"730 484.741 OFFCURVE",
"672.724 590.778 OFFCURVE",
"584 657.283 CURVE"
);
},
{
closed = 1;
nodes = (
"438 571.539 LINE",
"523.06 541.475 OFFCURVE",
"584 460.356 OFFCURVE",
"584 365 CURVE SMOOTH",
"584 244.048 OFFCURVE",
"485.952 146 OFFCURVE",
"365 146 CURVE SMOOTH",
"244.048 146 OFFCURVE",
"146 244.048 OFFCURVE",
"146 365 CURVE SMOOTH",
"146 460.356 OFFCURVE",
"206.94 541.475 OFFCURVE",
"292 571.539 CURVE",
"292 949 LINE SMOOTH",
"292 992 OFFCURVE",
"323 1023 OFFCURVE",
"365 1023 CURVE SMOOTH",
"407 1023 OFFCURVE",
"438 992 OFFCURVE",
"438 949 CURVE SMOOTH"
);
}
);
width = 730;
}
);
unicode = ECB1;
},
{
color = 4;
glyphname = uniECB2;
lastChange = "2013-12-20 21:00:08 +0000";
layers = (
{
layerId = "ABCF47FB-41DD-418D-ADD0-B1CD0215F61B";
name = Regular;
paths = (
{
closed = 1;
nodes = (
"1132 1168 LINE",
"1132 1460 LINE",
"803 1460 LINE",
"803 0 LINE",
"1460 0 LINE",
"1460 1168 LINE"
);
},
{
closed = 1;
nodes = (
"1059 73 LINE",
"876 73 LINE",
"876 1387 LINE",
"1059 1387 LINE"
);
},
{
closed = 1;
nodes = (
"331 949 LINE",
"331 511 LINE",
"74 511 LINE",
"0 511 LINE",
"0 0 LINE",
"657 0 LINE",
"657 949 LINE"
);
},
{
closed = 1;
nodes = (
"257 73 LINE",
"72 73 LINE",
"72 438 LINE",
"257 438 LINE"
);
}
);
width = 1460;
}
);
unicode = ECB2;
},
{
color = 4;
glyphname = uniECB3;
lastChange = "2013-12-20 21:00:32 +0000";
layers = (
{
layerId = "ABCF47FB-41DD-418D-ADD0-B1CD0215F61B";
name = Regular;
paths = (
{
closed = 1;
nodes = (
"657 0 LINE",
"1168 0 LINE",
"1168 1460 LINE",
"657 1460 LINE"
);
},
{
closed = 1;
nodes = (
"0 0 LINE",
"511 0 LINE",
"511 949 LINE",
"0 949 LINE"
);
},
{
closed = 1;
nodes = (
"730 949 LINE",
"1095 949 LINE",
"1095 73 LINE",
"730 73 LINE"
);
},
{
closed = 1;
nodes = (
"73 438 LINE",
"438 438 LINE",
"438 73 LINE",
"73 73 LINE"
);
}
);
width = 1168;
}
);
unicode = ECB3;
},
{
color = 4;
glyphname = uniECB4;
lastChange = "2013-12-20 21:00:46 +0000";
layers = (
{
layerId = "ABCF47FB-41DD-418D-ADD0-B1CD0215F61B";
name = Regular;
paths = (
{
closed = 1;
nodes = (
"0 0 LINE",
"511 0 LINE",
"511 1460 LINE",
"0 1460 LINE"
);
},
{
closed = 1;
nodes = (
"657 0 LINE",
"1168 0 LINE",
"1168 1460 LINE",
"657 1460 LINE"
);
},
{
closed = 1;
nodes = (
"730 949 LINE",
"1095 949 LINE",
"1095 73 LINE",
"730 73 LINE"
);
},
{
closed = 1;
nodes = (
"73 657 LINE",
"438 657 LINE",
"438 73 LINE",
"73 73 LINE"
);
}
);
width = 1168;
}
);
unicode = ECB4;
},
{
color = 4;
glyphname = uniECB5;
lastChange = "2013-10-23 18:03:53 +0000";
layers = (
{
layerId = "ABCF47FB-41DD-418D-ADD0-B1CD0215F61B";
name = Regular;
paths = (
{
closed = 1;
nodes = (
"259 1241 OFFCURVE",
"292 1274 OFFCURVE",
"292 1314 CURVE SMOOTH",
"292 1354 OFFCURVE",
"259 1387 OFFCURVE",
"219 1387 CURVE SMOOTH",
"179 1387 OFFCURVE",
"146 1354 OFFCURVE",
"146 1314 CURVE SMOOTH",
"146 1274 OFFCURVE",
"179 1241 OFFCURVE",
"219 1241 CURVE SMOOTH"
);
},
{
closed = 1;
nodes = (
"690 1387 OFFCURVE",
"657 1354 OFFCURVE",
"657 1314 CURVE SMOOTH",
"657 1274 OFFCURVE",
"690 1241 OFFCURVE",
"730 1241 CURVE SMOOTH",
"770 1241 OFFCURVE",
"803 1274 OFFCURVE",
"803 1314 CURVE SMOOTH",
"803 1354 OFFCURVE",
"770 1387 OFFCURVE",
"730 1387 CURVE SMOOTH"
);
},
{
closed = 1;
nodes = (
"1120 1387 OFFCURVE",
"1022 1289 OFFCURVE",
"1022 1168 CURVE SMOOTH",
"1022 1047 OFFCURVE",
"1120 949 OFFCURVE",
"1241 949 CURVE SMOOTH",
"1362 949 OFFCURVE",
"1460 1047 OFFCURVE",
"1460 1168 CURVE SMOOTH",
"1460 1289 OFFCURVE",
"1362 1387 OFFCURVE",
"1241 1387 CURVE SMOOTH"
);
},
{
closed = 1;
nodes = (
"259 949 OFFCURVE",
"292 982 OFFCURVE",
"292 1022 CURVE SMOOTH",
"292 1062 OFFCURVE",
"259 1095 OFFCURVE",
"219 1095 CURVE SMOOTH",
"179 1095 OFFCURVE",
"146 1062 OFFCURVE",
"146 1022 CURVE SMOOTH",
"146 982 OFFCURVE",
"179 949 OFFCURVE",
"219 949 CURVE SMOOTH"
);
},
{
closed = 1;
nodes = (
"690 1095 OFFCURVE",
"657 1062 OFFCURVE",
"657 1022 CURVE SMOOTH",
"657 982 OFFCURVE",
"690 949 OFFCURVE",
"730 949 CURVE SMOOTH",
"770 949 OFFCURVE",
"803 982 OFFCURVE",
"803 1022 CURVE SMOOTH",
"803 1062 OFFCURVE",
"770 1095 OFFCURVE",
"730 1095 CURVE SMOOTH"
);
},
{
closed = 1;
nodes = (
"236 801.451 OFFCURVE",
"227.664 803 OFFCURVE",
"219 803 CURVE SMOOTH",
"210.336 803 OFFCURVE",
"202 801.451 OFFCURVE",
"194.258 798.619 CURVE",
"84.9175 786.339 OFFCURVE",
"0 693.634 OFFCURVE",
"0 581 CURVE SMOOTH",
"0 460 OFFCURVE",
"98 362 OFFCURVE",
"219 362 CURVE SMOOTH",
"340 362 OFFCURVE",
"438 460 OFFCURVE",
"438 581 CURVE SMOOTH",
"438 693.634 OFFCURVE",
"353.083 786.339 OFFCURVE",
"243.743 798.619 CURVE"
);
},
{
closed = 1;
nodes = (
"690 803 OFFCURVE",
"657 770 OFFCURVE",
"657 730 CURVE SMOOTH",
"657 690 OFFCURVE",
"690 657 OFFCURVE",
"730 657 CURVE SMOOTH",
"770 657 OFFCURVE",
"803 690 OFFCURVE",
"803 730 CURVE SMOOTH",
"803 770 OFFCURVE",
"770 803 OFFCURVE",
"730 803 CURVE SMOOTH"
);
},
{
closed = 1;
nodes = (
"1201 803 OFFCURVE",
"1168 770 OFFCURVE",
"1168 730 CURVE SMOOTH",
"1168 690 OFFCURVE",
"1201 657 OFFCURVE",
"1241 657 CURVE SMOOTH",
"1281 657 OFFCURVE",
"1314 690 OFFCURVE",
"1314 730 CURVE SMOOTH",
"1314 770 OFFCURVE",
"1281 803 OFFCURVE",
"1241 803 CURVE SMOOTH"
);
},
{
closed = 1;
nodes = (
"690 511 OFFCURVE",
"657 478 OFFCURVE",
"657 438 CURVE SMOOTH",
"657 398 OFFCURVE",
"690 365 OFFCURVE",
"730 365 CURVE SMOOTH",
"770 365 OFFCURVE",
"803 398 OFFCURVE",
"803 438 CURVE SMOOTH",
"803 478 OFFCURVE",
"770 511 OFFCURVE",
"730 511 CURVE SMOOTH"
);
},
{
closed = 1;
nodes = (
"1201 511 OFFCURVE",
"1168 478 OFFCURVE",
"1168 438 CURVE SMOOTH",
"1168 398 OFFCURVE",
"1201 365 OFFCURVE",
"1241 365 CURVE SMOOTH",
"1281 365 OFFCURVE",
"1314 398 OFFCURVE",
"1314 438 CURVE SMOOTH",
"1314 478 OFFCURVE",
"1281 511 OFFCURVE",
"1241 511 CURVE SMOOTH"
);
},
{
closed = 1;
nodes = (
"179 219 OFFCURVE",
"146 186 OFFCURVE",
"146 146 CURVE SMOOTH",
"146 106 OFFCURVE",
"179 73 OFFCURVE",
"219 73 CURVE SMOOTH",
"259 73 OFFCURVE",
"292 106 OFFCURVE",
"292 146 CURVE SMOOTH",
"292 186 OFFCURVE",
"259 219 OFFCURVE",
"219 219 CURVE SMOOTH"
);
},
{
closed = 1;
nodes = (
"690 219 OFFCURVE",
"657 186 OFFCURVE",
"657 146 CURVE SMOOTH",
"657 106 OFFCURVE",
"690 73 OFFCURVE",
"730 73 CURVE SMOOTH",
"770 73 OFFCURVE",
"803 106 OFFCURVE",
"803 146 CURVE SMOOTH",
"803 186 OFFCURVE",
"770 219 OFFCURVE",
"730 219 CURVE SMOOTH"
);
},
{
closed = 1;
nodes = (
"1201 219 OFFCURVE",
"1168 186 OFFCURVE",
"1168 146 CURVE SMOOTH",
"1168 106 OFFCURVE",
"1201 73 OFFCURVE",
"1241 73 CURVE SMOOTH",
"1281 73 OFFCURVE",
"1314 106 OFFCURVE",
"1314 146 CURVE SMOOTH",
"1314 186 OFFCURVE",
"1281 219 OFFCURVE",
"1241 219 CURVE SMOOTH"
);
}
);
width = 1460;
}
);
unicode = ECB5;
},
{
color = 4;
glyphname = uniECB6;
lastChange = "2013-10-23 18:03:53 +0000";
layers = (
{
layerId = "ABCF47FB-41DD-418D-ADD0-B1CD0215F61B";
name = Regular;
paths = (
{
closed = 1;
nodes = (
"1120 1387 OFFCURVE",
"1022 1289 OFFCURVE",
"1022 1168 CURVE SMOOTH",
"1022 1115.01 OFFCURVE",
"1040.8 1066.42 OFFCURVE",
"1072.09 1028.55 CURVE",
"767.443 507.815 LINE",
"755.277 509.909 OFFCURVE",
"742.766 511 OFFCURVE",
"730 511 CURVE SMOOTH",
"701.265 511 OFFCURVE",
"673.827 505.473 OFFCURVE",
"648.691 495.424 CURVE",
"410.798 770.167 LINE",
"428.134 801.532 OFFCURVE",
"438 837.608 OFFCURVE",
"438 876 CURVE SMOOTH",
"438 997 OFFCURVE",
"340 1095 OFFCURVE",
"219 1095 CURVE SMOOTH",
"98 1095 OFFCURVE",
"0 997 OFFCURVE",
"0 876 CURVE SMOOTH",
"0 755 OFFCURVE",
"98 657 OFFCURVE",
"219 657 CURVE SMOOTH",
"248.47 657 OFFCURVE",
"276.575 662.813 OFFCURVE",
"302.232 673.356 CURVE",
"539.221 399.656 LINE",
"521.253 367.869 OFFCURVE",
"511 331.138 OFFCURVE",
"511 292 CURVE SMOOTH",
"511 171 OFFCURVE",
"609 73 OFFCURVE",
"730 73 CURVE SMOOTH",
"851 73 OFFCURVE",
"949 171 OFFCURVE",
"949 292 CURVE SMOOTH",
"949 347.438 OFFCURVE",
"928.428 398.049 OFFCURVE",
"894.497 436.617 CURVE",
"1196.86 953.445 LINE",
"1211.12 950.531 OFFCURVE",
"1225.88 949 OFFCURVE",
"1241 949 CURVE SMOOTH",
"1362 949 OFFCURVE",
"1460 1047 OFFCURVE",
"1460 1168 CURVE SMOOTH",
"1460 1289 OFFCURVE",
"1362 1387 OFFCURVE",
"1241 1387 CURVE SMOOTH"
);
},
{
closed = 1;
nodes = (
"259 1241 OFFCURVE",
"292 1274 OFFCURVE",
"292 1314 CURVE SMOOTH",
"292 1354 OFFCURVE",
"259 1387 OFFCURVE",
"219 1387 CURVE SMOOTH",
"179 1387 OFFCURVE",
"146 1354 OFFCURVE",
"146 1314 CURVE SMOOTH",
"146 1274 OFFCURVE",
"179 1241 OFFCURVE",
"219 1241 CURVE SMOOTH"
);
},
{
closed = 1;
nodes = (
"770 1241 OFFCURVE",
"803 1274 OFFCURVE",
"803 1314 CURVE SMOOTH",
"803 1354 OFFCURVE",
"770 1387 OFFCURVE",
"730 1387 CURVE SMOOTH",
"690 1387 OFFCURVE",
"657 1354 OFFCURVE",
"657 1314 CURVE SMOOTH",
"657 1274 OFFCURVE",
"690 1241 OFFCURVE",
"730 1241 CURVE SMOOTH"
);
},
{
closed = 1;
nodes = (
"770 949 OFFCURVE",
"803 982 OFFCURVE",
"803 1022 CURVE SMOOTH",
"803 1062 OFFCURVE",
"770 1095 OFFCURVE",
"730 1095 CURVE SMOOTH",
"690 1095 OFFCURVE",
"657 1062 OFFCURVE",
"657 1022 CURVE SMOOTH",
"657 982 OFFCURVE",
"690 949 OFFCURVE",
"730 949 CURVE SMOOTH"
);
},
{
closed = 1;
nodes = (
"770 657 OFFCURVE",
"803 690 OFFCURVE",
"803 730 CURVE SMOOTH",
"803 770 OFFCURVE",
"770 803 OFFCURVE",
"730 803 CURVE SMOOTH",
"690 803 OFFCURVE",
"657 770 OFFCURVE",
"657 730 CURVE SMOOTH",
"657 690 OFFCURVE",
"690 657 OFFCURVE",
"730 657 CURVE SMOOTH"
);
},
{
closed = 1;
nodes = (
"1201 803 OFFCURVE",
"1168 770 OFFCURVE",
"1168 730 CURVE SMOOTH",
"1168 690 OFFCURVE",
"1201 657 OFFCURVE",
"1241 657 CURVE SMOOTH",
"1281 657 OFFCURVE",
"1314 690 OFFCURVE",
"1314 730 CURVE SMOOTH",
"1314 770 OFFCURVE",
"1281 803 OFFCURVE",
"1241 803 CURVE SMOOTH"
);
},
{
closed = 1;
nodes = (
"179 511 OFFCURVE",
"146 478 OFFCURVE",
"146 438 CURVE SMOOTH",
"146 398 OFFCURVE",
"179 365 OFFCURVE",
"219 365 CURVE SMOOTH",
"259 365 OFFCURVE",
"292 398 OFFCURVE",
"292 438 CURVE SMOOTH",
"292 478 OFFCURVE",
"259 511 OFFCURVE",
"219 511 CURVE SMOOTH"
);
},
{
closed = 1;
nodes = (
"1201 511 OFFCURVE",
"1168 478 OFFCURVE",
"1168 438 CURVE SMOOTH",
"1168 398 OFFCURVE",
"1201 365 OFFCURVE",
"1241 365 CURVE SMOOTH",
"1281 365 OFFCURVE",
"1314 398 OFFCURVE",
"1314 438 CURVE SMOOTH",
"1314 478 OFFCURVE",
"1281 511 OFFCURVE",
"1241 511 CURVE SMOOTH"
);
},
{
closed = 1;
nodes = (
"179 219 OFFCURVE",
"146 186 OFFCURVE",
"146 146 CURVE SMOOTH",
"146 106 OFFCURVE",
"179 73 OFFCURVE",
"219 73 CURVE SMOOTH",
"259 73 OFFCURVE",
"292 106 OFFCURVE",
"292 146 CURVE SMOOTH",
"292 186 OFFCURVE",
"259 219 OFFCURVE",
"219 219 CURVE SMOOTH"
);
},
{
closed = 1;
nodes = (
"1201 219 OFFCURVE",
"1168 186 OFFCURVE",
"1168 146 CURVE SMOOTH",
"1168 106 OFFCURVE",
"1201 73 OFFCURVE",
"1241 73 CURVE SMOOTH",
"1281 73 OFFCURVE",
"1314 106 OFFCURVE",
"1314 146 CURVE SMOOTH",
"1314 186 OFFCURVE",
"1281 219 OFFCURVE",
"1241 219 CURVE SMOOTH"
);
}
);
width = 1460;
}
);
unicode = ECB6;
},
{
color = 4;
glyphname = uniECB7;
lastChange = "2013-10-23 18:03:53 +0000";
layers = (
{
layerId = "ABCF47FB-41DD-418D-ADD0-B1CD0215F61B";
name = Regular;
paths = (
{
closed = 1;
nodes = (
"1124.73 1387 OFFCURVE",
"1029.69 1296.5 OFFCURVE",
"1022.44 1182.07 CURVE",
"722.444 1094.6 LINE",
"713.719 1093.69 OFFCURVE",
"705.427 1091.2 OFFCURVE",
"697.859 1087.44 CURVE",
"399.295 1000.39 LINE",
"359.79 1057.56 OFFCURVE",
"293.789 1095 OFFCURVE",
"219 1095 CURVE SMOOTH",
"98 1095 OFFCURVE",
"0 997 OFFCURVE",
"0 876 CURVE SMOOTH",
"0 755 OFFCURVE",
"98 657 OFFCURVE",
"219 657 CURVE SMOOTH",
"334.536 657 OFFCURVE",
"429.102 746.348 OFFCURVE",
"437.408 859.753 CURVE",
"1061.57 1042.36 LINE",
"1101.18 985.894 OFFCURVE",
"1166.76 949 OFFCURVE",
"1241 949 CURVE SMOOTH",
"1362 949 OFFCURVE",
"1460 1047 OFFCURVE",
"1460 1168 CURVE SMOOTH",
"1460 1289 OFFCURVE",
"1362 1387 OFFCURVE",
"1241 1387 CURVE SMOOTH"
);
},
{
closed = 1;
nodes = (
"259 1241 OFFCURVE",
"292 1274 OFFCURVE",
"292 1314 CURVE SMOOTH",
"292 1354 OFFCURVE",
"259 1387 OFFCURVE",
"219.001 1387 CURVE SMOOTH",
"179.001 1387 OFFCURVE",
"146.001 1354 OFFCURVE",
"146.001 1314 CURVE SMOOTH",
"146.001 1274 OFFCURVE",
"179.001 1241 OFFCURVE",
"219.001 1241 CURVE SMOOTH"
);
},
{
closed = 1;
nodes = (
"770 1241 OFFCURVE",
"803 1274 OFFCURVE",
"803 1314 CURVE SMOOTH",
"803 1354 OFFCURVE",
"770 1387 OFFCURVE",
"730 1387 CURVE SMOOTH",
"690 1387 OFFCURVE",
"657 1354 OFFCURVE",
"657 1314 CURVE SMOOTH",
"657 1274 OFFCURVE",
"690 1241 OFFCURVE",
"730 1241 CURVE SMOOTH"
);
},
{
closed = 1;
nodes = (
"690 803 OFFCURVE",
"657 770 OFFCURVE",
"657 730 CURVE SMOOTH",
"657 690 OFFCURVE",
"690 657 OFFCURVE",
"730 657 CURVE SMOOTH",
"770 657 OFFCURVE",
"803 690 OFFCURVE",
"803 730 CURVE SMOOTH",
"803 770 OFFCURVE",
"770 803 OFFCURVE",
"730 803 CURVE SMOOTH"
);
},
{
closed = 1;
nodes = (
"1201 803 OFFCURVE",
"1168 770 OFFCURVE",
"1168 730 CURVE SMOOTH",
"1168 690 OFFCURVE",
"1201 657 OFFCURVE",
"1241 657 CURVE SMOOTH",
"1281 657 OFFCURVE",
"1314 690 OFFCURVE",
"1314 730 CURVE SMOOTH",
"1314 770 OFFCURVE",
"1281 803 OFFCURVE",
"1241 803 CURVE SMOOTH"
);
},
{
closed = 1;
nodes = (
"179.001 511 OFFCURVE",
"146.001 478 OFFCURVE",
"146.001 438 CURVE SMOOTH",
"146.001 398 OFFCURVE",
"179.001 365 OFFCURVE",
"219.001 365 CURVE SMOOTH",
"259 365 OFFCURVE",
"292 398 OFFCURVE",
"292 438 CURVE SMOOTH",
"292 478 OFFCURVE",
"259 511 OFFCURVE",
"219.001 511 CURVE SMOOTH"
);
},
{
closed = 1;
nodes = (
"690 511 OFFCURVE",
"657 478 OFFCURVE",
"657 438 CURVE SMOOTH",
"657 398 OFFCURVE",
"690 365 OFFCURVE",
"730 365 CURVE SMOOTH",
"770 365 OFFCURVE",
"803 398 OFFCURVE",
"803 438 CURVE SMOOTH",
"803 478 OFFCURVE",
"770 511 OFFCURVE",
"730 511 CURVE SMOOTH"
);
},
{
closed = 1;
nodes = (
"1201 511 OFFCURVE",
"1168 478 OFFCURVE",
"1168 438 CURVE SMOOTH",
"1168 398 OFFCURVE",
"1201 365 OFFCURVE",
"1241 365 CURVE SMOOTH",
"1281 365 OFFCURVE",
"1314 398 OFFCURVE",
"1314 438 CURVE SMOOTH",
"1314 478 OFFCURVE",
"1281 511 OFFCURVE",
"1241 511 CURVE SMOOTH"
);
},
{
closed = 1;
nodes = (
"179.001 219 OFFCURVE",
"146.001 186 OFFCURVE",
"146.001 146 CURVE SMOOTH",
"146.001 106 OFFCURVE",
"179.001 73 OFFCURVE",
"219.001 73 CURVE SMOOTH",
"259 73 OFFCURVE",
"292 106 OFFCURVE",
"292 146 CURVE SMOOTH",
"292 186 OFFCURVE",
"259 219 OFFCURVE",
"219.001 219 CURVE SMOOTH"
);
},
{
closed = 1;
nodes = (
"690 219 OFFCURVE",
"657 186 OFFCURVE",
"657 146 CURVE SMOOTH",
"657 106 OFFCURVE",
"690 73 OFFCURVE",
"730 73 CURVE SMOOTH",
"770 73 OFFCURVE",
"803 106 OFFCURVE",
"803 146 CURVE SMOOTH",
"803 186 OFFCURVE",
"770 219 OFFCURVE",
"730 219 CURVE SMOOTH"
);
},
{
closed = 1;
nodes = (
"1201 219 OFFCURVE",
"1168 186 OFFCURVE",
"1168 146 CURVE SMOOTH",
"1168 106 OFFCURVE",
"1201 73 OFFCURVE",
"1241 73 CURVE SMOOTH",
"1281 73 OFFCURVE",
"1314 106 OFFCURVE",
"1314 146 CURVE SMOOTH",
"1314 186 OFFCURVE",
"1281 219 OFFCURVE",
"1241 219 CURVE SMOOTH"
);
}
);
width = 1460;
}
);
unicode = ECB7;
},
{
color = 4;
glyphname = uniECB8;
lastChange = "2014-05-29 23:01:52 +0000";
layers = (
{
layerId = "ABCF47FB-41DD-418D-ADD0-B1CD0215F61B";
name = Regular;
paths = (
{
closed = 1;
nodes = (
"153 827 OFFCURVE",
"50 722 OFFCURVE",
"50 593 CURVE SMOOTH",
"50 465 OFFCURVE",
"153 362 OFFCURVE",
"281 362 CURVE SMOOTH",
"410 362 OFFCURVE",
"515 465 OFFCURVE",
"515 593 CURVE SMOOTH",
"515 722 OFFCURVE",
"410 827 OFFCURVE",
"281 827 CURVE SMOOTH"
);
},
{
closed = 1;
nodes = (
"348 245 OFFCURVE",
"293 190 OFFCURVE",
"293 122 CURVE SMOOTH",
"293 55 OFFCURVE",
"348 0 OFFCURVE",
"416 0 CURVE SMOOTH",
"484 0 OFFCURVE",
"539 55 OFFCURVE",
"539 122 CURVE SMOOTH",
"539 190 OFFCURVE",
"484 245 OFFCURVE",
"416 245 CURVE SMOOTH"
);
},
{
closed = 1;
nodes = (
"771 1460 OFFCURVE",
"563 1251 OFFCURVE",
"563 992 CURVE SMOOTH",
"563 737 OFFCURVE",
"771 529 OFFCURVE",
"1026 529 CURVE SMOOTH",
"1284 529 OFFCURVE",
"1492 737 OFFCURVE",
"1492 992 CURVE",
"1492 1251 OFFCURVE",
"1284 1460 OFFCURVE",
"1026 1460 CURVE SMOOTH"
);
}
);
width = 1542;
}
);
unicode = ECB8;
},
{
glyphname = uniECB9;
lastChange = "2015-04-28 23:05:21 +0000";
layers = (
{
layerId = "ABCF47FB-41DD-418D-ADD0-B1CD0215F61B";
name = Regular;
paths = (
{
closed = 1;
nodes = (
"1194 664 LINE",
"796 1062 LINE",
"929 1062 LINE",
"929 1195 LINE",
"796 1195 LINE",
"796 1327 LINE",
"929 1327 LINE",
"929 1460 LINE",
"0 1460 LINE",
"0 0 LINE",
"1194 0 LINE",
"1194 133 LINE",
"1327 133 LINE",
"1327 265 LINE",
"1194 265 LINE",
"1194 398 LINE",
"1327 398 LINE",
"1327 531 LINE",
"1194 531 LINE"
);
},
{
closed = 1;
nodes = (
"1194 1460 LINE",
"1062 1460 LINE",
"1062 1327 LINE",
"1194 1327 LINE"
);
},
{
closed = 1;
nodes = (
"1460 1460 LINE",
"1327 1460 LINE",
"1327 1327 LINE",
"1460 1327 LINE"
);
},
{
closed = 1;
nodes = (
"1062 1195 LINE",
"1062 1327 LINE",
"929 1327 LINE",
"929 1195 LINE"
);
},
{
closed = 1;
nodes = (
"1194 1327 LINE",
"1194 1195 LINE",
"1327 1195 LINE",
"1327 1327 LINE"
);
},
{
closed = 1;
nodes = (
"1062 1062 LINE",
"1194 1062 LINE",
"1194 1195 LINE",
"1062 1195 LINE"
);
},
{
closed = 1;
nodes = (
"1460 1062 LINE",
"1460 1195 LINE",
"1327 1195 LINE",
"1327 1062 LINE"
);
},
{
closed = 1;
nodes = (
"1062 1062 LINE",
"929 1062 LINE",
"929 929 LINE",
"1062 929 LINE"
);
},
{
closed = 1;
nodes = (
"1194 929 LINE",
"1327 929 LINE",
"1327 1062 LINE",
"1194 1062 LINE"
);
},
{
closed = 1;
nodes = (
"1062 796 LINE",
"1194 796 LINE",
"1194 929 LINE",
"1062 929 LINE"
);
},
{
closed = 1;
nodes = (
"1460 796 LINE",
"1460 929 LINE",
"1327 929 LINE",
"1327 796 LINE"
);
},
{
closed = 1;
nodes = (
"1194 664 LINE",
"1327 664 LINE",
"1327 796 LINE",
"1194 796 LINE"
);
},
{
closed = 1;
nodes = (
"1460 531 LINE",
"1460 664 LINE",
"1327 664 LINE",
"1327 531 LINE"
);
},
{
closed = 1;
nodes = (
"1460 265 LINE",
"1460 398 LINE",
"1327 398 LINE",
"1327 265 LINE"
);
},
{
closed = 1;
nodes = (
"1460 0 LINE",
"1460 133 LINE",
"1327 133 LINE",
"1327 0 LINE"
);
}
);
width = 1460;
}
);
unicode = ECB9;
},
{
color = 4;
glyphname = uniECC0;
lastChange = "2013-10-23 18:03:53 +0000";
layers = (
{
layerId = "ABCF47FB-41DD-418D-ADD0-B1CD0215F61B";
name = Regular;
paths = (
{
closed = 1;
nodes = (
"1095 292 OFFCURVE",
"1460 511 OFFCURVE",
"1460 728 CURVE SMOOTH",
"1460 949 OFFCURVE",
"1095 1168 OFFCURVE",
"730 1168 CURVE SMOOTH",
"365 1168 OFFCURVE",
"0 949 OFFCURVE",
"0 728 CURVE SMOOTH",
"0 511 OFFCURVE",
"365 292 OFFCURVE",
"730 292 CURVE SMOOTH"
);
},
{
closed = 1;
nodes = (
"532 362 OFFCURVE",
"368 526 OFFCURVE",
"368 726 CURVE SMOOTH",
"368 928 OFFCURVE",
"532 1092 OFFCURVE",
"733 1092 CURVE SMOOTH",
"934 1092 OFFCURVE",
"1098 928 OFFCURVE",
"1098 726 CURVE SMOOTH",
"1098 526 OFFCURVE",
"934 362 OFFCURVE",
"733 362 CURVE SMOOTH"
);
},
{
closed = 1;
nodes = (
"835 545 OFFCURVE",
"915 626 OFFCURVE",
"915 726 CURVE SMOOTH",
"915 787 OFFCURVE",
"800 692 OFFCURVE",
"756 724 CURVE SMOOTH",
"725 747 OFFCURVE",
"774 909 OFFCURVE",
"733 909 CURVE SMOOTH",
"633 909 OFFCURVE",
"550 828 OFFCURVE",
"550 726 CURVE SMOOTH",
"550 626 OFFCURVE",
"633 545 OFFCURVE",
"733 545 CURVE SMOOTH"
);
}
);
width = 1460;
}
);
unicode = ECC0;
},
{
color = 4;
glyphname = uniECC1;
lastChange = "2013-10-23 18:03:53 +0000";
layers = (
{
layerId = "ABCF47FB-41DD-418D-ADD0-B1CD0215F61B";
name = Regular;
paths = (
{
closed = 1;
nodes = (
"1151 1394 LINE",
"1022 1460 LINE",
"866.56 1158.06 LINE",
"821.7 1164.03 OFFCURVE",
"775.85 1168 OFFCURVE",
"730 1168 CURVE SMOOTH",
"365 1168 OFFCURVE",
"0 949 OFFCURVE",
"0 728 CURVE SMOOTH",
"0 569.028 OFFCURVE",
"194.931 409.057 OFFCURVE",
"442.869 335.039 CURVE",
"309 75 LINE",
"438 9 LINE"
);
},
{
closed = 1;
nodes = (
"737.878 908.095 LINE",
"736.415 908.689 OFFCURVE",
"734.794 909 OFFCURVE",
"733 909 CURVE SMOOTH",
"633 909 OFFCURVE",
"550 828 OFFCURVE",
"550 726 CURVE SMOOTH",
"550 684.556 OFFCURVE",
"564.274 646.813 OFFCURVE",
"587.824 616.614 CURVE",
"499.994 446.005 LINE",
"419.997 513.005 OFFCURVE",
"368 614.003 OFFCURVE",
"368 726 CURVE SMOOTH",
"368 928 OFFCURVE",
"532 1092 OFFCURVE",
"733 1092 CURVE SMOOTH",
"764.805 1092 OFFCURVE",
"796.609 1088.05 OFFCURVE",
"826.45 1080.15 CURVE"
);
},
{
closed = 1;
nodes = (
"727 292 LINE",
"1095 292.002 OFFCURVE",
"1460 511.002 OFFCURVE",
"1460 728.002 CURVE SMOOTH",
"1460 863.063 OFFCURVE",
"1323.08 997.269 OFFCURVE",
"1133.94 1081.53 CURVE",
"1047 913 LINE",
"1079 858 OFFCURVE",
"1098 794 OFFCURVE",
"1098 726 CURVE SMOOTH",
"1098 536 OFFCURVE",
"951 379 OFFCURVE",
"764 363 CURVE"
);
}
);
width = 1460;
}
);
unicode = ECC1;
},
{
color = 4;
glyphname = uniECC2;
lastChange = "2013-12-20 21:21:17 +0000";
layers = (
{
layerId = "ABCF47FB-41DD-418D-ADD0-B1CD0215F61B";
name = Regular;
paths = (
{
closed = 1;
nodes = (
"1100.31 533.822 LINE",
"1168.1 631.396 OFFCURVE",
"1208 749.459 OFFCURVE",
"1208 876 CURVE SMOOTH",
"1208 1207 OFFCURVE",
"935 1480 OFFCURVE",
"604 1480 CURVE SMOOTH",
"273 1480 OFFCURVE",
"0 1207 OFFCURVE",
"0 876 CURVE SMOOTH",
"0 545 OFFCURVE",
"273 272 OFFCURVE",
"604 272 CURVE SMOOTH",
"730.065 272 OFFCURVE",
"847.717 311.6 OFFCURVE",
"945.078 378.922 CURVE",
"1301 23 LINE SMOOTH",
"1331 -7 OFFCURVE",
"1375 -7 OFFCURVE",
"1405 23 CURVE SMOOTH",
"1456 74 LINE SMOOTH",
"1486 104 OFFCURVE",
"1486 148 OFFCURVE",
"1457 178 CURVE SMOOTH"
);
},
{
closed = 1;
nodes = (
"129 1135 OFFCURVE",
"345 1351 OFFCURVE",
"604 1351 CURVE SMOOTH",
"840 1351 OFFCURVE",
"1079 1112 OFFCURVE",
"1079 876 CURVE SMOOTH",
"1079 640 OFFCURVE",
"840 401 OFFCURVE",
"604 401 CURVE SMOOTH",
"345 401 OFFCURVE",
"129 617 OFFCURVE",
"129 876 CURVE SMOOTH"
);
}
);
width = 1479;
}
);
unicode = ECC2;
},
{
color = 4;
glyphname = uniECC4;
lastChange = "2013-10-23 18:03:53 +0000";
layers = (
{
components = (
{
name = Document;
transform = "{1, 0, 0, 1, 0, 0}";
}
);
layerId = "ABCF47FB-41DD-418D-ADD0-B1CD0215F61B";
name = Regular;
paths = (
{
closed = 1;
nodes = (
"799.189 490.609 LINE",
"846.787 542.658 OFFCURVE",
"876 611.731 OFFCURVE",
"876 687 CURVE SMOOTH",
"876 847 OFFCURVE",
"744 979 OFFCURVE",
"584 979 CURVE SMOOTH",
"424 979 OFFCURVE",
"292 847 OFFCURVE",
"292 687 CURVE SMOOTH",
"292 527 OFFCURVE",
"424 395 OFFCURVE",
"584 395 CURVE SMOOTH",
"634.139 395 OFFCURVE",
"681.528 407.963 OFFCURVE",
"722.967 430.687 CURVE",
"844 272 LINE SMOOTH",
"862 248 OFFCURVE",
"892 246 OFFCURVE",
"913 263 CURVE SMOOTH",
"935 280 OFFCURVE",
"938 308 OFFCURVE",
"921 330 CURVE SMOOTH"
);
},
{
closed = 1;
nodes = (
"390 795 OFFCURVE",
"477 883 OFFCURVE",
"584 883 CURVE SMOOTH",
"691 883 OFFCURVE",
"780 795 OFFCURVE",
"780 689 CURVE SMOOTH",
"780 582 OFFCURVE",
"691 494 OFFCURVE",
"584 494 CURVE SMOOTH",
"477 494 OFFCURVE",
"390 582 OFFCURVE",
"390 689 CURVE SMOOTH"
);
}
);
width = 1241;
}
);
unicode = ECC4;
},
{
color = 4;
glyphname = uniECC5;
lastChange = "2013-10-23 18:03:53 +0000";
layers = (
{
components = (
{
name = Document;
transform = "{1, 0, 0, 1, 0, 0}";
}
);
layerId = "ABCF47FB-41DD-418D-ADD0-B1CD0215F61B";
name = Regular;
paths = (
{
closed = 1;
nodes = (
"617 452 LINE",
"425 452 LINE",
"425 738 LINE",
"570 738 LINE",
"381 932 LINE",
"187 738 LINE",
"329 738 LINE",
"329 356 LINE",
"713 356 LINE"
);
},
{
closed = 1;
nodes = (
"521 932 LINE",
"617 833 LINE",
"810 833 LINE",
"810 548 LINE",
"662 548 LINE",
"860 356 LINE",
"1053 548 LINE",
"906 548 LINE",
"906 932 LINE"
);
}
);
width = 1241;
}
);
unicode = ECC5;
},
{
color = 4;
glyphname = uniECC6;
lastChange = "2013-10-23 18:03:53 +0000";
layers = (
{
components = (
{
name = Panel;
transform = "{1, 0, 0, 1, 0, 0}";
}
);
layerId = "ABCF47FB-41DD-418D-ADD0-B1CD0215F61B";
name = Regular;
paths = (
{
closed = 1;
nodes = (
"438 1095 LINE",
"438 146 LINE",
"511 146 LINE",
"511 1095 LINE"
);
}
);
width = 1460;
}
);
unicode = ECC6;
},
{
color = 4;
glyphname = uniECC8;
lastChange = "2013-10-23 18:03:53 +0000";
layers = (
{
components = (
{
name = Panel;
transform = "{1, 0, 0, 1, 0, 0}";
}
);
layerId = "ABCF47FB-41DD-418D-ADD0-B1CD0215F61B";
name = Regular;
paths = (
{
closed = 1;
nodes = (
"914.189 490.609 LINE",
"961.787 542.658 OFFCURVE",
"991 611.731 OFFCURVE",
"991 687 CURVE SMOOTH",
"991 847 OFFCURVE",
"859 979 OFFCURVE",
"699 979 CURVE SMOOTH",
"539 979 OFFCURVE",
"407 847 OFFCURVE",
"407 687 CURVE SMOOTH",
"407 527 OFFCURVE",
"539 395 OFFCURVE",
"699 395 CURVE SMOOTH",
"749.139 395 OFFCURVE",
"796.528 407.963 OFFCURVE",
"837.967 430.687 CURVE",
"959 272 LINE SMOOTH",
"977 248 OFFCURVE",
"1007 246 OFFCURVE",
"1028 263 CURVE SMOOTH",
"1050 280 OFFCURVE",
"1053 308 OFFCURVE",
"1036 330 CURVE SMOOTH"
);
},
{
closed = 1;
nodes = (
"505 795 OFFCURVE",
"592 883 OFFCURVE",
"699 883 CURVE SMOOTH",
"806 883 OFFCURVE",
"895 795 OFFCURVE",
"895 689 CURVE SMOOTH",
"895 582 OFFCURVE",
"806 494 OFFCURVE",
"699 494 CURVE SMOOTH",
"592 494 OFFCURVE",
"505 582 OFFCURVE",
"505 689 CURVE SMOOTH"
);
}
);
width = 1460;
}
);
unicode = ECC8;
},
{
color = 4;
glyphname = uniECC9;
lastChange = "2013-10-23 18:03:53 +0000";
layers = (
{
components = (
{
name = Panel;
transform = "{1, 0, 0, 1, 0, 0}";
}
);
layerId = "ABCF47FB-41DD-418D-ADD0-B1CD0215F61B";
name = Regular;
paths = (
{
closed = 1;
nodes = (
"725 426 LINE",
"533 426 LINE",
"533 712 LINE",
"678 712 LINE",
"489 906 LINE",
"295 712 LINE",
"437 712 LINE",
"437 330 LINE",
"821 330 LINE"
);
},
{
closed = 1;
nodes = (
"629 906 LINE",
"725 807 LINE",
"918 807 LINE",
"918 522 LINE",
"770 522 LINE",
"968 330 LINE",
"1161 522 LINE",
"1014 522 LINE",
"1014 906 LINE"
);
}
);
width = 1460;
}
);
unicode = ECC9;
},
{
color = 4;
glyphname = uniECCA;
lastChange = "2013-10-23 18:03:53 +0000";
layers = (
{
guideLines = (
{
angle = 45;
position = "{20, -93}";
}
);
layerId = "ABCF47FB-41DD-418D-ADD0-B1CD0215F61B";
name = Regular;
paths = (
{
closed = 1;
nodes = (
"1451 1267 LINE",
"1469 1282 OFFCURVE",
"1473 1300 OFFCURVE",
"1473 1319 CURVE",
"1472 1338 OFFCURVE",
"1469 1357 OFFCURVE",
"1451 1373 CURVE",
"1402 1420 LINE",
"1388 1439 OFFCURVE",
"1368 1446 OFFCURVE",
"1350 1445 CURVE",
"1330 1446 OFFCURVE",
"1313 1439 OFFCURVE",
"1296 1420 CURVE",
"619 858 LINE SMOOTH",
"551 802 OFFCURVE",
"487 688 OFFCURVE",
"477 628 CURVE",
"549 628 OFFCURVE",
"664 516 OFFCURVE",
"667 437 CURVE",
"726 453 OFFCURVE",
"837 514 OFFCURVE",
"894 583 CURVE SMOOTH"
);
},
{
closed = 1;
nodes = (
"462 57 OFFCURVE",
"584 175 OFFCURVE",
"584 292 CURVE SMOOTH",
"584 422 OFFCURVE",
"494 511 OFFCURVE",
"365 511 CURVE SMOOTH",
"211 511 OFFCURVE",
"166 393 OFFCURVE",
"146 292 CURVE SMOOTH",
"112 117 OFFCURVE",
"0 140 OFFCURVE",
"0 32 CURVE SMOOTH",
"0 3 OFFCURVE",
"48 0 OFFCURVE",
"73 0 CURVE SMOOTH",
"134 0 OFFCURVE",
"262 -1 OFFCURVE",
"365 29 CURVE SMOOTH"
);
}
);
width = 1473;
}
);
unicode = ECCA;
},
{
color = 4;
glyphname = uniECD0;
lastChange = "2013-12-20 17:51:24 +0000";
layers = (
{
layerId = "ABCF47FB-41DD-418D-ADD0-B1CD0215F61B";
name = Regular;
paths = (
{
closed = 1;
nodes = (
"955 1480 OFFCURVE",
"1145 1399 OFFCURVE",
"1282 1262 CURVE SMOOTH",
"1414 1125 OFFCURVE",
"1500 935 OFFCURVE",
"1500 730 CURVE SMOOTH",
"1500 525 OFFCURVE",
"1414 335 OFFCURVE",
"1282 198 CURVE SMOOTH",
"1145 61 OFFCURVE",
"955 -20 OFFCURVE",
"750 -20 CURVE SMOOTH",
"545 -20 OFFCURVE",
"355 61 OFFCURVE",
"218 198 CURVE SMOOTH",
"81 335 OFFCURVE",
"0 525 OFFCURVE",
"0 730 CURVE SMOOTH",
"0 935 OFFCURVE",
"81 1125 OFFCURVE",
"218 1262 CURVE SMOOTH",
"355 1399 OFFCURVE",
"545 1480 OFFCURVE",
"750 1480 CURVE SMOOTH"
);
},
{
closed = 1;
nodes = (
"595 1296 OFFCURVE",
"453 1235 OFFCURVE",
"349 1131 CURVE SMOOTH",
"245 1027 OFFCURVE",
"184 885 OFFCURVE",
"184 730 CURVE SMOOTH",
"184 575 OFFCURVE",
"245 433 OFFCURVE",
"349 329 CURVE SMOOTH",
"453 225 OFFCURVE",
"595 164 OFFCURVE",
"750 164 CURVE SMOOTH",
"905 164 OFFCURVE",
"1047 225 OFFCURVE",
"1151 329 CURVE SMOOTH",
"1251 433 OFFCURVE",
"1316 575 OFFCURVE",
"1316 730 CURVE SMOOTH",
"1316 885 OFFCURVE",
"1251 1027 OFFCURVE",
"1151 1131 CURVE SMOOTH",
"1047 1235 OFFCURVE",
"905 1296 OFFCURVE",
"750 1296 CURVE SMOOTH"
);
}
);
width = 1500;
}
);
unicode = ECD0;
},
{
color = 4;
glyphname = uniECD1;
lastChange = "2013-12-20 17:53:04 +0000";
layers = (
{
layerId = "ABCF47FB-41DD-418D-ADD0-B1CD0215F61B";
name = Regular;
paths = (
{
closed = 1;
nodes = (
"955 1480 OFFCURVE",
"1145 1399 OFFCURVE",
"1282 1262 CURVE SMOOTH",
"1414 1125 OFFCURVE",
"1500 935 OFFCURVE",
"1500 730 CURVE SMOOTH",
"1500 525 OFFCURVE",
"1414 335 OFFCURVE",
"1282 198 CURVE SMOOTH",
"1145 61 OFFCURVE",
"955 -20 OFFCURVE",
"750 -20 CURVE SMOOTH",
"545 -20 OFFCURVE",
"355 61 OFFCURVE",
"218 198 CURVE SMOOTH",
"81 335 OFFCURVE",
"0 525 OFFCURVE",
"0 730 CURVE SMOOTH",
"0 935 OFFCURVE",
"81 1125 OFFCURVE",
"218 1262 CURVE SMOOTH",
"355 1399 OFFCURVE",
"545 1480 OFFCURVE",
"750 1480 CURVE SMOOTH"
);
},
{
closed = 1;
nodes = (
"595 1296 OFFCURVE",
"453 1235 OFFCURVE",
"349 1130 CURVE",
"245 1027 OFFCURVE",
"184 884 OFFCURVE",
"184 730 CURVE SMOOTH",
"1316 730 LINE SMOOTH",
"1316 884 OFFCURVE",
"1251 1027 OFFCURVE",
"1151 1130 CURVE",
"1047 1235 OFFCURVE",
"905 1296 OFFCURVE",
"750 1296 CURVE"
);
}
);
width = 1500;
}
);
unicode = ECD1;
},
{
color = 4;
glyphname = uniECD2;
lastChange = "2013-12-20 17:51:46 +0000";
layers = (
{
layerId = "ABCF47FB-41DD-418D-ADD0-B1CD0215F61B";
name = Regular;
paths = (
{
closed = 1;
nodes = (
"955 1480 OFFCURVE",
"1145 1399 OFFCURVE",
"1282 1262 CURVE SMOOTH",
"1414 1125 OFFCURVE",
"1500 935 OFFCURVE",
"1500 730 CURVE SMOOTH",
"1500 525 OFFCURVE",
"1414 335 OFFCURVE",
"1282 198 CURVE SMOOTH",
"1145 61 OFFCURVE",
"955 -20 OFFCURVE",
"750 -20 CURVE SMOOTH",
"545 -20 OFFCURVE",
"355 61 OFFCURVE",
"218 198 CURVE SMOOTH",
"81 335 OFFCURVE",
"0 525 OFFCURVE",
"0 730 CURVE SMOOTH",
"0 935 OFFCURVE",
"81 1125 OFFCURVE",
"218 1262 CURVE SMOOTH",
"355 1399 OFFCURVE",
"545 1480 OFFCURVE",
"750 1480 CURVE SMOOTH"
);
},
{
closed = 1;
nodes = (
"595 1296 OFFCURVE",
"453 1235 OFFCURVE",
"349 1131 CURVE SMOOTH",
"245 1027 OFFCURVE",
"184 885 OFFCURVE",
"184 730 CURVE SMOOTH",
"184 575 OFFCURVE",
"245 433 OFFCURVE",
"349 329 CURVE SMOOTH",
"453 225 OFFCURVE",
"595 164 OFFCURVE",
"750 164 CURVE SMOOTH",
"905 164 OFFCURVE",
"1047 225 OFFCURVE",
"1151 329 CURVE SMOOTH",
"1251 433 OFFCURVE",
"1316 575 OFFCURVE",
"1316 730 CURVE SMOOTH",
"1316 885 OFFCURVE",
"1251 1027 OFFCURVE",
"1151 1131 CURVE SMOOTH",
"1047 1235 OFFCURVE",
"905 1296 OFFCURVE",
"750 1296 CURVE SMOOTH"
);
},
{
closed = 1;
nodes = (
"953 362 OFFCURVE",
"1118 527 OFFCURVE",
"1118 730 CURVE SMOOTH",
"1118 933 OFFCURVE",
"953 1098 OFFCURVE",
"750 1098 CURVE SMOOTH",
"547 1098 OFFCURVE",
"382 933 OFFCURVE",
"382 730 CURVE SMOOTH",
"382 527 OFFCURVE",
"547 362 OFFCURVE",
"750 362 CURVE SMOOTH"
);
}
);
width = 1500;
}
);
unicode = ECD2;
},
{
color = 4;
glyphname = uniECD3;
lastChange = "2013-10-23 18:03:53 +0000";
layers = (
{
layerId = "ABCF47FB-41DD-418D-ADD0-B1CD0215F61B";
name = Regular;
paths = (
{
closed = 1;
nodes = (
"540 1480 OFFCURVE",
"357 1398 OFFCURVE",
"221 1262 CURVE SMOOTH",
"86 1127 OFFCURVE",
"0 933 OFFCURVE",
"0 730 CURVE SMOOTH",
"0 520 OFFCURVE",
"86 337 OFFCURVE",
"221 201 CURVE SMOOTH",
"357 66 OFFCURVE",
"540 -20 OFFCURVE",
"750 -20 CURVE SMOOTH",
"953 -20 OFFCURVE",
"1147 66 OFFCURVE",
"1282 201 CURVE SMOOTH",
"1418 337 OFFCURVE",
"1500 520 OFFCURVE",
"1500 730 CURVE SMOOTH",
"1500 933 OFFCURVE",
"1418 1127 OFFCURVE",
"1282 1262 CURVE SMOOTH",
"1147 1398 OFFCURVE",
"953 1480 OFFCURVE",
"750 1480 CURVE SMOOTH"
);
},
{
closed = 1;
nodes = (
"1005 1060 LINE SMOOTH",
"1050 1125 OFFCURVE",
"1126 1138 OFFCURVE",
"1188 1095 CURVE SMOOTH",
"1251 1051 OFFCURVE",
"1265 975 OFFCURVE",
"1220 910 CURVE SMOOTH",
"752 235 LINE SMOOTH",
"725 196 OFFCURVE",
"687 176 OFFCURVE",
"647 175 CURVE",
"610 172 OFFCURVE",
"571 187 OFFCURVE",
"541 217 CURVE SMOOTH",
"241 518 LINE SMOOTH",
"186 573 OFFCURVE",
"185 651 OFFCURVE",
"239 705 CURVE SMOOTH",
"293 759 OFFCURVE",
"372 758 OFFCURVE",
"426 703 CURVE SMOOTH",
"622 505 LINE"
);
}
);
width = 1500;
}
);
unicode = ECD3;
},
{
color = 4;
glyphname = uniECD4;
lastChange = "2013-10-23 18:03:53 +0000";
layers = (
{
layerId = "ABCF47FB-41DD-418D-ADD0-B1CD0215F61B";
name = Regular;
paths = (
{
closed = 1;
nodes = (
"540 1480 OFFCURVE",
"357 1398 OFFCURVE",
"221 1262 CURVE SMOOTH",
"86 1127 OFFCURVE",
"0 933 OFFCURVE",
"0 730 CURVE SMOOTH",
"0 520 OFFCURVE",
"86 337 OFFCURVE",
"221 201 CURVE SMOOTH",
"357 66 OFFCURVE",
"540 -20 OFFCURVE",
"750 -20 CURVE SMOOTH",
"953 -20 OFFCURVE",
"1147 66 OFFCURVE",
"1282 201 CURVE SMOOTH",
"1418 337 OFFCURVE",
"1500 520 OFFCURVE",
"1500 730 CURVE SMOOTH",
"1500 933 OFFCURVE",
"1418 1127 OFFCURVE",
"1282 1262 CURVE SMOOTH",
"1147 1398 OFFCURVE",
"953 1480 OFFCURVE",
"750 1480 CURVE SMOOTH"
);
},
{
closed = 1;
nodes = (
"823 1241 LINE SMOOTH",
"896 1241 OFFCURVE",
"947 1186 OFFCURVE",
"936 1114 CURVE SMOOTH",
"851 571 LINE SMOOTH",
"845 535 OFFCURVE",
"817 511 OFFCURVE",
"780 511 CURVE SMOOTH",
"715 511 LINE SMOOTH",
"678 511 OFFCURVE",
"650 535 OFFCURVE",
"644 571 CURVE SMOOTH",
"563 1114 LINE SMOOTH",
"552 1186 OFFCURVE",
"603 1241 OFFCURVE",
"677 1241 CURVE SMOOTH"
);
},
{
closed = 1;
nodes = (
"690 181 OFFCURVE",
"641 230 OFFCURVE",
"641 291 CURVE SMOOTH",
"641 351 OFFCURVE",
"690 400 OFFCURVE",
"750 400 CURVE SMOOTH",
"810 400 OFFCURVE",
"860 353 OFFCURVE",
"860 291 CURVE SMOOTH",
"860 230 OFFCURVE",
"810 181 OFFCURVE",
"750 181 CURVE SMOOTH"
);
}
);
width = 1500;
}
);
unicode = ECD4;
},
{
color = 4;
glyphname = uniECD5;
lastChange = "2013-10-23 18:03:53 +0000";
layers = (
{
layerId = "ABCF47FB-41DD-418D-ADD0-B1CD0215F61B";
name = Regular;
paths = (
{
closed = 1;
nodes = (
"478 1460 LINE SMOOTH",
"453 1460 OFFCURVE",
"431 1447 OFFCURVE",
"420 1424 CURVE SMOOTH",
"365 1315 LINE",
"74 1315 LINE SMOOTH",
"31 1315 OFFCURVE",
"0 1284 OFFCURVE",
"0 1241 CURVE SMOOTH",
"0 74 LINE SMOOTH",
"0 31 OFFCURVE",
"31 0 OFFCURVE",
"74 0 CURVE SMOOTH",
"1167 0 LINE SMOOTH",
"1210 0 OFFCURVE",
"1241 31 OFFCURVE",
"1241 74 CURVE SMOOTH",
"1241 1241 LINE SMOOTH",
"1241 1284 OFFCURVE",
"1210 1315 OFFCURVE",
"1167 1315 CURVE SMOOTH",
"873 1315 LINE",
"818 1424 LINE SMOOTH",
"807 1447 OFFCURVE",
"785 1460 OFFCURVE",
"760 1460 CURVE SMOOTH"
);
},
{
closed = 1;
nodes = (
"1022 1168 LINE",
"1022 949 LINE",
"219 949 LINE",
"219 1168 LINE"
);
}
);
width = 1241;
}
);
unicode = ECD5;
},
{
color = 4;
glyphname = uniECD6;
lastChange = "2013-10-23 18:03:53 +0000";
layers = (
{
guideLines = (
{
angle = 90;
position = "{1459, 1600}";
}
);
layerId = "ABCF47FB-41DD-418D-ADD0-B1CD0215F61B";
name = Regular;
paths = (
{
closed = 1;
nodes = (
"512 227 LINE SMOOTH",
"500 178 OFFCURVE",
"524 148 OFFCURVE",
"575 148 CURVE SMOOTH",
"593 148 LINE SMOOTH",
"636 148 OFFCURVE",
"662 169 OFFCURVE",
"672 211 CURVE SMOOTH",
"944 1307 LINE SMOOTH",
"956 1357 OFFCURVE",
"932 1387 OFFCURVE",
"881 1387 CURVE SMOOTH",
"862 1387 LINE SMOOTH",
"819 1387 OFFCURVE",
"794 1366 OFFCURVE",
"784 1324 CURVE SMOOTH"
);
},
{
closed = 1;
nodes = (
"27 781 LINE SMOOTH",
"-6 748 OFFCURVE",
"-6 717 OFFCURVE",
"27 683 CURVE SMOOTH",
"319 391 LINE SMOOTH",
"364 347 OFFCURVE",
"407 364 OFFCURVE",
"407 428 CURVE SMOOTH",
"407 467 LINE SMOOTH",
"407 504 OFFCURVE",
"396 529 OFFCURVE",
"371 555 CURVE SMOOTH",
"242 683 LINE SMOOTH",
"208 716 OFFCURVE",
"209 748 OFFCURVE",
"242 781 CURVE SMOOTH",
"371 908 LINE",
"396 935 OFFCURVE",
"407 960 OFFCURVE",
"407 998 CURVE SMOOTH",
"407 1050 LINE SMOOTH",
"407 1107 OFFCURVE",
"365 1115 OFFCURVE",
"319 1070 CURVE SMOOTH"
);
},
{
closed = 1;
nodes = (
"1132 1071 LINE SMOOTH",
"1087 1116 OFFCURVE",
"1044 1099 OFFCURVE",
"1044 1035 CURVE SMOOTH",
"1044 998 LINE SMOOTH",
"1044 960 OFFCURVE",
"1055 935 OFFCURVE",
"1081 909 CURVE SMOOTH",
"1206 783 LINE SMOOTH",
"1240 750 OFFCURVE",
"1240 715 OFFCURVE",
"1206 683 CURVE SMOOTH",
"1079 555 LINE SMOOTH",
"1052 529 OFFCURVE",
"1041 504 OFFCURVE",
"1042 468 CURVE SMOOTH",
"1043 413 LINE SMOOTH",
"1043 357 OFFCURVE",
"1086 348 OFFCURVE",
"1131 392 CURVE SMOOTH",
"1420 682 LINE SMOOTH",
"1454 715 OFFCURVE",
"1454 750 OFFCURVE",
"1420 783 CURVE SMOOTH"
);
}
);
width = 1460;
}
);
unicode = ECD6;
},
{
color = 4;
glyphname = uniECD7;
lastChange = "2014-01-30 17:22:55 +0000";
layers = (
{
guideLines = (
{
angle = 90;
position = "{1459, 1600}";
}
);
layerId = "ABCF47FB-41DD-418D-ADD0-B1CD0215F61B";
name = Regular;
paths = (
{
closed = 1;
nodes = (
"763.84 1368 LINE",
"496.54 0 LINE",
"685.379 0 LINE",
"952.678 1368 LINE"
);
},
{
closed = 1;
nodes = (
"1029 868 LINE SMOOTH",
"1029 857 OFFCURVE",
"1033 848 OFFCURVE",
"1040 841 CURVE SMOOTH",
"1211 665 LINE SMOOTH",
"1214 663 OFFCURVE",
"1215 660 OFFCURVE",
"1215 657 CURVE SMOOTH",
"1215 654 OFFCURVE",
"1214 651 OFFCURVE",
"1211 649 CURVE SMOOTH",
"1040 473 LINE SMOOTH",
"1033 466 OFFCURVE",
"1029 457 OFFCURVE",
"1029 446 CURVE SMOOTH",
"1029 329 LINE SMOOTH",
"1029 300 OFFCURVE",
"1050 284 OFFCURVE",
"1077 284 CURVE SMOOTH",
"1099 284 OFFCURVE",
"1125 295 OFFCURVE",
"1146 317 CURVE SMOOTH",
"1445 624 LINE SMOOTH",
"1455 634 OFFCURVE",
"1459 645 OFFCURVE",
"1459 657 CURVE",
"1459 669 OFFCURVE",
"1455 681 OFFCURVE",
"1445 690 CURVE SMOOTH",
"1147 998 LINE SMOOTH",
"1126 1020 OFFCURVE",
"1099 1030 OFFCURVE",
"1077 1030 CURVE SMOOTH",
"1050 1030 OFFCURVE",
"1029 1015 OFFCURVE",
"1029 986 CURVE SMOOTH"
);
},
{
closed = 1;
nodes = (
"430 1048 OFFCURVE",
"409 1063 OFFCURVE",
"382 1063 CURVE SMOOTH",
"360 1063 OFFCURVE",
"333 1053 OFFCURVE",
"312 1031 CURVE SMOOTH",
"14 723 LINE SMOOTH",
"5 714 OFFCURVE",
"0 702 OFFCURVE",
"0 690 CURVE SMOOTH",
"0 678 OFFCURVE",
"5 667 OFFCURVE",
"14 657 CURVE SMOOTH",
"313 350 LINE SMOOTH",
"334 328 OFFCURVE",
"360 317 OFFCURVE",
"382 317 CURVE SMOOTH",
"409 317 OFFCURVE",
"430 333 OFFCURVE",
"430 362 CURVE SMOOTH",
"430 479 LINE SMOOTH",
"430 490 OFFCURVE",
"426 499 OFFCURVE",
"419 506 CURVE SMOOTH",
"248 682 LINE SMOOTH",
"246 684 OFFCURVE",
"244 687 OFFCURVE",
"244 690 CURVE SMOOTH",
"244 693 OFFCURVE",
"246 696 OFFCURVE",
"248 698 CURVE SMOOTH",
"419 874 LINE SMOOTH",
"426 881 OFFCURVE",
"430 890 OFFCURVE",
"430 901 CURVE SMOOTH",
"430 1019 LINE SMOOTH"
);
}
);
width = 1460;
}
);
unicode = ECD7;
},
{
color = 4;
glyphname = uniECD9;
lastChange = "2013-12-20 17:21:12 +0000";
layers = (
{
guideLines = (
{
angle = 90;
position = "{1459, 1600}";
}
);
layerId = "ABCF47FB-41DD-418D-ADD0-B1CD0215F61B";
name = Regular;
paths = (
{
closed = 1;
nodes = (
"0 1459 LINE",
"0 1091 LINE",
"184 1091 LINE",
"184 1275 LINE",
"638.981 1275 LINE",
"638.142 184 LINE",
"454 184 LINE",
"454 0 LINE",
"1006 0 LINE",
"1006 184 LINE",
"822.142 184 LINE",
"822.981 1275 LINE",
"1277 1275 LINE",
"1277 1091 LINE",
"1461 1091 LINE",
"1461 1459 LINE"
);
}
);
width = 1460;
}
);
unicode = ECD9;
},
{
color = 4;
glyphname = uniECE0;
lastChange = "2013-10-23 18:03:53 +0000";
layers = (
{
layerId = "ABCF47FB-41DD-418D-ADD0-B1CD0215F61B";
name = Regular;
paths = (
{
closed = 1;
nodes = (
"0 74 LINE SMOOTH",
"0 31 OFFCURVE",
"35 0 OFFCURVE",
"83 0 CURVE SMOOTH",
"1387 0 LINE SMOOTH",
"1435 0 OFFCURVE",
"1470 31 OFFCURVE",
"1470 74 CURVE SMOOTH",
"1470 1386 LINE SMOOTH",
"1470 1429 OFFCURVE",
"1435 1460 OFFCURVE",
"1387 1460 CURVE SMOOTH",
"83 1460 LINE SMOOTH",
"35 1460 OFFCURVE",
"0 1429 OFFCURVE",
"0 1386 CURVE SMOOTH"
);
},
{
closed = 1;
nodes = (
"1011 1144 LINE SMOOTH",
"1047 1175 OFFCURVE",
"1075 1198 OFFCURVE",
"1103 1198 CURVE SMOOTH",
"1140 1198 OFFCURVE",
"1167 1172 OFFCURVE",
"1167 1133 CURVE SMOOTH",
"1168 314 LINE SMOOTH",
"1167 276 OFFCURVE",
"1140 251 OFFCURVE",
"1102 251 CURVE SMOOTH",
"1075 251 OFFCURVE",
"1050 263 OFFCURVE",
"1018 289 CURVE",
"602 660 LINE SMOOTH",
"572 688 OFFCURVE",
"563 702 OFFCURVE",
"563 725 CURVE SMOOTH",
"563 744 OFFCURVE",
"571 758 OFFCURVE",
"602 790 CURVE"
);
}
);
width = 1314;
}
);
unicode = ECE0;
},
{
color = 4;
glyphname = uniECE1;
lastChange = "2013-10-23 18:03:53 +0000";
layers = (
{
layerId = "ABCF47FB-41DD-418D-ADD0-B1CD0215F61B";
name = Regular;
paths = (
{
closed = 1;
nodes = (
"0 74 LINE SMOOTH",
"0 31 OFFCURVE",
"35 0 OFFCURVE",
"83 0 CURVE SMOOTH",
"1387 0 LINE SMOOTH",
"1435 0 OFFCURVE",
"1470 31 OFFCURVE",
"1470 74 CURVE SMOOTH",
"1470 1386 LINE SMOOTH",
"1470 1429 OFFCURVE",
"1435 1460 OFFCURVE",
"1387 1460 CURVE SMOOTH",
"83 1460 LINE SMOOTH",
"35 1460 OFFCURVE",
"0 1429 OFFCURVE",
"0 1386 CURVE SMOOTH"
);
},
{
closed = 1;
nodes = (
"858 790 LINE",
"889 758 OFFCURVE",
"897 744 OFFCURVE",
"897 725 CURVE SMOOTH",
"897 702 OFFCURVE",
"888 688 OFFCURVE",
"858 660 CURVE SMOOTH",
"442 289 LINE",
"410 263 OFFCURVE",
"385 251 OFFCURVE",
"358 251 CURVE SMOOTH",
"320 251 OFFCURVE",
"293 276 OFFCURVE",
"292 314 CURVE",
"293 1133 LINE SMOOTH",
"293 1172 OFFCURVE",
"320 1198 OFFCURVE",
"357 1198 CURVE SMOOTH",
"385 1198 OFFCURVE",
"413 1175 OFFCURVE",
"449 1144 CURVE SMOOTH"
);
}
);
width = 1314;
}
);
unicode = ECE1;
},
{
color = 4;
glyphname = uniECE2;
lastChange = "2013-10-23 18:03:53 +0000";
layers = (
{
guideLines = (
{
angle = 180;
position = "{-100, 1460}";
}
);
layerId = "ABCF47FB-41DD-418D-ADD0-B1CD0215F61B";
name = Regular;
paths = (
{
closed = 1;
nodes = (
"0 149 LINE SMOOTH",
"0 63 OFFCURVE",
"63 0 OFFCURVE",
"149 0 CURVE SMOOTH",
"1311 0 LINE SMOOTH",
"1397 0 OFFCURVE",
"1460 63 OFFCURVE",
"1460 149 CURVE SMOOTH",
"1460 1311 LINE SMOOTH",
"1460 1397 OFFCURVE",
"1397 1460 OFFCURVE",
"1311 1460 CURVE SMOOTH",
"149 1460 LINE SMOOTH",
"63 1460 OFFCURVE",
"0 1397 OFFCURVE",
"0 1311 CURVE SMOOTH"
);
},
{
closed = 1;
nodes = (
"788 1169 LINE SMOOTH",
"846 1169 OFFCURVE",
"887 1124 OFFCURVE",
"878 1067 CURVE",
"831 644 LINE",
"825 608 OFFCURVE",
"797 584 OFFCURVE",
"760 584 CURVE SMOOTH",
"695 584 LINE SMOOTH",
"658 584 OFFCURVE",
"630 608 OFFCURVE",
"624 644 CURVE",
"580 1067 LINE",
"570 1124 OFFCURVE",
"611 1169 OFFCURVE",
"670 1169 CURVE SMOOTH"
);
},
{
closed = 1;
nodes = (
"670 292 OFFCURVE",
"621 341 OFFCURVE",
"621 402 CURVE SMOOTH",
"621 462 OFFCURVE",
"670 511 OFFCURVE",
"730 511 CURVE SMOOTH",
"790 511 OFFCURVE",
"840 464 OFFCURVE",
"840 402 CURVE SMOOTH",
"840 341 OFFCURVE",
"790 292 OFFCURVE",
"730 292 CURVE SMOOTH"
);
}
);
width = 1460;
}
);
unicode = ECE2;
},
{
glyphname = uniECE3;
lastChange = "2014-01-09 19:14:46 +0000";
layers = (
{
layerId = "ABCF47FB-41DD-418D-ADD0-B1CD0215F61B";
name = Regular;
paths = (
{
closed = 1;
nodes = (
"778 829 LINE SMOOTH",
"998 829 OFFCURVE",
"1136 725 OFFCURVE",
"1136 541 CURVE SMOOTH",
"1136 441 OFFCURVE",
"1099 371 OFFCURVE",
"1024 322 CURVE",
"1123 310 LINE",
"1123 200 LINE",
"50 200 LINE",
"50 327 LINE",
"468 327 LINE",
"469 330 LINE",
"401 376 OFFCURVE",
"365 443 OFFCURVE",
"365 539 CURVE SMOOTH",
"365 726 OFFCURVE",
"520 829 OFFCURVE",
"764 829 CURVE SMOOTH"
);
},
{
closed = 1;
nodes = (
"764 702 LINE SMOOTH",
"588 702 OFFCURVE",
"471 640 OFFCURVE",
"471 508 CURVE SMOOTH",
"471 419 OFFCURVE",
"515 363 OFFCURVE",
"587 327 CURVE",
"914 327 LINE",
"987 363 OFFCURVE",
"1030 419 OFFCURVE",
"1030 509 CURVE SMOOTH",
"1030 642 OFFCURVE",
"933 702 OFFCURVE",
"778 702 CURVE SMOOTH"
);
},
{
closed = 1;
nodes = (
"1034 1333 OFFCURVE",
"973 1414 OFFCURVE",
"888 1415 CURVE",
"888 1536 LINE",
"1024 1535 OFFCURVE",
"1136 1400 OFFCURVE",
"1136 1239 CURVE SMOOTH",
"1136 1021 OFFCURVE",
"982 908 OFFCURVE",
"765 908 CURVE SMOOTH",
"736 908 LINE SMOOTH",
"520 908 OFFCURVE",
"365 1021 OFFCURVE",
"365 1239 CURVE SMOOTH",
"365 1415 OFFCURVE",
"477 1535 OFFCURVE",
"634 1536 CURVE",
"634 1415 LINE",
"539 1414 OFFCURVE",
"468 1342 OFFCURVE",
"468 1239 CURVE SMOOTH",
"468 1091 OFFCURVE",
"583 1036 OFFCURVE",
"736 1036 CURVE SMOOTH",
"765 1036 LINE SMOOTH",
"922 1036 OFFCURVE",
"1034 1091 OFFCURVE",
"1034 1239 CURVE SMOOTH"
);
},
{
closed = 1;
nodes = (
"1123 -31 LINE",
"1076 -40 OFFCURVE",
"1050 -45 OFFCURVE",
"1017 -47 CURVE",
"1087 -100 OFFCURVE",
"1136 -181 OFFCURVE",
"1136 -276 CURVE SMOOTH",
"1136 -432 OFFCURVE",
"1055 -512 OFFCURVE",
"915 -512 CURVE SMOOTH",
"770 -512 OFFCURVE",
"688 -392 OFFCURVE",
"688 -190 CURVE SMOOTH",
"688 -47 LINE",
"612 -47 LINE SMOOTH",
"522 -47 OFFCURVE",
"468 -104 OFFCURVE",
"468 -208 CURVE SMOOTH",
"468 -304 OFFCURVE",
"520 -369 OFFCURVE",
"585 -369 CURVE",
"585 -496 LINE",
"470 -496 OFFCURVE",
"365 -377 OFFCURVE",
"365 -201 CURVE SMOOTH",
"365 -30 OFFCURVE",
"451 81 OFFCURVE",
"614 81 CURVE SMOOTH",
"973 81 LINE SMOOTH",
"1026 81 OFFCURVE",
"1073 85 OFFCURVE",
"1123 100 CURVE"
);
},
{
closed = 1;
nodes = (
"1027 -161 OFFCURVE",
"977 -80 OFFCURVE",
"913 -47 CURVE",
"776 -47 LINE",
"776 -194 LINE SMOOTH",
"776 -313 OFFCURVE",
"840 -385 OFFCURVE",
"918 -385 CURVE SMOOTH",
"986 -385 OFFCURVE",
"1027 -342 OFFCURVE",
"1027 -257 CURVE SMOOTH"
);
}
);
width = 1186;
}
);
leftKerningGroup = 0;
rightKerningGroup = 0;
unicode = ECE3;
},
{
glyphname = uniECE4;
lastChange = "2014-01-09 19:14:46 +0000";
layers = (
{
layerId = "ABCF47FB-41DD-418D-ADD0-B1CD0215F61B";
name = Regular;
paths = (
{
closed = 1;
nodes = (
"1176 697 LINE SMOOTH",
"1332 542 OFFCURVE",
"1356 371 OFFCURVE",
"1226 241 CURVE SMOOTH",
"1155 170 OFFCURVE",
"1079 147 OFFCURVE",
"991 165 CURVE",
"1053 86 LINE",
"975 9 LINE",
"216 767 LINE",
"306 857 LINE",
"602 562 LINE",
"605 563 LINE",
"589 644 OFFCURVE",
"611 716 OFFCURVE",
"679 784 CURVE SMOOTH",
"811 917 OFFCURVE",
"994 880 OFFCURVE",
"1166 707 CURVE SMOOTH"
);
},
{
closed = 1;
nodes = (
"1076 617 LINE SMOOTH",
"952 742 OFFCURVE",
"825 781 OFFCURVE",
"732 687 CURVE SMOOTH",
"669 625 OFFCURVE",
"661 554 OFFCURVE",
"686 477 CURVE",
"917 246 LINE",
"994 220 OFFCURVE",
"1064 229 OFFCURVE",
"1128 293 CURVE SMOOTH",
"1222 387 OFFCURVE",
"1196 498 OFFCURVE",
"1086 608 CURVE SMOOTH"
);
},
{
closed = 1;
nodes = (
"1713 873 OFFCURVE",
"1728 973 OFFCURVE",
"1668 1034 CURVE",
"1754 1120 LINE",
"1849 1023 OFFCURVE",
"1833 848 OFFCURVE",
"1719 734 CURVE SMOOTH",
"1565 580 OFFCURVE",
"1376 609 OFFCURVE",
"1223 762 CURVE SMOOTH",
"1202 783 LINE SMOOTH",
"1049 936 OFFCURVE",
"1020 1125 OFFCURVE",
"1174 1279 CURVE SMOOTH",
"1298 1404 OFFCURVE",
"1462 1409 OFFCURVE",
"1574 1299 CURVE",
"1489 1214 LINE",
"1421 1280 OFFCURVE",
"1320 1279 OFFCURVE",
"1247 1206 CURVE SMOOTH",
"1142 1102 OFFCURVE",
"1185 982 OFFCURVE",
"1293 873 CURVE SMOOTH",
"1313 853 LINE SMOOTH",
"1424 742 OFFCURVE",
"1542 702 OFFCURVE",
"1647 806 CURVE SMOOTH"
);
},
{
closed = 1;
nodes = (
"812 -155 LINE",
"772 -128 OFFCURVE",
"750 -113 OFFCURVE",
"726 -91 CURVE",
"738 -178 OFFCURVE",
"715 -270 OFFCURVE",
"648 -337 CURVE SMOOTH",
"538 -447 OFFCURVE",
"424 -447 OFFCURVE",
"325 -348 CURVE SMOOTH",
"222 -245 OFFCURVE",
"249 -102 OFFCURVE",
"392 40 CURVE SMOOTH",
"493 142 LINE",
"439 195 LINE SMOOTH",
"376 259 OFFCURVE",
"297 257 OFFCURVE",
"224 183 CURVE SMOOTH",
"156 115 OFFCURVE",
"146 33 OFFCURVE",
"192 -13 CURVE",
"103 -103 LINE",
"21 -22 OFFCURVE",
"31 137 OFFCURVE",
"156 261 CURVE SMOOTH",
"277 382 OFFCURVE",
"416 400 OFFCURVE",
"531 284 CURVE SMOOTH",
"785 31 LINE SMOOTH",
"822 -7 OFFCURVE",
"859 -37 OFFCURVE",
"905 -62 CURVE"
);
},
{
closed = 1;
nodes = (
"652 -179 OFFCURVE",
"674 -86 OFFCURVE",
"652 -18 CURVE",
"555 79 LINE",
"451 -25 LINE SMOOTH",
"367 -109 OFFCURVE",
"361 -205 OFFCURVE",
"417 -260 CURVE SMOOTH",
"465 -308 OFFCURVE",
"524 -307 OFFCURVE",
"584 -247 CURVE SMOOTH"
);
}
);
width = 1865.97;
}
);
leftKerningGroup = 0;
rightKerningGroup = 0;
unicode = ECE4;
},
{
glyphname = uniECE5;
lastChange = "2014-01-09 19:14:46 +0000";
layers = (
{
layerId = "ABCF47FB-41DD-418D-ADD0-B1CD0215F61B";
name = Regular;
paths = (
{
closed = 1;
nodes = (
"1391 345 LINE SMOOTH",
"1391 125 OFFCURVE",
"1287 -13 OFFCURVE",
"1103 -13 CURVE SMOOTH",
"1003 -13 OFFCURVE",
"933 24 OFFCURVE",
"884 99 CURVE",
"872 0 LINE",
"762 0 LINE",
"762 1073 LINE",
"889 1073 LINE",
"889 655 LINE",
"892 654 LINE",
"938 722 OFFCURVE",
"1005 758 OFFCURVE",
"1101 758 CURVE SMOOTH",
"1288 758 OFFCURVE",
"1391 603 OFFCURVE",
"1391 359 CURVE SMOOTH"
);
},
{
closed = 1;
nodes = (
"1264 359 LINE SMOOTH",
"1264 535 OFFCURVE",
"1202 652 OFFCURVE",
"1070 652 CURVE SMOOTH",
"981 652 OFFCURVE",
"925 608 OFFCURVE",
"889 536 CURVE",
"889 209 LINE",
"925 136 OFFCURVE",
"981 93 OFFCURVE",
"1071 93 CURVE SMOOTH",
"1204 93 OFFCURVE",
"1264 190 OFFCURVE",
"1264 345 CURVE SMOOTH"
);
},
{
closed = 1;
nodes = (
"1895 89 OFFCURVE",
"1976 150 OFFCURVE",
"1977 235 CURVE",
"2098 235 LINE",
"2097 99 OFFCURVE",
"1962 -13 OFFCURVE",
"1801 -13 CURVE SMOOTH",
"1583 -13 OFFCURVE",
"1470 141 OFFCURVE",
"1470 358 CURVE SMOOTH",
"1470 387 LINE SMOOTH",
"1470 603 OFFCURVE",
"1583 758 OFFCURVE",
"1801 758 CURVE SMOOTH",
"1977 758 OFFCURVE",
"2097 646 OFFCURVE",
"2098 489 CURVE",
"1977 489 LINE",
"1976 584 OFFCURVE",
"1904 655 OFFCURVE",
"1801 655 CURVE SMOOTH",
"1653 655 OFFCURVE",
"1598 540 OFFCURVE",
"1598 387 CURVE SMOOTH",
"1598 358 LINE SMOOTH",
"1598 201 OFFCURVE",
"1653 89 OFFCURVE",
"1801 89 CURVE SMOOTH"
);
},
{
closed = 1;
nodes = (
"531 0 LINE",
"522 47 OFFCURVE",
"517 73 OFFCURVE",
"515 106 CURVE",
"462 36 OFFCURVE",
"381 -13 OFFCURVE",
"286 -13 CURVE SMOOTH",
"130 -13 OFFCURVE",
"50 68 OFFCURVE",
"50 208 CURVE SMOOTH",
"50 353 OFFCURVE",
"170 435 OFFCURVE",
"372 435 CURVE SMOOTH",
"515 435 LINE",
"515 511 LINE SMOOTH",
"515 601 OFFCURVE",
"458 655 OFFCURVE",
"354 655 CURVE SMOOTH",
"258 655 OFFCURVE",
"193 603 OFFCURVE",
"193 538 CURVE",
"66 538 LINE",
"66 653 OFFCURVE",
"185 758 OFFCURVE",
"361 758 CURVE SMOOTH",
"532 758 OFFCURVE",
"643 672 OFFCURVE",
"643 509 CURVE SMOOTH",
"643 150 LINE SMOOTH",
"643 97 OFFCURVE",
"647 50 OFFCURVE",
"662 0 CURVE"
);
},
{
closed = 1;
nodes = (
"401 96 OFFCURVE",
"482 146 OFFCURVE",
"515 210 CURVE",
"515 347 LINE",
"368 347 LINE SMOOTH",
"249 347 OFFCURVE",
"177 283 OFFCURVE",
"177 205 CURVE SMOOTH",
"177 137 OFFCURVE",
"220 96 OFFCURVE",
"305 96 CURVE SMOOTH"
);
}
);
width = 2148;
}
);
leftKerningGroup = 0;
rightKerningGroup = 0;
unicode = ECE5;
},
{
glyphname = uniECE6;
lastChange = "2014-01-09 19:14:46 +0000";
layers = (
{
layerId = "ABCF47FB-41DD-418D-ADD0-B1CD0215F61B";
name = Regular;
paths = (
{
closed = 1;
nodes = (
"1168 291 LINE SMOOTH",
"1013 135 OFFCURVE",
"842 111 OFFCURVE",
"712 241 CURVE SMOOTH",
"641 312 OFFCURVE",
"618 388 OFFCURVE",
"636 476 CURVE",
"557 414 LINE",
"480 492 LINE",
"1238 1251 LINE",
"1328 1161 LINE",
"1033 865 LINE",
"1034 862 LINE",
"1115 878 OFFCURVE",
"1187 856 OFFCURVE",
"1255 788 CURVE SMOOTH",
"1388 656 OFFCURVE",
"1351 473 OFFCURVE",
"1178 301 CURVE SMOOTH"
);
},
{
closed = 1;
nodes = (
"1088 391 LINE SMOOTH",
"1213 515 OFFCURVE",
"1252 642 OFFCURVE",
"1158 735 CURVE SMOOTH",
"1096 798 OFFCURVE",
"1025 806 OFFCURVE",
"948 781 CURVE",
"717 550 LINE",
"691 473 OFFCURVE",
"700 403 OFFCURVE",
"764 339 CURVE SMOOTH",
"858 245 OFFCURVE",
"969 271 OFFCURVE",
"1079 381 CURVE SMOOTH"
);
},
{
closed = 1;
nodes = (
"1344 -246 OFFCURVE",
"1444 -261 OFFCURVE",
"1505 -201 CURVE",
"1591 -287 LINE",
"1494 -382 OFFCURVE",
"1319 -366 OFFCURVE",
"1205 -252 CURVE SMOOTH",
"1051 -98 OFFCURVE",
"1080 91 OFFCURVE",
"1233 244 CURVE SMOOTH",
"1254 265 LINE SMOOTH",
"1407 418 OFFCURVE",
"1596 447 OFFCURVE",
"1750 293 CURVE SMOOTH",
"1875 169 OFFCURVE",
"1880 5 OFFCURVE",
"1770 -107 CURVE",
"1685 -22 LINE",
"1751 46 OFFCURVE",
"1750 147 OFFCURVE",
"1677 220 CURVE SMOOTH",
"1573 325 OFFCURVE",
"1453 282 OFFCURVE",
"1344 174 CURVE SMOOTH",
"1324 154 LINE SMOOTH",
"1213 43 OFFCURVE",
"1173 -75 OFFCURVE",
"1277 -180 CURVE SMOOTH"
);
},
{
closed = 1;
nodes = (
"316 655 LINE",
"343 695 OFFCURVE",
"358 717 OFFCURVE",
"380 741 CURVE",
"293 729 OFFCURVE",
"201 752 OFFCURVE",
"134 819 CURVE SMOOTH",
"24 929 OFFCURVE",
"24 1043 OFFCURVE",
"123 1142 CURVE SMOOTH",
"226 1245 OFFCURVE",
"369 1218 OFFCURVE",
"511 1075 CURVE SMOOTH",
"613 974 LINE",
"666 1028 LINE SMOOTH",
"730 1091 OFFCURVE",
"728 1170 OFFCURVE",
"654 1243 CURVE SMOOTH",
"586 1311 OFFCURVE",
"504 1321 OFFCURVE",
"458 1275 CURVE",
"368 1364 LINE",
"449 1446 OFFCURVE",
"608 1436 OFFCURVE",
"732 1311 CURVE SMOOTH",
"853 1190 OFFCURVE",
"871 1051 OFFCURVE",
"755 936 CURVE SMOOTH",
"502 682 LINE SMOOTH",
"464 645 OFFCURVE",
"434 608 OFFCURVE",
"409 562 CURVE"
);
},
{
closed = 1;
nodes = (
"292 815 OFFCURVE",
"385 793 OFFCURVE",
"453 815 CURVE",
"550 912 LINE",
"446 1016 LINE SMOOTH",
"362 1100 OFFCURVE",
"266 1106 OFFCURVE",
"211 1050 CURVE SMOOTH",
"163 1002 OFFCURVE",
"164 943 OFFCURVE",
"224 883 CURVE SMOOTH"
);
}
);
width = 1898.3;
}
);
leftKerningGroup = 0;
rightKerningGroup = 0;
unicode = ECE6;
},
{
glyphname = uniECE7;
lastChange = "2014-01-09 19:14:46 +0000";
layers = (
{
layerId = "ABCF47FB-41DD-418D-ADD0-B1CD0215F61B";
name = Regular;
paths = (
{
closed = 1;
nodes = (
"408 195 LINE SMOOTH",
"188 195 OFFCURVE",
"50 299 OFFCURVE",
"50 483 CURVE SMOOTH",
"50 583 OFFCURVE",
"87 653 OFFCURVE",
"162 702 CURVE",
"63 714 LINE",
"63 824 LINE",
"1136 824 LINE",
"1136 697 LINE",
"718 697 LINE",
"717 694 LINE",
"785 648 OFFCURVE",
"821 581 OFFCURVE",
"821 485 CURVE SMOOTH",
"821 298 OFFCURVE",
"666 195 OFFCURVE",
"422 195 CURVE SMOOTH"
);
},
{
closed = 1;
nodes = (
"422 322 LINE SMOOTH",
"598 322 OFFCURVE",
"715 384 OFFCURVE",
"715 516 CURVE SMOOTH",
"715 605 OFFCURVE",
"671 661 OFFCURVE",
"599 697 CURVE",
"272 697 LINE",
"199 661 OFFCURVE",
"156 605 OFFCURVE",
"156 515 CURVE SMOOTH",
"156 382 OFFCURVE",
"253 322 OFFCURVE",
"408 322 CURVE SMOOTH"
);
},
{
closed = 1;
nodes = (
"152 -309 OFFCURVE",
"213 -390 OFFCURVE",
"298 -391 CURVE",
"298 -512 LINE",
"162 -511 OFFCURVE",
"50 -376 OFFCURVE",
"50 -215 CURVE SMOOTH",
"50 3 OFFCURVE",
"204 116 OFFCURVE",
"421 116 CURVE SMOOTH",
"450 116 LINE SMOOTH",
"666 116 OFFCURVE",
"821 3 OFFCURVE",
"821 -215 CURVE SMOOTH",
"821 -391 OFFCURVE",
"709 -511 OFFCURVE",
"552 -512 CURVE",
"552 -391 LINE",
"647 -390 OFFCURVE",
"718 -318 OFFCURVE",
"718 -215 CURVE SMOOTH",
"718 -67 OFFCURVE",
"603 -12 OFFCURVE",
"450 -12 CURVE SMOOTH",
"421 -12 LINE SMOOTH",
"264 -12 OFFCURVE",
"152 -67 OFFCURVE",
"152 -215 CURVE SMOOTH"
);
},
{
closed = 1;
nodes = (
"63 1055 LINE",
"110 1064 OFFCURVE",
"136 1069 OFFCURVE",
"169 1071 CURVE",
"99 1124 OFFCURVE",
"50 1205 OFFCURVE",
"50 1300 CURVE SMOOTH",
"50 1456 OFFCURVE",
"131 1536 OFFCURVE",
"271 1536 CURVE SMOOTH",
"416 1536 OFFCURVE",
"498 1416 OFFCURVE",
"498 1214 CURVE SMOOTH",
"498 1071 LINE",
"574 1071 LINE SMOOTH",
"664 1071 OFFCURVE",
"718 1128 OFFCURVE",
"718 1232 CURVE SMOOTH",
"718 1328 OFFCURVE",
"666 1393 OFFCURVE",
"601 1393 CURVE",
"601 1520 LINE",
"716 1520 OFFCURVE",
"821 1401 OFFCURVE",
"821 1225 CURVE SMOOTH",
"821 1054 OFFCURVE",
"735 943 OFFCURVE",
"572 943 CURVE SMOOTH",
"213 943 LINE SMOOTH",
"160 943 OFFCURVE",
"113 939 OFFCURVE",
"63 924 CURVE"
);
},
{
closed = 1;
nodes = (
"159 1185 OFFCURVE",
"209 1104 OFFCURVE",
"273 1071 CURVE",
"410 1071 LINE",
"410 1218 LINE SMOOTH",
"410 1337 OFFCURVE",
"346 1409 OFFCURVE",
"268 1409 CURVE SMOOTH",
"200 1409 OFFCURVE",
"159 1366 OFFCURVE",
"159 1281 CURVE SMOOTH"
);
}
);
width = 1186;
}
);
leftKerningGroup = 0;
rightKerningGroup = 0;
unicode = ECE7;
},
{
color = 4;
glyphname = uniECE8;
lastChange = "2014-06-13 17:48:09 +0000";
layers = (
{
hints = (
{
place = "{1184.000000, -25.000000}";
}
);
layerId = "ABCF47FB-41DD-418D-ADD0-B1CD0215F61B";
name = Regular;
paths = (
{
closed = 1;
nodes = (
"184 184 LINE",
"184 1095 LINE",
"0 1095 LINE",
"0 0 LINE",
"1095 0 LINE",
"1095 184 LINE"
);
},
{
closed = 1;
nodes = (
"365 1460 LINE",
"365 365 LINE",
"1460 365 LINE",
"1460 1460 LINE"
);
},
{
closed = 1;
nodes = (
"1276 549 LINE",
"549 549 LINE",
"549 1276 LINE",
"1276 1276 LINE"
);
}
);
width = 1460;
}
);
unicode = ECE8;
},
{
glyphname = uniECE9;
lastChange = "2014-08-09 00:17:34 +0000";
layers = (
{
layerId = "ABCF47FB-41DD-418D-ADD0-B1CD0215F61B";
name = Regular;
paths = (
{
closed = 1;
nodes = (
"567 1092 LINE SMOOTH",
"567 1205 LINE",
"567 1219 OFFCURVE",
"560 1234 OFFCURVE",
"553 1244 CURVE SMOOTH",
"539 1261 OFFCURVE",
"522 1268 OFFCURVE",
"500 1268 CURVE",
"63 1268 LINE",
"29 1268 OFFCURVE",
"0 1241 OFFCURVE",
"0 1205 CURVE",
"0 64 LINE",
"0 28 OFFCURVE",
"29 1 OFFCURVE",
"63 1 CURVE",
"1681 1 LINE",
"1719 1 OFFCURVE",
"1748 28 OFFCURVE",
"1748 64 CURVE",
"1748 1025 LINE",
"1748 1065 OFFCURVE",
"1719 1092 OFFCURVE",
"1681 1092 CURVE"
);
}
);
width = 2063;
}
);
unicode = ECE9;
},
{
glyphname = uniECF0;
lastChange = "2014-12-09 21:31:54 +0000";
layers = (
{
layerId = "ABCF47FB-41DD-418D-ADD0-B1CD0215F61B";
name = Regular;
paths = (
{
closed = 1;
nodes = (
"0 876 LINE",
"584 877 LINE",
"584 1460 LINE",
"0 1459 LINE"
);
},
{
closed = 1;
nodes = (
"0 0 LINE",
"584 1 LINE",
"584 584 LINE",
"0 583 LINE"
);
},
{
closed = 1;
nodes = (
"876 876 LINE",
"1460 877 LINE",
"1460 1460 LINE",
"876 1459 LINE"
);
},
{
closed = 1;
nodes = (
"876 0 LINE",
"1460 1 LINE",
"1460 584 LINE",
"876 583 LINE"
);
}
);
width = 1460;
}
);
unicode = ECF0;
},
{
glyphname = uniECF1;
lastChange = "2015-01-05 18:22:33 +0000";
layers = (
{
layerId = "ABCF47FB-41DD-418D-ADD0-B1CD0215F61B";
name = Regular;
paths = (
{
closed = 1;
nodes = (
"736 430 OFFCURVE",
"658 446 OFFCURVE",
"574 492 CURVE",
"643 619 LINE",
"805 531 OFFCURVE",
"922 601 OFFCURVE",
"939 612 CURVE",
"1248 898 LINE SMOOTH",
"1249 898 OFFCURVE",
"1347 988 OFFCURVE",
"1350 1098 CURVE SMOOTH",
"1352 1156 OFFCURVE",
"1327 1209 OFFCURVE",
"1274 1262 CURVE SMOOTH",
"1226 1310 OFFCURVE",
"1177 1332 OFFCURVE",
"1124 1330 CURVE SMOOTH",
"1003 1324 OFFCURVE",
"897 1197 OFFCURVE",
"896 1195 CURVE",
"784 1287 LINE",
"790 1294 OFFCURVE",
"930 1465 OFFCURVE",
"1116 1475 CURVE SMOOTH",
"1211 1480 OFFCURVE",
"1299 1443 OFFCURVE",
"1376 1365 CURVE SMOOTH",
"1458 1283 OFFCURVE",
"1498 1192 OFFCURVE",
"1495 1093 CURVE SMOOTH",
"1490 924 OFFCURVE",
"1357 801 OFFCURVE",
"1345 790 CURVE SMOOTH",
"1031 500 LINE",
"1028 498 LINE SMOOTH",
"1023 494 OFFCURVE",
"936 430 OFFCURVE",
"802 430 CURVE SMOOTH",
"802 430 LINE SMOOTH"
);
},
{
closed = 1;
nodes = (
"274 -20 OFFCURVE",
"192 17 OFFCURVE",
"119 90 CURVE SMOOTH",
"37 172 OFFCURVE",
"-3 264 OFFCURVE",
"0 362 CURVE SMOOTH",
"5 531 OFFCURVE",
"138 655 OFFCURVE",
"150 666 CURVE SMOOTH",
"464 955 LINE",
"467 958 LINE SMOOTH",
"475 964 OFFCURVE",
"667 1103 OFFCURVE",
"922 963 CURVE",
"852 836 LINE",
"692 924 OFFCURVE",
"575 855 OFFCURVE",
"556 843 CURVE",
"247 558 LINE SMOOTH",
"246 557 OFFCURVE",
"148 467 OFFCURVE",
"145 357 CURVE SMOOTH",
"143 300 OFFCURVE",
"168 246 OFFCURVE",
"221 193 CURVE SMOOTH",
"269 145 OFFCURVE",
"318 123 OFFCURVE",
"372 125 CURVE SMOOTH",
"492 131 OFFCURVE",
"598 259 OFFCURVE",
"599 260 CURVE",
"711 168 LINE",
"706 161 OFFCURVE",
"565 -10 OFFCURVE",
"380 -20 CURVE SMOOTH",
"374 -20 OFFCURVE",
"368 -20 OFFCURVE",
"363 -20 CURVE SMOOTH",
"363 -20 LINE SMOOTH"
);
}
);
width = 1495;
}
);
unicode = ECF1;
},
{
glyphname = uniECF2;
lastChange = "2016-01-07 23:50:05 +0000";
layers = (
{
layerId = "ABCF47FB-41DD-418D-ADD0-B1CD0215F61B";
name = Regular;
paths = (
{
closed = 1;
nodes = (
"0 1098 LINE",
"0 0 LINE",
"416 -1 LINE",
"416 -1 OFFCURVE",
"449 -4 OFFCURVE",
"449 34 CURVE",
"449 85 OFFCURVE",
"328 128 OFFCURVE",
"328 219 CURVE SMOOTH",
"328 310 OFFCURVE",
"437 379 OFFCURVE",
"549 379 CURVE SMOOTH",
"661 379 OFFCURVE",
"769 322 OFFCURVE",
"769 219 CURVE SMOOTH",
"769 116 OFFCURVE",
"648 85 OFFCURVE",
"648 34 CURVE SMOOTH",
"648 -4 OFFCURVE",
"685 0 OFFCURVE",
"702 -1 CURVE",
"1099 -1 LINE",
"1099 407 LINE SMOOTH",
"1099 428 OFFCURVE",
"1129 477 OFFCURVE",
"1176 414 CURVE SMOOTH",
"1224 352 OFFCURVE",
"1264 329 OFFCURVE",
"1312 329 CURVE SMOOTH",
"1368 329 OFFCURVE",
"1479 383 OFFCURVE",
"1477 549 CURVE SMOOTH",
"1474 715 OFFCURVE",
"1362 770 OFFCURVE",
"1312 769 CURVE SMOOTH",
"1251 769 OFFCURVE",
"1214 737 OFFCURVE",
"1179 691 CURVE",
"1132 619 OFFCURVE",
"1097 667 OFFCURVE",
"1099 691 CURVE",
"1097 1099 LINE",
"691 1100 LINE SMOOTH",
"666 1099 OFFCURVE",
"632 1135 OFFCURVE",
"691 1181 CURVE SMOOTH",
"751 1229 OFFCURVE",
"769 1268 OFFCURVE",
"769 1320 CURVE SMOOTH",
"769 1361 OFFCURVE",
"730 1476 OFFCURVE",
"549 1476 CURVE SMOOTH",
"368 1476 OFFCURVE",
"328 1352 OFFCURVE",
"328 1320 CURVE SMOOTH",
"328 1262 OFFCURVE",
"349 1232 OFFCURVE",
"407 1181 CURVE SMOOTH",
"466 1129 OFFCURVE",
"431 1100 OFFCURVE",
"407 1100 CURVE SMOOTH"
);
}
);
width = 1477;
}
);
unicode = ECF2;
},
{
glyphname = uniECF3;
lastChange = "2016-07-12 17:00:27 +0000";
layers = (
{
layerId = "ABCF47FB-41DD-418D-ADD0-B1CD0215F61B";
name = Regular;
paths = (
{
closed = 1;
nodes = (
"370 818 LINE",
"369 370 LINE",
"818 371 LINE",
"818 190 LINE",
"189 189 LINE",
"189 818 LINE",
"189 818 LINE"
);
},
{
closed = 1;
nodes = (
"1089 635 LINE",
"1089 1083 LINE",
"642 1082 LINE",
"641 1263 LINE",
"1271 1264 LINE",
"1270 635 LINE",
"1270 635 LINE"
);
}
);
width = 1460;
}
);
unicode = ECF3;
},
{
glyphname = uniECF4;
lastChange = "2016-07-12 17:00:11 +0000";
layers = (
{
layerId = "ABCF47FB-41DD-418D-ADD0-B1CD0215F61B";
name = Regular;
paths = (
{
closed = 1;
nodes = (
"1013 1462 LINE",
"1012 1014 LINE",
"1461 1014 LINE",
"1462 833 LINE",
"831 832 LINE",
"832 1462 LINE",
"832 1462 LINE"
);
},
{
closed = 1;
nodes = (
"449 1 LINE",
"449 449 LINE",
"0 448 LINE",
"0 629 LINE",
"630 631 LINE",
"630 1 LINE",
"630 1 LINE"
);
}
);
width = 1462;
}
);
unicode = ECF4;
},
{
color = 4;
glyphname = uniF000;
lastChange = "2014-08-20 22:15:03 +0000";
layers = (
{
hints = (
{
horizontal = 1;
place = "{1082.000000, 27.000000}";
}
);
layerId = "ABCF47FB-41DD-418D-ADD0-B1CD0215F61B";
name = Regular;
paths = (
{
closed = 1;
nodes = (
"447 1509 LINE",
"247 1509 LINE",
"247 0 LINE",
"447 0 LINE",
"447 616 LINE SMOOTH",
"447 794 OFFCURVE",
"565 918 OFFCURVE",
"735 918 CURVE SMOOTH",
"902 918 OFFCURVE",
"998 812 OFFCURVE",
"998 628 CURVE SMOOTH",
"998 0 LINE",
"1198 0 LINE",
"1198 666 LINE SMOOTH",
"1198 932 OFFCURVE",
"1034 1104 OFFCURVE",
"779 1104 CURVE SMOOTH",
"641 1104 OFFCURVE",
"530 1052 OFFCURVE",
"447 950 CURVE"
);
},
{
closed = 1;
nodes = (
"4000 1509 LINE",
"3801 1509 LINE",
"3801 0 LINE",
"4000 0 LINE",
"4000 284 LINE",
"4186 471 LINE",
"4548 0 LINE",
"4790 0 LINE",
"4325 613 LINE",
"4783 1082 LINE",
"4528 1082 LINE",
"4000 533 LINE"
);
},
{
closed = 1;
nodes = (
"4842 1309 LINE",
"4756 1309 LINE",
"4756 1291 LINE",
"4790 1291 LINE",
"4790 1202 LINE",
"4809 1202 LINE",
"4809 1291 LINE",
"4842 1291 LINE"
);
},
{
closed = 1;
nodes = (
"4966 1309 LINE",
"4946 1309 LINE",
"4914 1258 LINE",
"4881 1309 LINE",
"4861 1309 LINE",
"4861 1202 LINE",
"4880 1202 LINE",
"4880 1278 LINE",
"4914 1228 LINE",
"4947 1279 LINE",
"4947 1202 LINE",
"4966 1202 LINE"
);
},
{
closed = 1;
nodes = (
"3011 1104 OFFCURVE",
"2900 1052 OFFCURVE",
"2816 950 CURVE",
"2816 1082 LINE",
"2616 1082 LINE",
"2616 0 LINE",
"2816 0 LINE",
"2816 616 LINE SMOOTH",
"2816 794 OFFCURVE",
"2934 918 OFFCURVE",
"3104 918 CURVE SMOOTH",
"3272 918 OFFCURVE",
"3368 812 OFFCURVE",
"3368 628 CURVE SMOOTH",
"3368 0 LINE",
"3568 0 LINE",
"3568 666 LINE SMOOTH",
"3568 932 OFFCURVE",
"3403 1104 OFFCURVE",
"3148 1104 CURVE SMOOTH"
);
},
{
closed = 1;
nodes = (
"2365 1082 LINE",
"2167 1082 LINE",
"2167 466 LINE SMOOTH",
"2167 288 OFFCURVE",
"2049 164 OFFCURVE",
"1879 164 CURVE SMOOTH",
"1712 164 OFFCURVE",
"1615 269 OFFCURVE",
"1615 454 CURVE SMOOTH",
"1615 1082 LINE",
"1416 1082 LINE",
"1416 416 LINE SMOOTH",
"1416 150 OFFCURVE",
"1580 -22 OFFCURVE",
"1835 -22 CURVE SMOOTH",
"1973 -22 OFFCURVE",
"2083 29 OFFCURVE",
"2167 132 CURVE",
"2167 0 LINE",
"2365 0 LINE"
);
}
);
width = 5016;
}
);
unicode = F000;
},
{
color = 4;
glyphname = uniF001;
lastChange = "2013-08-13 18:24:41 +0000";
layers = (
{
hints = (
{
horizontal = 1;
place = "{1082.000000, 27.000000}";
}
);
layerId = "ABCF47FB-41DD-418D-ADD0-B1CD0215F61B";
name = Regular;
paths = (
{
closed = 1;
nodes = (
"437 1104 OFFCURVE",
"209 857 OFFCURVE",
"209 542 CURVE SMOOTH",
"209 538 LINE SMOOTH",
"209 218 OFFCURVE",
"441 -24 OFFCURVE",
"749 -24 CURVE SMOOTH",
"931 -24 OFFCURVE",
"1068 38 OFFCURVE",
"1193 178 CURVE SMOOTH",
"1208 195 LINE",
"1079 311 LINE",
"1063 295 LINE SMOOTH",
"973 200 OFFCURVE",
"874 156 OFFCURVE",
"753 156 CURVE SMOOTH",
"576 156 OFFCURVE",
"442 278 OFFCURVE",
"414 461 CURVE",
"1230 461 LINE",
"1233 481 LINE SMOOTH",
"1235 501 OFFCURVE",
"1235 514 OFFCURVE",
"1235 534 CURVE SMOOTH",
"1235 870 OFFCURVE",
"1027 1104 OFFCURVE",
"729 1104 CURVE SMOOTH"
);
},
{
closed = 1;
nodes = (
"921 928 OFFCURVE",
"1010 774 OFFCURVE",
"1030 621 CURVE",
"414 621 LINE",
"441 803 OFFCURVE",
"566 928 OFFCURVE",
"725 928 CURVE SMOOTH"
);
},
{
closed = 1;
nodes = (
"1804 1104 OFFCURVE",
"1693 1053 OFFCURVE",
"1610 951 CURVE",
"1610 1082 LINE",
"1410 1082 LINE",
"1410 0 LINE",
"1610 0 LINE",
"1610 616 LINE SMOOTH",
"1610 794 OFFCURVE",
"1728 918 OFFCURVE",
"1898 918 CURVE SMOOTH",
"2066 918 OFFCURVE",
"2162 813 OFFCURVE",
"2162 628 CURVE SMOOTH",
"2162 0 LINE",
"2362 0 LINE",
"2362 666 LINE SMOOTH",
"2362 932 OFFCURVE",
"2197 1104 OFFCURVE",
"1942 1104 CURVE SMOOTH"
);
},
{
closed = 1;
nodes = (
"2649 1395 LINE",
"2649 1082 LINE",
"2505 1082 LINE",
"2505 900 LINE",
"2649 900 LINE",
"2649 298 LINE SMOOTH",
"2649 97 OFFCURVE",
"2764 -18 OFFCURVE",
"2965 -18 CURVE SMOOTH",
"3038 -18 OFFCURVE",
"3100 -3 OFFCURVE",
"3162 29 CURVE SMOOTH",
"3174 35 LINE",
"3174 218 LINE",
"3141 202 LINE SMOOTH",
"3091 178 OFFCURVE",
"3051 168 OFFCURVE",
"3001 168 CURVE SMOOTH",
"2897 168 OFFCURVE",
"2849 216 OFFCURVE",
"2849 318 CURVE SMOOTH",
"2849 900 LINE",
"3178 900 LINE",
"3178 1082 LINE",
"2849 1082 LINE",
"2849 1395 LINE"
);
},
{
closed = 1;
nodes = (
"3469 1104 OFFCURVE",
"3241 857 OFFCURVE",
"3241 542 CURVE SMOOTH",
"3241 538 LINE SMOOTH",
"3241 218 OFFCURVE",
"3473 -24 OFFCURVE",
"3781 -24 CURVE SMOOTH",
"3963 -24 OFFCURVE",
"4100 38 OFFCURVE",
"4225 178 CURVE SMOOTH",
"4240 195 LINE",
"4110 311 LINE",
"4095 295 LINE SMOOTH",
"4004 200 OFFCURVE",
"3906 156 OFFCURVE",
"3785 156 CURVE SMOOTH",
"3607 156 OFFCURVE",
"3474 278 OFFCURVE",
"3446 461 CURVE",
"4262 461 LINE",
"4265 481 LINE SMOOTH",
"4267 501 OFFCURVE",
"4267 514 OFFCURVE",
"4267 534 CURVE SMOOTH",
"4267 870 OFFCURVE",
"4059 1104 OFFCURVE",
"3761 1104 CURVE SMOOTH"
);
},
{
closed = 1;
nodes = (
"3952 928 OFFCURVE",
"4042 774 OFFCURVE",
"4062 621 CURVE",
"3446 621 LINE",
"3473 803 OFFCURVE",
"3598 928 OFFCURVE",
"3757 928 CURVE SMOOTH"
);
},
{
closed = 1;
nodes = (
"4642 1082 LINE",
"4442 1082 LINE",
"4442 0 LINE",
"4642 0 LINE",
"4642 436 LINE SMOOTH",
"4642 711 OFFCURVE",
"4794 888 OFFCURVE",
"5030 888 CURVE SMOOTH",
"5065 888 LINE",
"5065 1099 LINE",
"5043 1100 LINE SMOOTH",
"4879 1107 OFFCURVE",
"4735 1025 OFFCURVE",
"4642 880 CURVE"
);
},
{
closed = 1;
nodes = (
"5639 1104 OFFCURVE",
"5516 1044 OFFCURVE",
"5414 920 CURVE",
"5414 1082 LINE",
"5214 1082 LINE",
"5214 -321 LINE",
"5414 -321 LINE",
"5414 154 LINE",
"5513 37 OFFCURVE",
"5639 -22 OFFCURVE",
"5788 -22 CURVE SMOOTH",
"6039 -22 OFFCURVE",
"6306 175 OFFCURVE",
"6306 540 CURVE SMOOTH",
"6306 544 LINE SMOOTH",
"6306 908 OFFCURVE",
"6039 1104 OFFCURVE",
"5788 1104 CURVE SMOOTH"
);
},
{
closed = 1;
nodes = (
"5958 920 OFFCURVE",
"6102 761 OFFCURVE",
"6102 542 CURVE SMOOTH",
"6102 538 LINE SMOOTH",
"6102 317 OFFCURVE",
"5961 162 OFFCURVE",
"5760 162 CURVE SMOOTH",
"5587 162 OFFCURVE",
"5408 303 OFFCURVE",
"5408 540 CURVE SMOOTH",
"5408 544 LINE SMOOTH",
"5408 777 OFFCURVE",
"5590 920 OFFCURVE",
"5760 920 CURVE SMOOTH"
);
},
{
closed = 1;
nodes = (
"6695 1082 LINE",
"6495 1082 LINE",
"6495 0 LINE",
"6695 0 LINE",
"6695 436 LINE SMOOTH",
"6695 711 OFFCURVE",
"6847 888 OFFCURVE",
"7083 888 CURVE SMOOTH",
"7118 888 LINE",
"7118 1099 LINE",
"7096 1100 LINE SMOOTH",
"6933 1107 OFFCURVE",
"6788 1025 OFFCURVE",
"6695 880 CURVE"
);
},
{
closed = 1;
nodes = (
"7471 0 LINE",
"7471 1082 LINE",
"7271 1082 LINE",
"7271 0 LINE"
);
},
{
closed = 1;
nodes = (
"7483 1263 LINE",
"7483 1479 LINE",
"7261 1479 LINE",
"7261 1263 LINE"
);
},
{
closed = 1;
nodes = (
"8139 637 LINE SMOOTH",
"8012 676 OFFCURVE",
"7892 712 OFFCURVE",
"7892 793 CURVE SMOOTH",
"7892 797 LINE SMOOTH",
"7892 873 OFFCURVE",
"7964 924 OFFCURVE",
"8070 924 CURVE SMOOTH",
"8162 924 OFFCURVE",
"8269 889 OFFCURVE",
"8364 828 CURVE SMOOTH",
"8384 815 LINE",
"8478 970 LINE",
"8459 982 LINE SMOOTH",
"8347 1056 OFFCURVE",
"8203 1100 OFFCURVE",
"8074 1100 CURVE SMOOTH",
"7853 1100 OFFCURVE",
"7698 969 OFFCURVE",
"7698 781 CURVE SMOOTH",
"7698 777 LINE SMOOTH",
"7698 564 OFFCURVE",
"7906 505 OFFCURVE",
"8058 462 CURVE SMOOTH",
"8195 424 OFFCURVE",
"8300 388 OFFCURVE",
"8300 302 CURVE SMOOTH",
"8300 298 LINE SMOOTH",
"8300 213 OFFCURVE",
"8223 156 OFFCURVE",
"8108 156 CURVE SMOOTH",
"7994 156 OFFCURVE",
"7874 200 OFFCURVE",
"7763 284 CURVE SMOOTH",
"7744 298 LINE",
"7640 151 LINE",
"7657 137 LINE SMOOTH",
"7776 40 OFFCURVE",
"7946 -20 OFFCURVE",
"8100 -20 CURVE SMOOTH",
"8334 -20 OFFCURVE",
"8492 114 OFFCURVE",
"8492 314 CURVE SMOOTH",
"8492 318 LINE SMOOTH",
"8492 531 OFFCURVE",
"8282 594 OFFCURVE",
"8143 636 CURVE SMOOTH"
);
},
{
closed = 1;
nodes = (
"8847 1104 OFFCURVE",
"8619 857 OFFCURVE",
"8619 542 CURVE SMOOTH",
"8619 538 LINE SMOOTH",
"8619 218 OFFCURVE",
"8851 -24 OFFCURVE",
"9159 -24 CURVE SMOOTH",
"9340 -24 OFFCURVE",
"9477 38 OFFCURVE",
"9603 178 CURVE SMOOTH",
"9618 195 LINE",
"9488 311 LINE",
"9473 295 LINE SMOOTH",
"9382 200 OFFCURVE",
"9284 156 OFFCURVE",
"9163 156 CURVE SMOOTH",
"8985 156 OFFCURVE",
"8852 278 OFFCURVE",
"8824 461 CURVE",
"9640 461 LINE",
"9642 481 LINE SMOOTH",
"9645 501 OFFCURVE",
"9645 514 OFFCURVE",
"9645 534 CURVE SMOOTH",
"9645 870 OFFCURVE",
"9437 1104 OFFCURVE",
"9139 1104 CURVE SMOOTH"
);
},
{
closed = 1;
nodes = (
"9330 928 OFFCURVE",
"9420 774 OFFCURVE",
"9440 621 CURVE",
"8824 621 LINE",
"8851 803 OFFCURVE",
"8976 928 OFFCURVE",
"9135 928 CURVE SMOOTH"
);
}
);
width = 9695;
}
);
unicode = F001;
},
{
glyphname = uniF002;
lastChange = "2014-01-28 22:48:22 +0000";
layers = (
{
layerId = "ABCF47FB-41DD-418D-ADD0-B1CD0215F61B";
name = Regular;
paths = (
{
closed = 1;
nodes = (
"979 209 OFFCURVE",
"880 160 OFFCURVE",
"771 160 CURVE SMOOTH",
"570 160 OFFCURVE",
"412 328 OFFCURVE",
"412 541 CURVE SMOOTH",
"412 545 LINE SMOOTH",
"412 757 OFFCURVE",
"565 923 OFFCURVE",
"761 923 CURVE SMOOTH",
"898 923 OFFCURVE",
"985 852 OFFCURVE",
"1059 774 CURVE SMOOTH",
"1075 757 LINE",
"1208 897 LINE",
"1193 913 LINE SMOOTH",
"1110 1002 OFFCURVE",
"985 1104 OFFCURVE",
"763 1104 CURVE SMOOTH",
"458 1104 OFFCURVE",
"209 851 OFFCURVE",
"209 541 CURVE SMOOTH",
"209 537 LINE SMOOTH",
"209 229 OFFCURVE",
"458 -22 OFFCURVE",
"763 -22 CURVE SMOOTH",
"987 -22 OFFCURVE",
"1115 89 OFFCURVE",
"1202 185 CURVE SMOOTH",
"1216 202 LINE",
"1086 324 LINE",
"1071 308 LINE SMOOTH"
);
},
{
closed = 1;
nodes = (
"1560 2 LINE",
"1560 1509 LINE",
"1361 1509 LINE",
"1361 2 LINE"
);
},
{
closed = 1;
nodes = (
"1967 1104 OFFCURVE",
"1720 857 OFFCURVE",
"1720 541 CURVE SMOOTH",
"1720 537 LINE SMOOTH",
"1720 223 OFFCURVE",
"1965 -22 OFFCURVE",
"2279 -22 CURVE SMOOTH",
"2596 -22 OFFCURVE",
"2844 225 OFFCURVE",
"2844 541 CURVE SMOOTH",
"2844 545 LINE SMOOTH",
"2844 858 OFFCURVE",
"2598 1104 OFFCURVE",
"2283 1104 CURVE SMOOTH"
);
},
{
closed = 1;
nodes = (
"2081 160 OFFCURVE",
"1923 328 OFFCURVE",
"1923 541 CURVE SMOOTH",
"1923 545 LINE SMOOTH",
"1923 761 OFFCURVE",
"2076 923 OFFCURVE",
"2279 923 CURVE SMOOTH",
"2482 923 OFFCURVE",
"2641 755 OFFCURVE",
"2641 541 CURVE SMOOTH",
"2641 537 LINE SMOOTH",
"2641 322 OFFCURVE",
"2487 160 OFFCURVE",
"2283 160 CURVE SMOOTH"
);
},
{
closed = 1;
nodes = (
"3753 289 OFFCURVE",
"3634 165 OFFCURVE",
"3465 165 CURVE SMOOTH",
"3297 165 OFFCURVE",
"3200 270 OFFCURVE",
"3200 455 CURVE SMOOTH",
"3200 1082 LINE",
"3002 1082 LINE",
"3002 417 LINE SMOOTH",
"3002 151 OFFCURVE",
"3166 -20 OFFCURVE",
"3421 -20 CURVE SMOOTH",
"3559 -20 OFFCURVE",
"3668 31 OFFCURVE",
"3753 135 CURVE",
"3753 2 LINE",
"3950 2 LINE",
"3950 1082 LINE",
"3753 1082 LINE",
"3753 467 LINE SMOOTH"
);
},
{
closed = 1;
nodes = (
"4983 927 LINE",
"4883 1045 OFFCURVE",
"4758 1104 OFFCURVE",
"4608 1104 CURVE SMOOTH",
"4358 1104 OFFCURVE",
"4091 907 OFFCURVE",
"4091 543 CURVE SMOOTH",
"4091 539 LINE SMOOTH",
"4091 176 OFFCURVE",
"4358 -20 OFFCURVE",
"4608 -20 CURVE SMOOTH",
"4758 -20 OFFCURVE",
"4881 41 OFFCURVE",
"4983 165 CURVE",
"4983 2 LINE",
"5182 2 LINE",
"5182 1509 LINE",
"4983 1509 LINE"
);
},
{
closed = 1;
nodes = (
"4441 162 OFFCURVE",
"4294 325 OFFCURVE",
"4294 541 CURVE SMOOTH",
"4294 545 LINE SMOOTH",
"4294 767 OFFCURVE",
"4435 921 OFFCURVE",
"4637 921 CURVE SMOOTH",
"4810 921 OFFCURVE",
"4989 780 OFFCURVE",
"4989 545 CURVE SMOOTH",
"4989 541 LINE SMOOTH",
"4989 359 OFFCURVE",
"4854 162 OFFCURVE",
"4637 162 CURVE SMOOTH"
);
},
{
closed = 1;
nodes = (
"5278 1491 LINE",
"5278 1509 LINE",
"5366 1509 LINE",
"5366 1491 LINE",
"5332 1491 LINE",
"5332 1399 LINE",
"5312 1399 LINE",
"5312 1491 LINE"
);
},
{
closed = 1;
nodes = (
"5407 1509 LINE",
"5440 1457 LINE",
"5474 1509 LINE",
"5494 1509 LINE",
"5494 1399 LINE",
"5475 1399 LINE",
"5475 1478 LINE",
"5440 1426 LINE",
"5440 1426 LINE",
"5405 1477 LINE",
"5405 1399 LINE",
"5387 1399 LINE",
"5387 1509 LINE"
);
}
);
width = 5544;
}
);
unicode = F002;
},
{
glyphname = uniF003;
lastChange = "2014-08-20 22:40:47 +0000";
layers = (
{
layerId = "ABCF47FB-41DD-418D-ADD0-B1CD0215F61B";
name = Regular;
paths = (
{
closed = 1;
nodes = (
"247 0 LINE",
"447 0 LINE",
"447 1509 LINE",
"247 1509 LINE"
);
},
{
closed = 1;
nodes = (
"2863 1104 OFFCURVE",
"2752 1053 OFFCURVE",
"2668 951 CURVE",
"2668 1509 LINE",
"2469 1509 LINE",
"2469 0 LINE",
"2668 0 LINE",
"2668 616 LINE SMOOTH",
"2668 794 OFFCURVE",
"2787 918 OFFCURVE",
"2956 918 CURVE SMOOTH",
"3124 918 OFFCURVE",
"3220 813 OFFCURVE",
"3220 628 CURVE SMOOTH",
"3220 0 LINE",
"3420 0 LINE",
"3420 666 LINE SMOOTH",
"3420 932 OFFCURVE",
"3256 1104 OFFCURVE",
"3001 1104 CURVE SMOOTH"
);
},
{
closed = 1;
nodes = (
"714 1263 LINE",
"936 1263 LINE",
"936 1479 LINE",
"714 1479 LINE"
);
},
{
closed = 1;
nodes = (
"4236 900 LINE",
"4236 1082 LINE",
"3908 1082 LINE",
"3908 1395 LINE",
"3708 1395 LINE",
"3708 1082 LINE",
"3563 1082 LINE",
"3563 900 LINE",
"3708 900 LINE",
"3708 297 LINE SMOOTH",
"3708 97 OFFCURVE",
"3823 -18 OFFCURVE",
"4023 -18 CURVE SMOOTH",
"4096 -18 OFFCURVE",
"4159 -3 OFFCURVE",
"4220 29 CURVE SMOOTH",
"4232 35 LINE",
"4232 217 LINE",
"4200 202 LINE SMOOTH",
"4150 178 OFFCURVE",
"4109 168 OFFCURVE",
"4059 168 CURVE SMOOTH",
"3956 168 OFFCURVE",
"3908 215 OFFCURVE",
"3908 318 CURVE SMOOTH",
"3908 900 LINE"
);
},
{
closed = 1;
nodes = (
"2019 936 LINE",
"1917 1048 OFFCURVE",
"1789 1104 OFFCURVE",
"1637 1104 CURVE SMOOTH",
"1386 1104 OFFCURVE",
"1127 913 OFFCURVE",
"1127 592 CURVE SMOOTH",
"1127 588 LINE SMOOTH",
"1127 270 OFFCURVE",
"1386 80 OFFCURVE",
"1637 80 CURVE SMOOTH",
"1789 80 OFFCURVE",
"1915 138 OFFCURVE",
"2021 258 CURVE",
"2021 199 LINE SMOOTH",
"2021 -21 OFFCURVE",
"1892 -147 OFFCURVE",
"1667 -147 CURVE SMOOTH",
"1528 -147 OFFCURVE",
"1398 -104 OFFCURVE",
"1282 -19 CURVE SMOOTH",
"1261 -4 LINE",
"1168 -164 LINE",
"1185 -176 LINE SMOOTH",
"1327 -275 OFFCURVE",
"1490 -325 OFFCURVE",
"1669 -325 CURVE SMOOTH",
"1843 -325 OFFCURVE",
"1985 -275 OFFCURVE",
"2080 -180 CURVE SMOOTH",
"2173 -88 OFFCURVE",
"2219 41 OFFCURVE",
"2219 203 CURVE SMOOTH",
"2219 1082 LINE",
"2019 1082 LINE"
);
},
{
closed = 1;
nodes = (
"724 0 LINE",
"924 0 LINE",
"924 1082 LINE",
"724 1082 LINE"
);
},
{
closed = 1;
nodes = (
"1479 262 OFFCURVE",
"1331 407 OFFCURVE",
"1331 592 CURVE SMOOTH",
"1331 596 LINE SMOOTH",
"1331 785 OFFCURVE",
"1473 922 OFFCURVE",
"1667 922 CURVE SMOOTH",
"1843 922 OFFCURVE",
"2025 800 OFFCURVE",
"2025 594 CURVE SMOOTH",
"2025 590 LINE SMOOTH",
"2025 388 OFFCURVE",
"1839 262 OFFCURVE",
"1667 262 CURVE SMOOTH"
);
}
);
width = 4286;
}
);
unicode = F003;
},
{
color = 1;
export = 0;
glyphname = uniEC55;
lastChange = "2013-10-23 18:03:53 +0000";
layers = (
{
layerId = "ABCF47FB-41DD-418D-ADD0-B1CD0215F61B";
name = Regular;
paths = (
{
closed = 1;
nodes = (
"1099.88 948 OFFCURVE",
"1085.94 947.196 OFFCURVE",
"1072.23 945.63 CURVE",
"1012.24 1115.98 OFFCURVE",
"849.939 1238 OFFCURVE",
"659 1238 CURVE SMOOTH",
"417 1238 OFFCURVE",
"221 1042 OFFCURVE",
"221 800 CURVE SMOOTH",
"221 775.094 OFFCURVE",
"223.077 750.675 OFFCURVE",
"227.065 726.906 CURVE",
"90.255 723.216 OFFCURVE",
"-20 610.681 OFFCURVE",
"-20 473 CURVE SMOOTH",
"-20 333 OFFCURVE",
"94 219 OFFCURVE",
"234 219 CURVE SMOOTH",
"584 219 LINE",
"584 584 LINE",
"438 584 LINE",
"730 903 LINE",
"1022 584 LINE",
"876 584 LINE",
"876 219 LINE",
"1114 219 LINE SMOOTH",
"1315 219 OFFCURVE",
"1478 382 OFFCURVE",
"1478 584 CURVE SMOOTH",
"1478 785 OFFCURVE",
"1315 948 OFFCURVE",
"1114 948 CURVE SMOOTH"
);
}
);
width = 1458;
}
);
unicode = EC55;
},
{
color = 4;
export = 0;
glyphname = uniEC83;
lastChange = "2013-10-23 18:03:53 +0000";
layers = (
{
layerId = "ABCF47FB-41DD-418D-ADD0-B1CD0215F61B";
name = Regular;
paths = (
{
closed = 1;
nodes = (
"1094.99 584 OFFCURVE",
"1028.16 557.064 OFFCURVE",
"976.906 512.609 CURVE",
"583.344 710.318 LINE",
"584 730 LINE SMOOTH",
"584 739.229 OFFCURVE",
"583.569 748.359 OFFCURVE",
"582.727 757.372 CURVE",
"978.372 956.128 LINE",
"1029.43 912.426 OFFCURVE",
"1095.69 886 OFFCURVE",
"1168 886 CURVE SMOOTH",
"1329 886 OFFCURVE",
"1460 1017 OFFCURVE",
"1460 1178 CURVE SMOOTH",
"1460 1339 OFFCURVE",
"1329 1470 OFFCURVE",
"1168 1470 CURVE SMOOTH",
"1007 1470 OFFCURVE",
"876 1339 OFFCURVE",
"876 1178 CURVE SMOOTH",
"876 1168.82 OFFCURVE",
"876.426 1159.75 OFFCURVE",
"877.258 1150.78 CURVE",
"481.85 951.682 LINE",
"430.763 995.497 OFFCURVE",
"364.416 1022 OFFCURVE",
"292 1022 CURVE SMOOTH",
"131 1022 OFFCURVE",
"0 891 OFFCURVE",
"0 730 CURVE SMOOTH",
"0 569 OFFCURVE",
"131 438 OFFCURVE",
"292 438 CURVE SMOOTH",
"367.179 438 OFFCURVE",
"435.817 466.564 OFFCURVE",
"487.63 513.408 CURVE",
"877.086 317.302 LINE",
"876.367 308.962 OFFCURVE",
"876 300.523 OFFCURVE",
"876 292 CURVE SMOOTH",
"876 131 OFFCURVE",
"1007 0 OFFCURVE",
"1168 0 CURVE SMOOTH",
"1329 0 OFFCURVE",
"1460 131 OFFCURVE",
"1460 292 CURVE SMOOTH",
"1460 453 OFFCURVE",
"1329 584 OFFCURVE",
"1168 584 CURVE SMOOTH"
);
}
);
width = 1460;
}
);
unicode = EC83;
},
{
color = 4;
export = 0;
glyphname = uniECAE.001;
layers = (
{
guideLines = (
{
position = "{-100, 0}";
},
{
position = "{-100, 0}";
}
);
layerId = "ABCF47FB-41DD-418D-ADD0-B1CD0215F61B";
name = Regular;
paths = (
{
closed = 1;
nodes = (
"1460 561 LINE",
"1460 745 LINE",
"1197 745 LINE",
"1131 563 LINE",
"808 1459 LINE",
"540 712 LINE",
"333 1283 LINE",
"136 745 LINE",
"0.9999 745 LINE",
"0.9999 561 LINE",
"264 561 LINE",
"332 747 LINE",
"540 172 LINE",
"808 918 LINE",
"1131 22 LINE",
"1325 561 LINE"
);
}
);
width = 1460;
}
);
},
{
color = 4;
export = 0;
glyphname = uniECB8.001;
lastChange = "2014-05-29 18:50:42 +0000";
layers = (
{
layerId = "ABCF47FB-41DD-418D-ADD0-B1CD0215F61B";
name = Regular;
paths = (
{
closed = 1;
nodes = (
"1217 1387 OFFCURVE",
"1168 1338 OFFCURVE",
"1168 1277 CURVE SMOOTH",
"1168 1217 OFFCURVE",
"1217 1168 OFFCURVE",
"1278 1168 CURVE SMOOTH",
"1338 1168 OFFCURVE",
"1387 1217 OFFCURVE",
"1387 1277 CURVE SMOOTH",
"1387 1338 OFFCURVE",
"1338 1387 OFFCURVE",
"1278 1387 CURVE SMOOTH"
);
},
{
closed = 1;
nodes = (
"876 1225 OFFCURVE",
"758 1106 OFFCURVE",
"758 959 CURVE SMOOTH",
"758 814 OFFCURVE",
"876 695 OFFCURVE",
"1023 695 CURVE SMOOTH",
"1168 695 OFFCURVE",
"1286 814 OFFCURVE",
"1286 959 CURVE SMOOTH",
"1286 1106 OFFCURVE",
"1168 1225 OFFCURVE",
"1023 1225 CURVE SMOOTH"
);
},
{
closed = 1;
nodes = (
"446 1177 OFFCURVE",
"378 1109 OFFCURVE",
"378 1024 CURVE SMOOTH",
"378 940 OFFCURVE",
"446 872 OFFCURVE",
"532 872 CURVE SMOOTH",
"615 872 OFFCURVE",
"684 940 OFFCURVE",
"684 1024 CURVE SMOOTH",
"684 1109 OFFCURVE",
"615 1177 OFFCURVE",
"532 1177 CURVE SMOOTH"
);
},
{
closed = 1;
nodes = (
"93 614 OFFCURVE",
"0 521 OFFCURVE",
"0 406 CURVE SMOOTH",
"0 292 OFFCURVE",
"93 200 OFFCURVE",
"208 200 CURVE SMOOTH",
"322 200 OFFCURVE",
"414 292 OFFCURVE",
"414 406 CURVE SMOOTH",
"414 521 OFFCURVE",
"322 614 OFFCURVE",
"208 614 CURVE SMOOTH"
);
},
{
closed = 1;
nodes = (
"532 693 OFFCURVE",
"483 644 OFFCURVE",
"483 583 CURVE SMOOTH",
"483 523 OFFCURVE",
"532 474 OFFCURVE",
"593 474 CURVE SMOOTH",
"653 474 OFFCURVE",
"702 523 OFFCURVE",
"702 583 CURVE SMOOTH",
"702 644 OFFCURVE",
"653 693 OFFCURVE",
"593 693 CURVE SMOOTH"
);
},
{
closed = 1;
nodes = (
"425 254 OFFCURVE",
"376 205 OFFCURVE",
"376 144 CURVE SMOOTH",
"376 84 OFFCURVE",
"425 35 OFFCURVE",
"486 35 CURVE SMOOTH",
"546 35 OFFCURVE",
"595 84 OFFCURVE",
"595 144 CURVE SMOOTH",
"595 205 OFFCURVE",
"546 254 OFFCURVE",
"486 254 CURVE SMOOTH"
);
}
